<?xml version="1.0" standalone="no"?>
<!DOCTYPE svg PUBLIC "-//W3C//DTD SVG 1.1//EN" "http://www.w3.org/Graphics/SVG/1.1/DTD/svg11.dtd" >
<svg xmlns="http://www.w3.org/2000/svg" xmlns:xlink="http://www.w3.org/1999/xlink" version="1.1">
<metadata>
Created by FontForge 20190801 at Thu Nov  8 14:16:15 2018
 By www-data
Acephimere (c)Dichi. 2016. All Rights Reserved
</metadata>
<defs>
<font id="Acephimere" horiz-adv-x="0" >
  <font-face 
    font-family="Acephimere"
    font-weight="400"
    font-stretch="normal"
    units-per-em="1000"
    panose-1="2 11 2 3 3 2 2 2 2 4"
    ascent="800"
    descent="-200"
    x-height="539"
    cap-height="741"
    bbox="-500 -242 1156 1047"
    underline-thickness="50"
    underline-position="-100"
    unicode-range="U+001D-FFFD"
  />
<missing-glyph horiz-adv-x="601" 
d="M549 751v-731h-497v731h497zM141 663v-555h319v555h-319z" />
    <glyph glyph-name="uniF001" unicode="fi" horiz-adv-x="570" 
d="M408 679v29q0 34 37 34h23q37 0 37 -34v-29q0 -34 -37 -34h-23q-37 0 -37 34zM413 472h-226v-468h-87v468h-82v67h82v45q0 188 177 188q30 0 76 -14l-16 -59q-26 6 -60 6q-90 0 -90 -124v-42h313v-539h-87v472z" />
    <glyph glyph-name="uniF002" unicode="fl" horiz-adv-x="631" 
d="M425 683q-84 12 -148 12q-90 0 -90 -114v-42h119v-67h-119v-468h-87v468h-82v67h82v45q0 188 177 188q130 0 235 -27v-569q0 -94 55 -94h48l2 -60q-21 -18 -80 -18q-112 0 -112 174v505z" />
    <glyph glyph-name="uniFB00" unicode="ff" horiz-adv-x="675" 
d="M188 472v-468h-87v468h-82v67h82v45q0 188 177 188q30 0 76 -14l-16 -59q-26 6 -60 6q-90 0 -90 -124v-42h267v45q0 188 177 188q30 0 76 -14l-16 -59q-26 6 -60 6q-90 0 -90 -124v-42h119v-67h-119v-468h-87v468h-267z" />
    <glyph glyph-name="uniFB03" unicode="ffi" horiz-adv-x="923" 
d="M763 679v29q0 34 37 34h23q37 0 37 -34v-29q0 -34 -37 -34h-23q-37 0 -37 34zM188 472v-468h-87v468h-82v67h82v45q0 188 177 188q30 0 76 -14l-16 -59q-26 6 -60 6q-90 0 -90 -124v-42h267v45q0 188 177 188q30 0 76 -14l-16 -59q-26 6 -60 6q-90 0 -90 -124v-42h313
v-539h-87v472h-226v-468h-87v468h-267z" />
    <glyph glyph-name="uniFB04" unicode="ffl" horiz-adv-x="972" 
d="M101 4v468h-82v67h82v45q0 188 177 188q30 0 76 -14l-16 -59q-26 6 -60 6q-90 0 -90 -124v-42h230v-67h-230v-468h-87zM780 683q-84 12 -148 12q-90 0 -90 -114v-42h119v-67h-119v-468h-87v468h-82v67h82v45q0 188 177 188q130 0 235 -27v-569q0 -94 55 -94h48l2 -60
q-21 -18 -80 -18q-112 0 -112 174v505z" />
    <glyph glyph-name=".notdef" horiz-adv-x="601" 
d="M549 751v-731h-497v731h497zM141 663v-555h319v555h-319z" />
    <glyph glyph-name="glyph1" horiz-adv-x="198" 
d="M8 -117q47 0 47 69v138h87v-138q0 -151 -134 -151q-44 0 -73 14l6 76q38 -8 67 -8z" />
    <glyph glyph-name="nonmarkingreturn" horiz-adv-x="333" 
 />
    <glyph glyph-name="uni001D" 
 />
    <glyph glyph-name="uni001D" 
 />
    <glyph glyph-name="space" unicode=" " horiz-adv-x="250" 
 />
    <glyph glyph-name="space" unicode="&#xa0;" horiz-adv-x="250" 
 />
    <glyph glyph-name="exclam" unicode="!" horiz-adv-x="271" 
d="M169 744l-6 -549h-75l-6 549h87zM71 42v24q0 42 42 42h25q42 0 42 -42v-24q0 -42 -42 -42h-25q-42 0 -42 42z" />
    <glyph glyph-name="quotedbl" unicode="&#x22;" horiz-adv-x="320" 
d="M119 519h-50l-11 100v150h72v-150zM201 619v150h72v-150l-11 -100h-50z" />
    <glyph glyph-name="numbersign" unicode="#" horiz-adv-x="676" 
d="M394 282l42 200h-139l-40 -200h137zM165 215h-136l7 67h145l38 200h-135l7 66h142l37 180l76 3l-36 -183h138l37 180l78 3l-38 -183h129l-7 -66h-135l-40 -200h127l-7 -67h-135l-41 -205h-75l39 205h-137l-40 -205h-79z" />
    <glyph glyph-name="dollar" unicode="$" horiz-adv-x="619" 
d="M309 1l-7 -73l-63 1l7 75q-86 5 -173 19l8 68q85 -4 173 -7l23 247l-64 11q-143 25 -151 170v37q0 192 254 192l8 81l64 -1l-8 -83q74 -5 157 -22l-8 -68q-76 7 -157 10l-24 -252l54 -10q161 -28 162 -187v-32q-9 -176 -237 -176h-18zM285 417l23 242q-159 -3 -159 -110
v-37q5 -63 72 -84zM340 319l-23 -236h3q154 0 157 94v32q0 87 -85 101z" />
    <glyph glyph-name="percent" unicode="%" horiz-adv-x="872" 
d="M58 559q0 180 158 180q159 0 159 -180v-20q0 -170 -159 -170q-158 0 -158 170v20zM298 539v20q0 113 -82 113q-81 0 -81 -113v-20q0 -103 81 -103q82 0 82 103zM487 189q0 180 158 180q159 0 159 -180v-20q0 -170 -159 -170q-158 0 -158 170v20zM727 169v20
q0 113 -82 113q-81 0 -81 -113v-20q0 -103 81 -103q82 0 82 103zM644 741l53 -31l-479 -709l-53 31z" />
    <glyph glyph-name="ampersand" unicode="&#x26;" horiz-adv-x="603" 
d="M413 138l-13 16l-156 193l-16 -9q-95 -68 -95 -142q0 -109 143 -109q82 1 137 51zM261 452q116 67 116 119q0 89 -82 89q-90 0 -90 -89q0 -37 56 -119zM515 141l71 -87l-62 -51l-60 74q-74 -69 -188 -70q-230 0 -230 189q0 117 143 211l4 2q-75 97 -75 162q0 169 177 169
q169 0 169 -169q0 -97 -153 -181l151 -184l1 -1q17 34 30 118l75 -27q-20 -104 -53 -155z" />
    <glyph glyph-name="quotesingle" unicode="'" horiz-adv-x="191" 
d="M117 519h-50l-11 100v150h72v-150z" />
    <glyph glyph-name="parenleft" unicode="(" horiz-adv-x="338" 
d="M259 -172q-188 249 -188 496v4q0 247 188 496l76 -10q-169 -237 -171 -488q2 -251 171 -488z" />
    <glyph glyph-name="parenright" unicode=")" horiz-adv-x="348" 
d="M-4 -162q169 237 171 488q-2 251 -171 488l76 10q188 -249 188 -496v-4q0 -247 -188 -496z" />
    <glyph glyph-name="asterisk" unicode="*" horiz-adv-x="366" 
d="M152 641v100h57v-100l86 50l29 -49l-87 -50l87 -50l-29 -49l-86 50v-100h-57v100l-86 -50l-29 49l87 50l-87 50l29 49z" />
    <glyph glyph-name="plus" unicode="+" horiz-adv-x="529" 
d="M219 398v199h67v-199h200v-67h-200v-200h-67v200h-199v67h199z" />
    <glyph glyph-name="comma" unicode="," horiz-adv-x="184" 
d="M129 107q-4 -104 -65 -221l-66 23q45 92 50 198h81z" />
    <glyph glyph-name="hyphen" unicode="-" horiz-adv-x="369" 
d="M322 346v-67h-294v67h294z" />
    <glyph glyph-name="hyphen" unicode="&#xad;" horiz-adv-x="369" 
d="M322 346v-67h-294v67h294z" />
    <glyph glyph-name="period" unicode="." horiz-adv-x="215" 
d="M42 46v33q0 42 42 42h33q42 0 42 -42v-33q0 -42 -42 -42h-33q-42 0 -42 42z" />
    <glyph glyph-name="slash" unicode="/" horiz-adv-x="377" 
d="M280 751h78l-272 -787h-78z" />
    <glyph glyph-name="zero" unicode="0" horiz-adv-x="604" 
d="M547 298q0 -298 -223 -298h-34q-233 0 -233 298v144q0 299 233 299h34q223 0 223 -299v-144zM290 654q-146 -1 -146 -216v-139q0 -212 146 -212h34q136 0 136 213v139q0 215 -136 215h-34z" />
    <glyph glyph-name="one" unicode="1" horiz-adv-x="428" 
d="M340 2h-87v649l-216 -55v82l236 61h67v-737z" />
    <glyph glyph-name="two" unicode="2" horiz-adv-x="544" 
d="M336 421q67 54 67 117v16q0 105 -159 105q-65 0 -176 -21l-10 73q98 28 186 30q247 0 247 -177v-36q-1 -93 -90 -163l-199 -149q-67 -54 -67 -122v-10h372v-82h-470v57q1 143 100 213z" />
    <glyph glyph-name="three" unicode="3" horiz-adv-x="556" 
d="M155 354v77h139q102 15 102 110q0 54 -30 84q-33 35 -124 35q-85 -2 -172 -7l-5 72q93 15 177 17q134 0 191 -50q50 -46 50 -151q0 -115 -102 -148q122 -25 122 -198q0 -95 -50 -141q-57 -50 -211 -50q-98 1 -195 20l11 70q87 -7 184 -8q101 0 144 35q30 29 30 74
q0 154 -122 159h-139z" />
    <glyph glyph-name="four" unicode="4" horiz-adv-x="580" 
d="M469 519v-285h91v-77h-91v-153h-87v153h-257q-135 0 -69 118l204 467h96l-208 -473q-17 -35 21 -35h213v285h87z" />
    <glyph glyph-name="five" unicode="5" horiz-adv-x="559" 
d="M468 659h-302v-208q46 8 146 8q211 -10 211 -233q0 -225 -231 -225q-138 0 -240 50l34 71q68 -39 206 -39q144 0 144 143q0 141 -124 151q-100 0 -192 -17q-41 7 -41 37v344h389v-82z" />
    <glyph glyph-name="six" unicode="6" horiz-adv-x="560" 
d="M448 653q-84 8 -173 8q-133 -7 -133 -209v-12q79 56 191 56q193 0 194 -231v-6q-1 -258 -226 -259h-16q-229 1 -230 239v213q0 289 220 289q86 0 185 -22zM142 239q7 -150 143 -152h16q138 1 139 172v6q-1 148 -107 148q-111 0 -191 -61v-113z" />
    <glyph glyph-name="seven" unicode="7" horiz-adv-x="538" 
d="M269 4h-94l229 651h-374v87h401q95 0 61 -100z" />
    <glyph glyph-name="eight" unicode="8" horiz-adv-x="568" 
d="M284 350q-151 0 -151 -144q1 -129 151 -129t151 129q0 144 -151 144zM284 0q-238 0 -238 206q0 158 124 182q-110 22 -110 164q0 188 224 189q224 -1 224 -189q0 -142 -110 -164q124 -24 124 -182q0 -206 -238 -206zM284 664q-137 -1 -137 -112q0 -125 137 -125t137 125
q0 111 -137 112z" />
    <glyph glyph-name="nine" unicode="9" horiz-adv-x="560" 
d="M112 88q84 -8 173 -8q133 7 133 209v12q-79 -56 -191 -56q-193 0 -194 231v6q1 258 226 259h16q229 -1 230 -239v-213q0 -289 -220 -289q-86 0 -185 22zM418 502q-7 150 -143 152h-16q-138 -1 -139 -172v-6q1 -148 107 -148q111 0 191 71v103z" />
    <glyph glyph-name="colon" unicode=":" horiz-adv-x="235" 
d="M101 112h35q37 0 37 -42v-24q0 -42 -37 -42h-35q-37 0 -37 42v24q0 42 37 42zM64 473v24q0 42 42 42h25q42 0 42 -42v-24q0 -42 -42 -42h-25q-42 0 -42 42z" />
    <glyph glyph-name="semicolon" unicode=";" horiz-adv-x="244" 
d="M72 473v24q0 42 42 42h25q42 0 42 -42v-24q0 -42 -42 -42h-25q-42 0 -42 42zM165 107q-4 -104 -65 -221l-66 23q45 92 50 198h81z" />
    <glyph glyph-name="semicolon" unicode="&#x37e;" horiz-adv-x="244" 
d="M72 473v24q0 42 42 42h25q42 0 42 -42v-24q0 -42 -42 -42h-25q-42 0 -42 42zM165 107q-4 -104 -65 -221l-66 23q45 92 50 198h81z" />
    <glyph glyph-name="less" unicode="&#x3c;" horiz-adv-x="538" 
d="M486 582v-80l-366 -147l366 -146v-81l-450 183v88z" />
    <glyph glyph-name="equal" unicode="=" horiz-adv-x="569" 
d="M513 318v-77h-457v77h457zM513 508v-77h-457v77h457z" />
    <glyph glyph-name="greater" unicode="&#x3e;" horiz-adv-x="538" 
d="M502 399v-88l-450 -183v81l366 146l-366 147v80z" />
    <glyph glyph-name="question" unicode="?" horiz-adv-x="491" 
d="M0 718q105 23 218 23q215 -1 215 -188q-3 -94 -107 -189q-88 -82 -98 -174h-87q8 115 101 215q100 84 100 148q0 99 -125 103q-111 -4 -206 -15zM130 42v24q0 42 42 42h25q42 0 42 -42v-24q0 -42 -42 -42h-25q-42 0 -42 42z" />
    <glyph glyph-name="at" unicode="@" horiz-adv-x="951" 
d="M572 434q-58 25 -111 27q-76 -4 -89 -121v-99q5 -115 83 -121q57 6 117 78v236zM235 21q93 -92 256 -92v-77q-201 0 -314 112q-112 112 -112 354q0 203 112 316q94 111 294 111q190 0 297 -111q118 -112 118 -316q0 -273 -208 -273q-106 0 -106 81q-56 -80 -118 -81
q-159 11 -159 196v109q14 175 166 188q67 0 188 -47v-312q0 -59 29 -59q131 0 131 198q0 166 -97 258q-88 92 -241 92q-163 0 -236 -92q-93 -91 -93 -258q0 -206 93 -297z" />
    <glyph glyph-name="A" unicode="A" horiz-adv-x="630" 
d="M171 208l-68 -206h-89l241 710q11 29 31 29h56q22 0 33 -29l241 -710h-89l-68 206h-288zM434 285l-119 359l-119 -359h238z" />
    <glyph glyph-name="B" unicode="B" horiz-adv-x="610" 
d="M63 742h241q224 0 224 -193q0 -129 -109 -166q141 -40 141 -187q0 -196 -256 -196h-241v742zM150 343v-266h154q169 0 169 119q0 147 -179 147h-144zM150 665v-245h144q147 0 147 129q0 116 -137 116h-154z" />
    <glyph glyph-name="C" unicode="C" horiz-adv-x="583" 
d="M47 372q0 370 281 370q120 -5 224 -29l-16 -73q-90 18 -208 20q-194 0 -194 -288t194 -288q118 2 208 20l16 -73q-104 -24 -224 -29q-281 0 -281 370z" />
    <glyph glyph-name="D" unicode="D" horiz-adv-x="664" 
d="M82 0v745h226q309 0 309 -373q0 -372 -309 -372h-226zM308 82q222 0 222 290q0 291 -222 291h-139v-581h139z" />
    <glyph glyph-name="E" unicode="E" horiz-adv-x="544" 
d="M54 159v425q2 157 162 157q141 0 301 -10v-72h-301q-75 0 -75 -75v-173h314v-82h-314v-170q0 -75 75 -75h301v-72q-160 -10 -301 -10q-160 0 -162 157z" />
    <glyph glyph-name="F" unicode="F" horiz-adv-x="552" 
d="M529 659h-291q-75 0 -75 -75v-173h314v-82h-314v-327h-87v582q2 157 162 157q141 0 291 -10v-72z" />
    <glyph glyph-name="G" unicode="G" horiz-adv-x="644" 
d="M528 638q-96 20 -203 21q-191 0 -191 -294q0 -279 193 -279q88 0 166 19v217h-186v76h273v-366q-151 -30 -253 -30q-280 0 -280 362q0 377 279 377q111 -2 214 -28z" />
    <glyph glyph-name="H" unicode="H" horiz-adv-x="683" 
d="M169 328v-324h-87v737h87v-326h345v326h87v-739h-87v326h-345z" />
    <glyph glyph-name="I" unicode="I" horiz-adv-x="251" 
d="M169 741v-739h-87v739h87z" />
    <glyph glyph-name="J" unicode="J" horiz-adv-x="381" 
d="M299 742v-525q0 -217 -173 -217q-53 0 -126 10l10 71h116q86 0 86 136v525h87z" />
    <glyph glyph-name="K" unicode="K" horiz-adv-x="629" 
d="M169 741v-369l311 369h118l-271 -316l289 -425h-105l-254 353l-88 -99v-254h-87v741h87z" />
    <glyph glyph-name="L" unicode="L" horiz-adv-x="560" 
d="M169 742v-573q0 -83 77 -83h279v-82h-279q-164 0 -164 165v573h87z" />
    <glyph glyph-name="M" unicode="M" horiz-adv-x="851" 
d="M420 0q-44 0 -59 32l-192 606v-638h-87v719q0 24 15 24h87q32 0 43 -25l199 -638l198 638q11 25 43 25h87q15 0 15 -24v-719h-87v638l-192 -606q-15 -32 -59 -32h-11z" />
    <glyph glyph-name="N" unicode="N" horiz-adv-x="699" 
d="M169 4v624l311 -592q15 -32 53 -32h69q15 0 15 22v715h-87v-619l-313 596q-11 25 -43 25h-77q-15 0 -15 -24v-715h87z" />
    <glyph glyph-name="O" unicode="O" horiz-adv-x="659" 
d="M358 0h-57q-254 0 -254 335v73q0 334 254 334h57q254 0 254 -334v-73q0 -335 -254 -335zM134 408v-73q0 -258 167 -258h57q167 0 167 258v73q0 257 -167 257h-57q-167 0 -167 -257z" />
    <glyph glyph-name="P" unicode="P" horiz-adv-x="618" 
d="M308 376q182 0 182 145q0 143 -182 143h-139v-288h139zM308 299h-139v-299h-87v741h226q269 0 269 -220q0 -222 -269 -222z" />
    <glyph glyph-name="Q" unicode="Q" horiz-adv-x="674" 
d="M136 408v-69q0 -258 167 -258h57q167 0 167 258v69q0 257 -167 257h-57q-167 0 -167 -257zM447 16q-39 -12 -87 -12h-57q-254 0 -254 335v69q0 334 254 334h57q254 0 254 -334v-69q0 -193 -85 -275l120 -86l-50 -71z" />
    <glyph glyph-name="R" unicode="R" horiz-adv-x="629" 
d="M308 381q182 0 182 140q0 138 -182 138h-139v-278h139zM82 0v741h226q269 0 269 -220q0 -164 -147 -207l161 -314h-98l-154 300q-15 -1 -31 -1h-139v-299h-87z" />
    <glyph glyph-name="S" unicode="S" horiz-adv-x="586" 
d="M510 648q-102 9 -211 11q-169 0 -169 -110v-37q5 -63 72 -84l181 -32q161 -28 162 -187v-32q-9 -176 -237 -176q-126 2 -254 22l8 68q116 -6 239 -8q154 0 157 94v32q0 87 -85 101l-179 32q-143 25 -151 170v37q0 192 255 192q100 -1 220 -25z" />
    <glyph glyph-name="T" unicode="T" horiz-adv-x="591" 
d="M569 742v-77h-221v-663h-87v663h-239v77h547z" />
    <glyph glyph-name="U" unicode="U" horiz-adv-x="667" 
d="M163 742v-490q0 -175 162 -175h20q167 0 167 175v490h87v-490q0 -252 -254 -252h-20q-249 0 -249 252v490h87z" />
    <glyph glyph-name="V" unicode="V" horiz-adv-x="634" 
d="M533 741h92l-239 -710q-11 -29 -33 -29h-66q-20 0 -31 29l-239 710h92l212 -642z" />
    <glyph glyph-name="W" unicode="W" horiz-adv-x="932" 
d="M491 741q25 0 31 -29l140 -603l140 632h89l-169 -710q-11 -29 -33 -29h-56q-20 0 -31 29l-143 593l-143 -593q-11 -29 -33 -29h-56q-20 0 -31 29l-169 710h89l140 -632l140 603q6 29 33 29h62z" />
    <glyph glyph-name="X" unicode="X" horiz-adv-x="644" 
d="M317 325l-24 -42l-164 -284h-100l214 370l-215 371h100l165 -285l25 -43h5l25 43l165 285h100l-215 -371l214 -370h-100l-164 284l-24 42h-7z" />
    <glyph glyph-name="Y" unicode="Y" horiz-adv-x="577" 
d="M108 741l174 -334l14 -36l14 36l174 334h102l-247 -458v-281h-87v281l-247 458h103z" />
    <glyph glyph-name="Z" unicode="Z" horiz-adv-x="590" 
d="M547 737v-52l-387 -608h389v-77h-503v52l387 608h-385v77h499z" />
    <glyph glyph-name="bracketleft" unicode="[" horiz-adv-x="280" 
d="M32 842h238v-77h-151v-852h151v-77h-238v1006z" />
    <glyph glyph-name="backslash" unicode="\" horiz-adv-x="440" 
d="M113 751h-78l272 -787h78z" />
    <glyph glyph-name="bracketright" unicode="]" horiz-adv-x="280" 
d="M248 -164h-238v77h151v842h-151v77h238v-996z" />
    <glyph glyph-name="asciicircum" unicode="^" horiz-adv-x="546" 
d="M282 732q18 0 25 -16l186 -344l-89 -1l-130 254l-130 -254l-91 1l189 344q7 16 24 16h16z" />
    <glyph glyph-name="underscore" unicode="_" horiz-adv-x="451" 
d="M451 -7v-67h-451v67h451z" />
    <glyph glyph-name="grave" unicode="`" horiz-adv-x="284" 
d="M99 783l144 -129l-42 -52l-156 115z" />
    <glyph glyph-name="a" unicode="a" horiz-adv-x="520" 
d="M371 255h-69q-80 0 -121 -12q-59 -15 -61 -85q0 -84 93 -84q92 3 158 94v87zM457 352v-350h-76l-10 79q-63 -77 -158 -79q-180 0 -180 156q3 132 149 162q59 12 120 12h69v20q0 110 -112 110q-79 -4 -156 -34l-24 67q67 44 180 44q198 0 198 -187z" />
    <glyph glyph-name="b" unicode="b" horiz-adv-x="564" 
d="M155 171q77 -99 154 -99q123 0 123 204q0 194 -123 194q-87 0 -154 -81v-218zM155 483q67 70 154 70q210 0 210 -282q0 -281 -210 -281q-77 0 -153 89l-10 -79h-78v748h87v-265z" />
    <glyph glyph-name="c" unicode="c" horiz-adv-x="503" 
d="M47 269q0 271 223 271q101 -2 199 -29l-13 -67q-92 14 -183 14q-139 0 -139 -189t139 -189q91 0 183 14l13 -67q-98 -27 -199 -29q-223 0 -223 271z" />
    <glyph glyph-name="d" unicode="d" horiz-adv-x="564" 
d="M409 389q-77 81 -154 81q-123 0 -123 -194q0 -204 123 -204q77 0 154 99v218zM409 748h87v-748h-78l-10 79q-76 -89 -153 -89q-210 0 -210 281q0 282 210 282q77 0 154 -70v265z" />
    <glyph glyph-name="e" unicode="e" horiz-adv-x="521" 
d="M124 302h235q32 0 32 31q0 134 -113 136h-27q-125 0 -127 -167zM129 228q22 -147 152 -147q92 0 171 20l17 -65q-93 -37 -191 -37q-241 0 -241 297q11 250 214 250h27q195 0 200 -213q0 -105 -119 -105h-230z" />
    <glyph glyph-name="f" unicode="f" horiz-adv-x="366" 
d="M101 4v468h-82v67h82v45q0 188 177 188q30 0 76 -14l-16 -59q-26 6 -60 6q-90 0 -90 -124v-42h119v-67h-119v-468h-87z" />
    <glyph glyph-name="g" unicode="g" horiz-adv-x="575" 
d="M154 348q0 -80 113 -80h22q114 0 114 80v24q0 100 -114 100h-22q-113 0 -113 -100v-24zM127 -60q0 -70 160 -70q143 0 143 70v14q-4 64 -102 84l-127 20q-69 -36 -74 -104v-14zM346 111q171 -37 171 -157v-14q0 -147 -230 -147q-247 0 -247 147v14q0 70 87 121
q-47 20 -48 84q1 41 43 84q-52 33 -55 105v24q0 167 200 167h22q72 0 92 -10h153v-53l-74 -5q28 -35 30 -99v-24q0 -147 -201 -147h-22q-41 1 -79 11q-27 -4 -32 -36q3 -34 39 -42z" />
    <glyph glyph-name="h" unicode="h" horiz-adv-x="565" 
d="M161 762v-291q50 77 156 78q185 0 185 -218v-327h-87v327q0 141 -98 141q-106 0 -156 -102v-366h-87v758h87z" />
    <glyph glyph-name="i" unicode="i" horiz-adv-x="233" 
d="M165 539v-539h-87v539h87zM67 676v24q0 42 42 42h25q42 0 42 -42v-24q0 -42 -42 -42h-25q-42 0 -42 42z" />
    <glyph glyph-name="j" unicode="j" horiz-adv-x="240" 
d="M174 539v-558q0 -186 -218 -193v77q130 0 131 116v558h87zM76 676v24q0 42 42 42h25q42 0 42 -42v-24q0 -42 -42 -42h-25q-42 0 -42 42z" />
    <glyph glyph-name="k" unicode="k" horiz-adv-x="530" 
d="M161 305l219 237h105l-207 -223l241 -319h-105l-197 257l-56 -64v-193h-87v771h87v-466z" />
    <glyph glyph-name="l" unicode="l" horiz-adv-x="286" 
d="M151 762v-586q0 -94 55 -94h48l2 -60q-21 -18 -80 -18q-112 0 -112 174v584h87z" />
    <glyph glyph-name="m" unicode="m" horiz-adv-x="859" 
d="M469 385q8 -31 8 -83v-302h-87v302q0 170 -93 170q-83 -1 -144 -79v-393h-87v539h77l10 -59q81 69 154 69q104 0 143 -92q95 90 176 90q170 0 170 -237v-310h-87v310q0 160 -93 160q-84 -1 -147 -85z" />
    <glyph glyph-name="n" unicode="n" horiz-adv-x="557" 
d="M143 539l10 -68q50 77 156 78q185 0 185 -228v-321h-87v321q0 151 -98 151q-106 0 -156 -112v-360h-87v539h77z" />
    <glyph glyph-name="o" unicode="o" horiz-adv-x="571" 
d="M524 255q0 -255 -230 -255h-20q-227 0 -227 255v27q0 257 227 257h20q230 0 230 -257v-27zM274 462q-140 0 -140 -180v-27q0 -178 140 -178h20q143 0 143 178v27q0 180 -143 180h-20z" />
    <glyph glyph-name="p" unicode="p" horiz-adv-x="564" 
d="M155 150q77 -81 154 -81q123 0 123 194q0 204 -123 204q-77 0 -154 -99v-218zM155 -209h-87v748h78l10 -79q76 89 153 89q210 0 210 -281q0 -282 -210 -282q-77 0 -154 70v-265z" />
    <glyph glyph-name="q" unicode="q" horiz-adv-x="564" 
d="M409 368q-77 99 -154 99q-123 0 -123 -204q0 -194 123 -194q77 0 154 81v218zM409 56q-77 -70 -154 -70q-210 0 -210 282q0 281 210 281q77 0 153 -89l10 79h78v-748h-87v265z" />
    <glyph glyph-name="r" unicode="r" horiz-adv-x="412" 
d="M375 454q-30 8 -68 8q-103 -1 -154 -129v-331h-87v537h77l10 -89q51 89 154 89q38 0 83 -21z" />
    <glyph glyph-name="s" unicode="s" horiz-adv-x="484" 
d="M132 376q5 -47 66 -59l113 -14q141 -18 143 -138q0 -162 -165 -162q-149 2 -233 22l9 69q83 -12 224 -14q78 3 78 85q-2 50 -61 58l-113 14q-141 21 -148 139q0 162 175 162q129 -2 203 -22l-10 -70q-72 13 -193 15q-88 -3 -88 -85z" />
    <glyph glyph-name="t" unicode="t" horiz-adv-x="368" 
d="M196 677v-138h130v-67h-130v-308q1 -83 54 -83q33 0 64 6l18 -67q-46 -16 -83 -16q-140 0 -140 160v308h-100v67h100v138h87z" />
    <glyph glyph-name="u" unicode="u" horiz-adv-x="551" 
d="M411 0l-10 72q-50 -77 -156 -78q-185 0 -185 228v317h87v-317q0 -151 98 -151q106 0 156 112v356h87v-539h-77z" />
    <glyph glyph-name="v" unicode="v" horiz-adv-x="527" 
d="M177 41l-166 498h93l151 -462l151 462h93l-166 -498q-18 -41 -78 -41t-78 41z" />
    <glyph glyph-name="w" unicode="w" horiz-adv-x="809" 
d="M287 41q-13 -41 -68 -41t-68 41l-136 498h93l111 -452l114 411q13 41 68 41t68 -41l114 -411l111 452h93l-136 -498q-13 -41 -68 -41t-68 41l-114 411z" />
    <glyph glyph-name="x" unicode="x" horiz-adv-x="524" 
d="M252 226l-132 -227h-96l157 272l-155 268h96l132 -226h4l132 226h96l-155 -268l157 -272h-96l-132 227h-8z" />
    <glyph glyph-name="y" unicode="y" horiz-adv-x="502" 
d="M223 2q-31 0 -52 56l-160 481h93l139 -430q6 -24 8 -24l147 454h93l-180 -537q-57 -139 -176 -229l-44 50q92 99 132 179z" />
    <glyph glyph-name="z" unicode="z" horiz-adv-x="510" 
d="M462 487l-308 -410h308v-77h-426v52l308 410h-308v77h426v-52z" />
    <glyph glyph-name="braceleft" unicode="{" horiz-adv-x="420" 
d="M52 356q106 20 106 153q0 183 37 235q44 63 162 63h11v-74q-91 0 -104.5 -54t-13.5 -142.5t-21 -137.5q-22 -48 -61 -76q39 -28 61 -76q21 -49 21 -137.5t13.5 -142.5t104.5 -54v-74h-11q-118 0 -162 63q-37 52 -37 235q0 133 -106 153v66z" />
    <glyph glyph-name="bar" unicode="|" horiz-adv-x="267" 
d="M90 741h87v-866h-87v866z" />
    <glyph glyph-name="braceright" unicode="}" horiz-adv-x="420" 
d="M368 290q-106 -20 -106 -153q0 -183 -37 -235q-44 -63 -162 -63h-11v74q91 0 104.5 54t13.5 142.5t22 137.5q21 48 60 76q-39 28 -60 76q-22 49 -22 137.5t-13.5 142.5t-104.5 54v74h11q118 0 162 -63q37 -52 37 -235q0 -133 106 -153v-66z" />
    <glyph glyph-name="asciitilde" unicode="~" horiz-adv-x="635" 
d="M598 423q0 -200 -165 -200q-93 0 -160 96q-39 48 -82 48q-88 0 -88 -129h-77q0 196 165 196q93 0 160 -96q39 -48 82 -48q88 0 88 133h77z" />
    <glyph glyph-name="exclamdown" unicode="&#xa1;" horiz-adv-x="219" 
d="M79 -201l6 549h75l6 -549h-87zM177 501v-24q0 -42 -42 -42h-25q-42 0 -42 42v24q0 42 42 42h25q42 0 42 -42z" />
    <glyph glyph-name="cent" unicode="&#xa2;" horiz-adv-x="494" 
d="M228 1q-181 24 -181 268q0 271 223 271h13l8 76h67l-8 -82q60 -7 119 -23l-13 -67q-57 9 -114 12l-39 -376q76 2 153 14l13 -67q-86 -24 -174 -28l-10 -93h-67zM275 458h-2q-139 0 -139 -189q0 -162 102 -185z" />
    <glyph glyph-name="sterling" unicode="&#xa3;" horiz-adv-x="566" 
d="M56 91q85 60 94 137v115h-91v77h91v100q0 221 204 221q67 0 142 -24l-15 -64q-59 11 -127 11q-117 0 -117 -144v-100h197v-77h-197v-117q-3 -83 -92 -141h365v-77h-454v83z" />
    <glyph glyph-name="currency" unicode="&#xa4;" horiz-adv-x="374" 
d="M196 354q-52 0 -52 -62q0 -61 52 -61t52 61q0 62 -52 62zM136 185l-50 -50l-47 48l49 49q-11 25 -11 60q0 36 11 61l-48 48l47 48l49 -49q25 11 60 11t60 -11l49 49l47 -48l-48 -48q11 -25 11 -61t-11 -61l48 -48l-47 -47l-49 49q-24 -11 -60 -11t-60 11z" />
    <glyph glyph-name="yen" unicode="&#xa5;" horiz-adv-x="587" 
d="M337 183v-181h-87v181h-227v67h227v33l-8 14h-219v67h183l-203 377h103l174 -334l14 -36l14 36l174 334h102l-203 -377h183v-67h-219l-8 -14v-33h227v-67h-227z" />
    <glyph glyph-name="brokenbar" unicode="&#xa6;" horiz-adv-x="227" 
d="M70 769h87v-341h-87v341zM70 227h87v-341h-87v341z" />
    <glyph glyph-name="section" unicode="&#xa7;" horiz-adv-x="558" 
d="M429 171q13 19 14 46v32q0 87 -85 101l-179 32q-143 25 -151 170v17q0 172 255 172q100 -1 220 -25l-8 -68q-102 9 -211 11q-169 0 -169 -90v-17q5 -63 72 -84l181 -32q161 -28 162 -187v-32q-1 -25 -7 -46h-94zM129 357q-13 -19 -14 -46v-32q0 -87 85 -101l179 -32
q143 -25 151 -170v-17q0 -172 -255 -172q-100 1 -220 25l8 68q102 -9 211 -11q169 0 169 90v17q-5 63 -72 84l-181 32q-161 28 -162 187v32q1 25 7 46h94z" />
    <glyph glyph-name="dieresis" unicode="&#xa8;" horiz-adv-x="435" 
d="M57 641v23q0 42 42 42h23q42 0 42 -42v-23q0 -42 -42 -42h-23q-42 0 -42 42zM271 641v23q0 42 42 42h23q42 0 42 -42v-23q0 -42 -42 -42h-23q-42 0 -42 42z" />
    <glyph glyph-name="copyright" unicode="&#xa9;" horiz-adv-x="872" 
d="M269 33q-67 28 -117 79q-47 49 -76 118q-28 66 -28 148q0 79 28 147q29 71 76 119q48 50 117 78q69 29 151 29q85 0 153 -28q67 -28 116 -79q46 -48 76 -118q28 -66 28 -148t-28 -148q-29 -69 -76 -118q-49 -51 -116 -79q-70 -29 -153 -29q-82 0 -151 29zM420 69
q69 0 126 24q56 23 97 65q38 41 62 98q23 54 23 122t-23 122q-25 58 -62 98q-41 42 -97 65t-126 23q-68 0 -125 -24q-56 -23 -97 -64q-38 -40 -62 -99q-23 -56 -23 -121q0 -68 23 -122q24 -57 62 -98q42 -42 97 -65q57 -24 125 -24zM267 378q0 189 144 189q61 -3 123 -15
l-8 -54q-55 9 -115 10q-83 0 -83 -130q0 -131 83 -131q60 1 115 10l8 -54q-62 -12 -123 -15q-144 0 -144 190z" />
    <glyph glyph-name="ordfeminine" unicode="&#xaa;" horiz-adv-x="407" 
d="M287 537h-44q-55 0 -83 -8q-38 -10 -39 -55q0 -54 60 -54q62 2 106 63v54zM357 610v-250h-63l-6 48q-38 -47 -107 -48q-131 0 -131 114q2 97 108 118q42 9 85 9h44v9q0 72 -74 72q-54 -3 -112 -25l-20 55q52 34 132 34q144 0 144 -136z" />
    <glyph glyph-name="guillemotleft" unicode="&#xab;" horiz-adv-x="439" 
d="M25 278l154 205l53 -38l-125 -167l125 -167l-53 -38zM207 278l154 205l53 -38l-125 -167l125 -167l-53 -38z" />
    <glyph glyph-name="logicalnot" unicode="&#xac;" horiz-adv-x="554" 
d="M502 396v-285h-87v208h-363v77h450z" />
    <glyph glyph-name="registered" unicode="&#xae;" horiz-adv-x="875" 
d="M286 33q-67 28 -117 79q-47 49 -76 118q-28 66 -28 148q0 79 28 147q29 71 76 119q48 50 117 78q69 29 151 29q85 0 153 -28q67 -28 116 -79q46 -48 76 -118q28 -66 28 -148t-28 -148q-29 -69 -76 -118q-49 -51 -116 -79q-70 -29 -153 -29q-82 0 -151 29zM437 69
q69 0 126 24q56 23 97 65q38 41 62 98q23 54 23 122t-23 122q-25 58 -62 98q-41 42 -97 65t-126 23q-68 0 -125 -24q-56 -23 -97 -64q-38 -40 -62 -99q-23 -56 -23 -121q0 -68 23 -122q24 -57 62 -98q42 -42 97 -65q57 -24 125 -24zM438 396q70 0 70 54q0 53 -70 53h-59
v-107h59zM314 193v373h124q135 0 135 -116q0 -87 -63 -109l81 -148h-71l-77 141h-64v-141h-65z" />
    <glyph glyph-name="macron" unicode="&#xaf;" horiz-adv-x="379" 
d="M347 674v-67h-315v67h315z" />
    <glyph glyph-name="degree" unicode="&#xb0;" horiz-adv-x="403" 
d="M46 654q14 31 36 53q21 21 54 35q31 14 65 14q35 0 67 -14q33 -15 53 -35q22 -22 36 -53t14 -67q0 -34 -14 -65q-13 -30 -36 -53q-22 -22 -53 -36q-32 -14 -67 -14q-34 0 -65 14q-32 14 -54 36q-23 23 -36 53q-14 31 -14 65q0 36 14 67zM127 516q29 -32 74 -32
q47 0 76 32q28 31 28 71q0 41 -28 72q-29 32 -76 32q-45 0 -74 -32q-28 -31 -28 -72q0 -40 28 -71z" />
    <glyph glyph-name="plusminus" unicode="&#xb1;" horiz-adv-x="529" 
d="M246 398v199h67v-199h200v-67h-200v-200h-67v200h-199v67h199zM487 52v-77h-437v77h437z" />
    <glyph glyph-name="uni00B2" unicode="&#xb2;" horiz-adv-x="325" 
d="M201 550q39 31 39 67v10q0 59 -91 59q-40 0 -112 -14l-8 55q66 18 120 19q156 0 156 -113v-21q-1 -61 -58 -104l-121 -91q-39 -31 -39 -70v-1h227v-60h-296v40q1 90 62 134z" />
    <glyph glyph-name="uni00B3" unicode="&#xb3;" horiz-adv-x="337" 
d="M95 493v58h90q57 8 57 69q0 31 -17 46q-18 21 -72 21q-52 -1 -110 -4l-3 53q62 10 113 11q85 0 119 -32q33 -30 33 -95q0 -81 -47 -96q60 -12 60 -116q0 -61 -33 -90q-36 -32 -132 -32q-59 1 -125 13l9 52q57 -4 116 -5q60 0 85 21q16 15 16 41q0 82 -69 85h-90z" />
    <glyph glyph-name="acute" unicode="&#xb4;" horiz-adv-x="283" 
d="M244 714l-156 -111l-42 52l145 125z" />
    <glyph glyph-name="mu" unicode="&#xb5;" horiz-adv-x="598" 
d="M85 535h87v-317q0 -151 98 -151q106 0 156 112v361h87v-540h-77l-10 68q-50 -77 -156 -78q-58 0 -98 43v-233h-87v735z" />
    <glyph glyph-name="paragraph" unicode="&#xb6;" horiz-adv-x="598" 
d="M388 683v-679h-89v329h-17q-49 0 -90 12q-40 10 -73 35q-31 23 -49 63q-18 38 -18 90q0 62 19 104q18 43 58 70q39 26 99 39q48 9 129 11h189v-74h-158z" />
    <glyph glyph-name="periodcentered" unicode="&#xb7;" horiz-adv-x="191" 
d="M41 267v24q0 42 42 42h25q42 0 42 -42v-24q0 -42 -42 -42h-25q-42 0 -42 42z" />
    <glyph glyph-name="periodcentered" unicode="&#x2219;" horiz-adv-x="191" 
d="M41 267v24q0 42 42 42h25q42 0 42 -42v-24q0 -42 -42 -42h-25q-42 0 -42 42z" />
    <glyph glyph-name="cedilla" unicode="&#xb8;" horiz-adv-x="328" 
d="M166 -12h20q95 0 95 -95t-95 -95l-91 12l8 42l84 -7q37 0 37 48t-38 48h-45q-46 0 -31 41l14 41h56z" />
    <glyph glyph-name="uni00B9" unicode="&#xb9;" horiz-adv-x="259" 
d="M221 286h-63v394l-131 -34v60l147 38h47v-458z" />
    <glyph glyph-name="ordmasculine" unicode="&#xba;" horiz-adv-x="337" 
d="M326 472q0 -187 -141 -187h-20q-147 0 -147 187v87q0 187 147 187h20q141 0 141 -187v-87zM165 683q-84 -1 -84 -126v-85q0 -124 84 -124h20q78 0 78 125v84q0 126 -78 126h-20z" />
    <glyph glyph-name="guillemotright" unicode="&#xbb;" horiz-adv-x="439" 
d="M232 278l-154 205l-53 -38l125 -167l-125 -167l53 -38zM414 278l-154 205l-53 -38l125 -167l-125 -167l53 -38z" />
    <glyph glyph-name="onequarter" unicode="&#xbc;" horiz-adv-x="908" 
d="M228 286h-63v394l-131 -34v60l147 38h47v-458zM660 741l53 -31l-479 -709l-53 31zM859 317v-174h46v-57h-46v-94h-63v94h-162q-91 0 -47 79l126 289h70l-130 -297q-8 -14 8 -14h135v174h63z" />
    <glyph glyph-name="onehalf" unicode="&#xbd;" horiz-adv-x="961" 
d="M251 286h-63v394l-131 -34v60l147 38h47v-458zM688 741l53 -31l-479 -709l-53 31zM816 252q39 31 39 67v10q0 59 -91 59q-40 0 -112 -14l-8 55q66 18 120 19q156 0 156 -113v-21q-1 -61 -58 -104l-121 -91q-39 -31 -39 -70v-1h227v-60h-296v40q1 90 62 134z" />
    <glyph glyph-name="threequarters" unicode="&#xbe;" horiz-adv-x="908" 
d="M82 494v58h90q57 8 57 69q0 31 -17 46q-18 21 -72 21q-52 -1 -110 -4l-3 53q62 10 113 11q85 0 119 -32q33 -30 33 -95q0 -81 -47 -96q60 -12 60 -116q0 -61 -33 -90q-36 -32 -132 -32q-59 1 -125 13l9 52q57 -4 116 -5q60 0 85 21q16 15 16 41q0 82 -69 85h-90zM697 741
l53 -31l-479 -709l-53 31zM880 317v-174h46v-57h-46v-94h-63v94h-162q-91 0 -47 79l126 289h70l-130 -297q-8 -14 8 -14h135v174h63z" />
    <glyph glyph-name="questiondown" unicode="&#xbf;" horiz-adv-x="474" 
d="M510 -177q-105 -23 -218 -23q-215 1 -215 188q3 94 107 189q88 82 98 174h87q-8 -115 -101 -215q-100 -84 -100 -148q0 -99 125 -103q111 4 206 15zM380 499v-24q0 -42 -42 -42h-25q-42 0 -42 42v24q0 42 42 42h25q42 0 42 -42z" />
    <glyph glyph-name="Agrave" unicode="&#xc0;" horiz-adv-x="644" 
d="M164 208l-68 -206h-89l241 710q11 29 31 29h56q22 0 33 -29l241 -710h-89l-68 206h-288zM427 285l-119 359l-119 -359h238zM229 985l144 -129l-42 -52l-156 115z" />
    <glyph glyph-name="Aacute" unicode="&#xc1;" horiz-adv-x="644" 
d="M164 208l-68 -206h-89l241 710q11 29 31 29h56q22 0 33 -29l241 -710h-89l-68 206h-288zM427 285l-119 359l-119 -359h238zM432 916l-156 -111l-42 52l145 125z" />
    <glyph glyph-name="Acircumflex" unicode="&#xc2;" horiz-adv-x="644" 
d="M164 208l-68 -206h-89l241 710q11 29 31 29h56q22 0 33 -29l241 -710h-89l-68 206h-288zM427 285l-119 359l-119 -359h238zM334 968l129 -141h-80l-75 81l-74 -81h-80l129 141h51z" />
    <glyph glyph-name="Atilde" unicode="&#xc3;" horiz-adv-x="644" 
d="M164 208l-68 -206h-89l241 710q11 29 31 29h56q22 0 33 -29l241 -710h-89l-68 206h-288zM427 285l-119 359l-119 -359h238zM497 967q0 -149 -102 -149q-66 0 -111 68q-22 28 -47 28q-40 0 -40 -85h-61q0 146 101 146q66 0 112 -68q22 -28 46 -28q40 0 40 88h62z" />
    <glyph glyph-name="Adieresis" unicode="&#xc4;" horiz-adv-x="644" 
d="M164 208l-68 -206h-89l241 710q11 29 31 29h56q22 0 33 -29l241 -710h-89l-68 206h-288zM427 285l-119 359l-119 -359h238zM148 843v23q0 42 42 42h23q42 0 42 -42v-23q0 -42 -42 -42h-23q-42 0 -42 42zM362 843v23q0 42 42 42h23q42 0 42 -42v-23q0 -42 -42 -42h-23
q-42 0 -42 42z" />
    <glyph glyph-name="Aring" unicode="&#xc5;" horiz-adv-x="644" 
d="M164 208l-68 -206h-89l241 710q11 29 31 29h56q22 0 33 -29l241 -710h-89l-68 206h-288zM427 285l-119 359l-119 -359h238zM308 969q100 0 100 -99q0 -98 -100 -98q-99 0 -99 98q0 99 99 99zM361 870q0 52 -53 52q-52 0 -52 -52q0 -51 52 -51q53 0 53 51z" />
    <glyph glyph-name="AE" unicode="&#xc6;" horiz-adv-x="856" 
d="M411 285v299q1 40 11 70h-17l-179 -369h185zM577 741q119 0 237 -10v-72h-241q-75 0 -75 -75v-173h254v-82h-254v-170q0 -75 75 -75h241v-72q-120 -10 -241 -10q-160 0 -162 157v49h-222l-100 -206h-89l341 710q11 29 31 29h205z" />
    <glyph glyph-name="Ccedilla" unicode="&#xc7;" horiz-adv-x="583" 
d="M47 372q0 370 281 370q120 -5 224 -29l-16 -73q-90 18 -208 20q-194 0 -194 -288t194 -288q118 2 208 20l16 -73q-104 -24 -224 -29q-281 0 -281 370zM277 -12h20q95 0 95 -95t-95 -95l-91 12l8 42l84 -7q37 0 37 48t-38 48h-45q-46 0 -31 41l14 41h56z" />
    <glyph glyph-name="Egrave" unicode="&#xc8;" horiz-adv-x="566" 
d="M72 159v425q2 157 162 157q141 0 301 -10v-72h-301q-75 0 -75 -75v-173h314v-82h-314v-170q0 -75 75 -75h301v-72q-160 -10 -301 -10q-160 0 -162 157zM224 985l144 -129l-42 -52l-156 115z" />
    <glyph glyph-name="Eacute" unicode="&#xc9;" horiz-adv-x="566" 
d="M72 159v425q2 157 162 157q141 0 301 -10v-72h-301q-75 0 -75 -75v-173h314v-82h-314v-170q0 -75 75 -75h301v-72q-160 -10 -301 -10q-160 0 -162 157zM437 916l-156 -111l-42 52l145 125z" />
    <glyph glyph-name="Ecircumflex" unicode="&#xca;" horiz-adv-x="566" 
d="M72 159v425q2 157 162 157q141 0 301 -10v-72h-301q-75 0 -75 -75v-173h314v-82h-314v-170q0 -75 75 -75h301v-72q-160 -10 -301 -10q-160 0 -162 157zM329 968l129 -141h-80l-75 81l-74 -81h-80l129 141h51z" />
    <glyph glyph-name="Edieresis" unicode="&#xcb;" horiz-adv-x="566" 
d="M72 159v425q2 157 162 157q141 0 301 -10v-72h-301q-75 0 -75 -75v-173h314v-82h-314v-170q0 -75 75 -75h301v-72q-160 -10 -301 -10q-160 0 -162 157zM143 843v23q0 42 42 42h23q42 0 42 -42v-23q0 -42 -42 -42h-23q-42 0 -42 42zM357 843v23q0 42 42 42h23q42 0 42 -42
v-23q0 -42 -42 -42h-23q-42 0 -42 42z" />
    <glyph glyph-name="Igrave" unicode="&#xcc;" horiz-adv-x="280" 
d="M180 741v-739h-87v739h87zM57 985l144 -129l-42 -52l-156 115z" />
    <glyph glyph-name="Iacute" unicode="&#xcd;" horiz-adv-x="260" 
d="M163 741v-739h-87v739h87zM244 916l-156 -111l-42 52l145 125z" />
    <glyph glyph-name="Icircumflex" unicode="&#xce;" horiz-adv-x="290" 
d="M194 741v-739h-87v739h87zM176 968l129 -141h-80l-75 81l-74 -81h-80l129 141h51z" />
    <glyph glyph-name="Idieresis" unicode="&#xcf;" horiz-adv-x="292" 
d="M195 741v-739h-87v739h87zM-9 843v23q0 42 42 42h23q42 0 42 -42v-23q0 -42 -42 -42h-23q-42 0 -42 42zM205 843v23q0 42 42 42h23q42 0 42 -42v-23q0 -42 -42 -42h-23q-42 0 -42 42z" />
    <glyph glyph-name="Eth" unicode="&#xd0;" horiz-adv-x="664" 
d="M169 339v-257h139q222 0 222 290q0 291 -222 291h-139v-257h193v-67h-193zM82 406v339h226q309 0 309 -373q0 -372 -309 -372h-226v339h-81v67h81z" />
    <glyph glyph-name="Ntilde" unicode="&#xd1;" horiz-adv-x="713" 
d="M169 4v624l311 -592q15 -32 53 -32h69q15 0 15 22v715h-87v-619l-313 596q-11 25 -43 25h-77q-15 0 -15 -24v-715h87zM538 967q0 -149 -102 -149q-66 0 -111 68q-22 28 -47 28q-40 0 -40 -85h-61q0 146 101 146q66 0 112 -68q22 -28 46 -28q40 0 40 88h62z" />
    <glyph glyph-name="Ograve" unicode="&#xd2;" horiz-adv-x="683" 
d="M358 0h-57q-254 0 -254 335v73q0 334 254 334h57q254 0 254 -334v-73q0 -335 -254 -335zM134 408v-73q0 -258 167 -258h57q167 0 167 258v73q0 257 -167 257h-57q-167 0 -167 -257zM250 985l144 -129l-42 -52l-156 115z" />
    <glyph glyph-name="Oacute" unicode="&#xd3;" horiz-adv-x="683" 
d="M358 0h-57q-254 0 -254 335v73q0 334 254 334h57q254 0 254 -334v-73q0 -335 -254 -335zM134 408v-73q0 -258 167 -258h57q167 0 167 258v73q0 257 -167 257h-57q-167 0 -167 -257zM454 916l-156 -111l-42 52l145 125z" />
    <glyph glyph-name="Ocircumflex" unicode="&#xd4;" horiz-adv-x="683" 
d="M358 0h-57q-254 0 -254 335v73q0 334 254 334h57q254 0 254 -334v-73q0 -335 -254 -335zM134 408v-73q0 -258 167 -258h57q167 0 167 258v73q0 257 -167 257h-57q-167 0 -167 -257zM355 968l129 -141h-80l-75 81l-74 -81h-80l129 141h51z" />
    <glyph glyph-name="Otilde" unicode="&#xd5;" horiz-adv-x="683" 
d="M358 0h-57q-254 0 -254 335v73q0 334 254 334h57q254 0 254 -334v-73q0 -335 -254 -335zM134 408v-73q0 -258 167 -258h57q167 0 167 258v73q0 257 -167 257h-57q-167 0 -167 -257zM518 967q0 -149 -102 -149q-66 0 -111 68q-22 28 -47 28q-40 0 -40 -85h-61
q0 146 101 146q66 0 112 -68q22 -28 46 -28q40 0 40 88h62z" />
    <glyph glyph-name="Odieresis" unicode="&#xd6;" horiz-adv-x="683" 
d="M358 0h-57q-254 0 -254 335v73q0 334 254 334h57q254 0 254 -334v-73q0 -335 -254 -335zM134 408v-73q0 -258 167 -258h57q167 0 167 258v73q0 257 -167 257h-57q-167 0 -167 -257zM169 843v23q0 42 42 42h23q42 0 42 -42v-23q0 -42 -42 -42h-23q-42 0 -42 42zM383 843
v23q0 42 42 42h23q42 0 42 -42v-23q0 -42 -42 -42h-23q-42 0 -42 42z" />
    <glyph glyph-name="multiply" unicode="&#xd7;" horiz-adv-x="454" 
d="M427 194l-49 -48l-151 151l-151 -151l-48 48l151 151l-151 151l48 48l151 -151l151 151l49 -48l-151 -151z" />
    <glyph glyph-name="Oslash" unicode="&#xd8;" horiz-adv-x="669" 
d="M121 74q-74 84 -74 265v69q0 334 254 334h57q75 0 128 -29l31 55l58 -33l-37 -64q74 -83 74 -263v-69q0 -335 -254 -335h-57q-74 0 -127 29l-32 -56l-58 33zM491 588l-276 -483q35 -24 86 -24h57q167 0 167 258v69q0 116 -34 180zM169 158l275 483q-35 24 -86 24h-57
q-167 0 -167 -257v-69q0 -117 35 -181z" />
    <glyph glyph-name="Ugrave" unicode="&#xd9;" horiz-adv-x="667" 
d="M163 742v-490q0 -175 162 -175h20q167 0 167 175v490h87v-490q0 -252 -254 -252h-20q-249 0 -249 252v490h87zM258 985l144 -129l-42 -52l-156 115z" />
    <glyph glyph-name="Uacute" unicode="&#xda;" horiz-adv-x="667" 
d="M163 742v-490q0 -175 162 -175h20q167 0 167 175v490h87v-490q0 -252 -254 -252h-20q-249 0 -249 252v490h87zM462 916l-156 -111l-42 52l145 125z" />
    <glyph glyph-name="Ucircumflex" unicode="&#xdb;" horiz-adv-x="667" 
d="M163 742v-490q0 -175 162 -175h20q167 0 167 175v490h87v-490q0 -252 -254 -252h-20q-249 0 -249 252v490h87zM363 968l129 -141h-80l-75 81l-74 -81h-80l129 141h51z" />
    <glyph glyph-name="Udieresis" unicode="&#xdc;" horiz-adv-x="667" 
d="M163 742v-490q0 -175 162 -175h20q167 0 167 175v490h87v-490q0 -252 -254 -252h-20q-249 0 -249 252v490h87zM177 843v23q0 42 42 42h23q42 0 42 -42v-23q0 -42 -42 -42h-23q-42 0 -42 42zM391 843v23q0 42 42 42h23q42 0 42 -42v-23q0 -42 -42 -42h-23q-42 0 -42 42z
" />
    <glyph glyph-name="Yacute" unicode="&#xdd;" horiz-adv-x="577" 
d="M108 741l174 -334l14 -36l14 36l174 334h102l-247 -458v-281h-87v281l-247 458h103zM414 916l-156 -111l-42 52l145 125z" />
    <glyph glyph-name="Thorn" unicode="&#xde;" horiz-adv-x="624" 
d="M163 602h159q259 0 259 -230q0 -193 -179 -225l-28 -4q-24 -3 -52 -3h-159v-140h-87v741h87v-139zM163 217h159q172 0 172 155q0 153 -172 153h-159v-308z" />
    <glyph glyph-name="germandbls" unicode="&#xdf;" horiz-adv-x="590" 
d="M260 685q-100 0 -100 -111v-570h-87v570q0 188 187 188q174 0 174 -141q-1 -57 -43 -105t-42 -101q5 -44 38 -68l109 -91q63 -54 65 -111v-22q0 -110 -135 -120q-89 0 -194 32l23 71q82 -26 171 -26q48 13 48 43v22q-1 40 -33 62l-119 97q-53 42 -60 111q3 65 44 112.5
t41 94.5q0 63 -87 63z" />
    <glyph glyph-name="agrave" unicode="&#xe0;" horiz-adv-x="511" 
d="M371 255h-69q-80 0 -121 -12q-59 -15 -61 -85q0 -84 93 -84q92 3 158 94v87zM457 352v-350h-76l-10 79q-63 -77 -158 -79q-180 0 -180 156q3 132 149 162q59 12 120 12h69v20q0 110 -112 110q-79 -4 -156 -34l-24 67q67 44 180 44q198 0 198 -187zM166 783l144 -129
l-42 -52l-156 115z" />
    <glyph glyph-name="aacute" unicode="&#xe1;" horiz-adv-x="521" 
d="M372 255h-69q-80 0 -121 -12q-59 -15 -61 -85q0 -84 93 -84q92 3 158 94v87zM458 352v-350h-76l-10 79q-63 -77 -158 -79q-180 0 -180 156q3 132 149 162q59 12 120 12h69v20q0 110 -112 110q-79 -4 -156 -34l-24 67q67 44 180 44q198 0 198 -187zM379 714l-156 -111
l-42 52l145 125z" />
    <glyph glyph-name="acircumflex" unicode="&#xe2;" horiz-adv-x="520" 
d="M371 255h-69q-80 0 -121 -12q-59 -15 -61 -85q0 -84 93 -84q92 3 158 94v87zM457 352v-350h-76l-10 79q-63 -77 -158 -79q-180 0 -180 156q3 132 149 162q59 12 120 12h69v20q0 110 -112 110q-79 -4 -156 -34l-24 67q67 44 180 44q198 0 198 -187zM271 766l129 -141h-80
l-75 81l-74 -81h-80l129 141h51z" />
    <glyph glyph-name="atilde" unicode="&#xe3;" horiz-adv-x="526" 
d="M377 255h-69q-80 0 -121 -12q-59 -15 -61 -85q0 -84 93 -84q92 3 158 94v87zM463 352v-350h-76l-10 79q-63 -77 -158 -79q-180 0 -180 156q3 132 149 162q59 12 120 12h69v20q0 110 -112 110q-79 -4 -156 -34l-24 67q67 44 180 44q198 0 198 -187zM440 765
q0 -149 -102 -149q-66 0 -111 68q-22 28 -47 28q-40 0 -40 -85h-61q0 146 101 146q66 0 112 -68q22 -28 46 -28q40 0 40 88h62z" />
    <glyph glyph-name="adieresis" unicode="&#xe4;" horiz-adv-x="525" 
d="M376 255h-69q-80 0 -121 -12q-59 -15 -61 -85q0 -84 93 -84q92 3 158 94v87zM462 352v-350h-76l-10 79q-63 -77 -158 -79q-180 0 -180 156q3 132 149 162q59 12 120 12h69v20q0 110 -112 110q-79 -4 -156 -34l-24 67q67 44 180 44q198 0 198 -187zM90 641v23q0 42 42 42
h23q42 0 42 -42v-23q0 -42 -42 -42h-23q-42 0 -42 42zM304 641v23q0 42 42 42h23q42 0 42 -42v-23q0 -42 -42 -42h-23q-42 0 -42 42z" />
    <glyph glyph-name="aring" unicode="&#xe5;" horiz-adv-x="511" 
d="M371 255h-69q-80 0 -121 -12q-59 -15 -61 -85q0 -84 93 -84q92 3 158 94v87zM457 352v-350h-76l-10 79q-63 -77 -158 -79q-180 0 -180 156q3 132 149 162q59 12 120 12h69v20q0 110 -112 110q-79 -4 -156 -34l-24 67q67 44 180 44q198 0 198 -187zM245 767q100 0 100 -99
q0 -98 -100 -98q-99 0 -99 98q0 99 99 99zM298 668q0 52 -53 52q-52 0 -52 -52q0 -51 52 -51q53 0 53 51z" />
    <glyph glyph-name="ae" unicode="&#xe6;" horiz-adv-x="863" 
d="M366 255h-69q-80 0 -121 -12q-59 -15 -61 -85q0 -84 93 -84q92 3 158 94v87zM452 302h235q32 0 32 31q0 134 -113 136h-27q-125 0 -127 -167zM409 121q-79 -117 -201 -119q-180 0 -180 156q3 132 149 162q59 12 120 12h69v20q0 110 -112 110q-79 -4 -156 -34l-24 67
q67 44 180 44q115 0 163 -93q54 100 162 100h27q195 0 200 -213q0 -105 -119 -105h-230q22 -147 152 -147q92 0 171 20l17 -65q-93 -37 -191 -37q-136 0 -197 122z" />
    <glyph glyph-name="ccedilla" unicode="&#xe7;" horiz-adv-x="507" 
d="M184 11q-137 46 -137 258q0 271 223 271q101 -2 199 -29l-13 -67q-92 14 -183 14q-139 0 -139 -189t139 -189q91 0 183 14l13 -67q-98 -27 -199 -29q-18 0 -35 2l-5 -12h20q95 0 95 -95t-95 -95l-91 12l8 42l84 -7q37 0 37 48t-38 48h-45q-46 0 -31 41z" />
    <glyph glyph-name="egrave" unicode="&#xe8;" horiz-adv-x="539" 
d="M121 302h235q32 0 32 31q0 134 -113 136h-27q-125 0 -127 -167zM126 228q22 -147 152 -147q92 0 171 20l17 -65q-93 -37 -191 -37q-241 0 -241 297q11 250 214 250h27q195 0 200 -213q0 -105 -119 -105h-230zM180 783l144 -129l-42 -52l-156 115z" />
    <glyph glyph-name="eacute" unicode="&#xe9;" horiz-adv-x="539" 
d="M121 302h235q32 0 32 31q0 134 -113 136h-27q-125 0 -127 -167zM126 228q22 -147 152 -147q92 0 171 20l17 -65q-93 -37 -191 -37q-241 0 -241 297q11 250 214 250h27q195 0 200 -213q0 -105 -119 -105h-230zM393 714l-156 -111l-42 52l145 125z" />
    <glyph glyph-name="ecircumflex" unicode="&#xea;" horiz-adv-x="539" 
d="M121 302h235q32 0 32 31q0 134 -113 136h-27q-125 0 -127 -167zM126 228q22 -147 152 -147q92 0 171 20l17 -65q-93 -37 -191 -37q-241 0 -241 297q11 250 214 250h27q195 0 200 -213q0 -105 -119 -105h-230zM285 766l129 -141h-80l-75 81l-74 -81h-80l129 141h51z" />
    <glyph glyph-name="edieresis" unicode="&#xeb;" horiz-adv-x="539" 
d="M121 302h235q32 0 32 31q0 134 -113 136h-27q-125 0 -127 -167zM126 228q22 -147 152 -147q92 0 171 20l17 -65q-93 -37 -191 -37q-241 0 -241 297q11 250 214 250h27q195 0 200 -213q0 -105 -119 -105h-230zM99 641v23q0 42 42 42h23q42 0 42 -42v-23q0 -42 -42 -42h-23
q-42 0 -42 42zM313 641v23q0 42 42 42h23q42 0 42 -42v-23q0 -42 -42 -42h-23q-42 0 -42 42z" />
    <glyph glyph-name="igrave" unicode="&#xec;" horiz-adv-x="272" 
d="M185 539v-539h-87v539h87zM62 783l144 -129l-42 -52l-156 115z" />
    <glyph glyph-name="iacute" unicode="&#xed;" horiz-adv-x="299" 
d="M184 539v-539h-87v539h87zM274 714l-156 -111l-42 52l145 125z" />
    <glyph glyph-name="icircumflex" unicode="&#xee;" horiz-adv-x="284" 
d="M188 539v-539h-87v539h87zM170 766l129 -141h-80l-75 81l-74 -81h-80l129 141h51z" />
    <glyph glyph-name="idieresis" unicode="&#xef;" horiz-adv-x="223" 
d="M160 539v-539h-87v539h87zM-42 641v23q0 42 42 42h23q42 0 42 -42v-23q0 -42 -42 -42h-23q-42 0 -42 42zM172 641v23q0 42 42 42h23q42 0 42 -42v-23q0 -42 -42 -42h-23q-42 0 -42 42z" />
    <glyph glyph-name="eth" unicode="&#xf0;" horiz-adv-x="579" 
d="M433 327q-47 90 -154 90q-134 0 -134 -170q0 -180 134 -180q153 0 154 187v73zM299 640q-76 34 -196 34v77q157 0 255 -51l63 65l48 -46l-55 -56q106 -90 106 -270v-139q-1 -264 -241 -264q-220 0 -220 257q0 245 220 245q107 0 154 -79q0 125 -76 191l-55 -57l-48 46z
" />
    <glyph glyph-name="ntilde" unicode="&#xf1;" horiz-adv-x="560" 
d="M146 539l10 -68q50 77 156 78q185 0 185 -228v-321h-87v321q0 151 -98 151q-106 0 -156 -112v-360h-87v539h77zM464 765q0 -149 -102 -149q-66 0 -111 68q-22 28 -47 28q-40 0 -40 -85h-61q0 146 101 146q66 0 112 -68q22 -28 46 -28q40 0 40 88h62z" />
    <glyph glyph-name="ograve" unicode="&#xf2;" horiz-adv-x="574" 
d="M511 255q0 -255 -230 -255h-20q-227 0 -227 255v27q0 257 227 257h20q230 0 230 -257v-27zM261 462q-140 0 -140 -180v-27q0 -178 140 -178h20q143 0 143 178v27q0 180 -143 180h-20zM193 783l144 -129l-42 -52l-156 115z" />
    <glyph glyph-name="oacute" unicode="&#xf3;" horiz-adv-x="587" 
d="M524 255q0 -255 -230 -255h-20q-227 0 -227 255v27q0 257 227 257h20q230 0 230 -257v-27zM274 462q-140 0 -140 -180v-27q0 -178 140 -178h20q143 0 143 178v27q0 180 -143 180h-20zM419 714l-156 -111l-42 52l145 125z" />
    <glyph glyph-name="ocircumflex" unicode="&#xf4;" horiz-adv-x="574" 
d="M511 255q0 -255 -230 -255h-20q-227 0 -227 255v27q0 257 227 257h20q230 0 230 -257v-27zM261 462q-140 0 -140 -180v-27q0 -178 140 -178h20q143 0 143 178v27q0 180 -143 180h-20zM298 766l129 -141h-80l-75 81l-74 -81h-80l129 141h51z" />
    <glyph glyph-name="otilde" unicode="&#xf5;" horiz-adv-x="585" 
d="M522 255q0 -255 -230 -255h-20q-227 0 -227 255v27q0 257 227 257h20q230 0 230 -257v-27zM272 462q-140 0 -140 -180v-27q0 -178 140 -178h20q143 0 143 178v27q0 180 -143 180h-20zM464 765q0 -149 -102 -149q-66 0 -111 68q-22 28 -47 28q-40 0 -40 -85h-61
q0 146 101 146q66 0 112 -68q22 -28 46 -28q40 0 40 88h62z" />
    <glyph glyph-name="odieresis" unicode="&#xf6;" horiz-adv-x="585" 
d="M522 255q0 -255 -230 -255h-20q-227 0 -227 255v27q0 257 227 257h20q230 0 230 -257v-27zM272 462q-140 0 -140 -180v-27q0 -178 140 -178h20q143 0 143 178v27q0 180 -143 180h-20zM123 641v23q0 42 42 42h23q42 0 42 -42v-23q0 -42 -42 -42h-23q-42 0 -42 42zM337 641
v23q0 42 42 42h23q42 0 42 -42v-23q0 -42 -42 -42h-23q-42 0 -42 42z" />
    <glyph glyph-name="divide" unicode="&#xf7;" horiz-adv-x="561" 
d="M509 403v-77h-457v77h457zM229 545v23q0 42 32 42h43q32 0 32 -42v-23q0 -42 -32 -42h-43q-32 0 -32 42zM229 156v23q0 42 32 42h43q32 0 32 -42v-23q0 -42 -32 -42h-43q-32 0 -32 42z" />
    <glyph glyph-name="oslash" unicode="&#xf8;" horiz-adv-x="587" 
d="M325 460q-14 2 -31 2h-20q-140 0 -140 -180v-27q0 -96 41 -141zM387 432l-153 -351q19 -4 40 -4h20q143 0 143 178v27q0 106 -50 150zM357 533l45 103l62 -27l-43 -98q103 -57 103 -229v-27q0 -255 -230 -255h-20q-39 0 -72 8l-33 -77l-62 27l33 75q-93 59 -93 222v27
q0 257 227 257h20q34 0 63 -6z" />
    <glyph glyph-name="ugrave" unicode="&#xf9;" horiz-adv-x="551" 
d="M411 0l-10 72q-50 -77 -156 -78q-185 0 -185 228v317h87v-317q0 -151 98 -151q106 0 156 112v356h87v-539h-77zM195 783l144 -129l-42 -52l-156 115z" />
    <glyph glyph-name="uacute" unicode="&#xfa;" horiz-adv-x="551" 
d="M411 0l-10 72q-50 -77 -156 -78q-185 0 -185 228v317h87v-317q0 -151 98 -151q106 0 156 112v356h87v-539h-77zM407 714l-156 -111l-42 52l145 125z" />
    <glyph glyph-name="ucircumflex" unicode="&#xfb;" horiz-adv-x="551" 
d="M411 0l-10 72q-50 -77 -156 -78q-185 0 -185 228v317h87v-317q0 -151 98 -151q106 0 156 112v356h87v-539h-77zM300 766l129 -141h-80l-75 81l-74 -81h-80l129 141h51z" />
    <glyph glyph-name="udieresis" unicode="&#xfc;" horiz-adv-x="551" 
d="M411 0l-10 72q-50 -77 -156 -78q-185 0 -185 228v317h87v-317q0 -151 98 -151q106 0 156 112v356h87v-539h-77zM114 641v23q0 42 42 42h23q42 0 42 -42v-23q0 -42 -42 -42h-23q-42 0 -42 42zM328 641v23q0 42 42 42h23q42 0 42 -42v-23q0 -42 -42 -42h-23q-42 0 -42 42z
" />
    <glyph glyph-name="yacute" unicode="&#xfd;" horiz-adv-x="534" 
d="M223 2q-31 0 -52 56l-160 481h93l139 -430q6 -24 8 -24l147 454h93l-180 -537q-57 -139 -176 -229l-44 50q92 99 132 179zM384 714l-156 -111l-42 52l145 125z" />
    <glyph glyph-name="thorn" unicode="&#xfe;" horiz-adv-x="564" 
d="M155 150q77 -81 154 -81q123 0 123 194q0 204 -123 204q-77 0 -154 -99v-218zM155 -209h-87v959h88v-290q76 89 153 89q210 0 210 -281q0 -282 -210 -282q-77 0 -154 70v-265z" />
    <glyph glyph-name="ydieresis" unicode="&#xff;" horiz-adv-x="530" 
d="M219 2q-31 0 -52 56l-160 481h93l139 -430q6 -24 8 -24l147 454h93l-180 -537q-57 -139 -176 -229l-44 50q92 99 132 179zM87 641v23q0 42 42 42h23q42 0 42 -42v-23q0 -42 -42 -42h-23q-42 0 -42 42zM301 641v23q0 42 42 42h23q42 0 42 -42v-23q0 -42 -42 -42h-23
q-42 0 -42 42z" />
    <glyph glyph-name="Amacron" unicode="&#x100;" horiz-adv-x="644" 
d="M164 208l-68 -206h-89l241 710q11 29 31 29h56q22 0 33 -29l241 -710h-89l-68 206h-288zM427 285l-119 359l-119 -359h238zM466 876v-67h-315v67h315z" />
    <glyph glyph-name="amacron" unicode="&#x101;" horiz-adv-x="526" 
d="M377 255h-69q-80 0 -121 -12q-59 -15 -61 -85q0 -84 93 -84q92 3 158 94v87zM463 352v-350h-76l-10 79q-63 -77 -158 -79q-180 0 -180 156q3 132 149 162q59 12 120 12h69v20q0 110 -112 110q-79 -4 -156 -34l-24 67q67 44 180 44q198 0 198 -187zM409 674v-67h-315v67
h315z" />
    <glyph glyph-name="Abreve" unicode="&#x102;" horiz-adv-x="644" 
d="M164 208l-68 -206h-89l241 710q11 29 31 29h56q22 0 33 -29l241 -710h-89l-68 206h-288zM427 285l-119 359l-119 -359h238zM166 915h57q0 -70 62 -70q61 0 61 70h57q0 -133 -118 -133q-119 0 -119 133z" />
    <glyph glyph-name="abreve" unicode="&#x103;" horiz-adv-x="511" 
d="M371 255h-69q-80 0 -121 -12q-59 -15 -61 -85q0 -84 93 -84q92 3 158 94v87zM457 352v-350h-76l-10 79q-63 -77 -158 -79q-180 0 -180 156q3 132 149 162q59 12 120 12h69v20q0 110 -112 110q-79 -4 -156 -34l-24 67q67 44 180 44q198 0 198 -187zM124 713h57
q0 -70 62 -70q61 0 61 70h57q0 -133 -118 -133q-119 0 -119 133z" />
    <glyph glyph-name="Aogonek" unicode="&#x104;" horiz-adv-x="651" 
d="M427 285l-119 359l-119 -359h238zM509 36l-57 172h-288l-68 -206h-89l241 710q11 29 31 29h56q22 0 33 -29l241 -710h-30q-91 -29 -91 -90q0 -34 32 -34q40 1 90 14l17 -65q-64 -16 -107 -16q-99 0 -99 101q3 77 88 124z" />
    <glyph glyph-name="aogonek" unicode="&#x105;" horiz-adv-x="518" 
d="M371 255h-69q-80 0 -121 -12q-59 -15 -61 -85q0 -84 93 -84q92 3 158 94v87zM380 13l-9 68q-63 -77 -158 -79q-180 0 -180 156q3 132 149 162q59 12 120 12h69v20q0 110 -112 110q-79 -4 -156 -34l-24 67q67 44 180 44q198 0 198 -187v-320l14 -39q-91 -29 -91 -90
q0 -34 32 -34q40 1 90 14l17 -65q-64 -16 -107 -16q-99 0 -99 101q3 66 67 110z" />
    <glyph glyph-name="Cacute" unicode="&#x106;" horiz-adv-x="583" 
d="M47 372q0 370 281 370q120 -5 224 -29l-16 -73q-90 18 -208 20q-194 0 -194 -288t194 -288q118 2 208 20l16 -73q-104 -24 -224 -29q-281 0 -281 370zM412 916l-156 -111l-42 52l145 125z" />
    <glyph glyph-name="cacute" unicode="&#x107;" horiz-adv-x="482" 
d="M34 269q0 271 223 271q101 -2 199 -29l-13 -67q-92 14 -183 14q-139 0 -139 -189t139 -189q91 0 183 14l13 -67q-98 -27 -199 -29q-223 0 -223 271zM366 714l-156 -111l-42 52l145 125z" />
    <glyph glyph-name="Ccircumflex" unicode="&#x108;" horiz-adv-x="583" 
d="M47 372q0 370 281 370q120 -5 224 -29l-16 -73q-90 18 -208 20q-194 0 -194 -288t194 -288q118 2 208 20l16 -73q-104 -24 -224 -29q-281 0 -281 370zM325 968l129 -141h-80l-75 81l-74 -81h-80l129 141h51z" />
    <glyph glyph-name="ccircumflex" unicode="&#x109;" horiz-adv-x="505" 
d="M45 269q0 271 223 271q101 -2 199 -29l-13 -67q-92 14 -183 14q-139 0 -139 -189t139 -189q91 0 183 14l13 -67q-98 -27 -199 -29q-223 0 -223 271zM282 766l129 -141h-80l-75 81l-74 -81h-80l129 141h51z" />
    <glyph glyph-name="Cdotaccent" unicode="&#x10a;" horiz-adv-x="583" 
d="M47 372q0 370 281 370q120 -5 224 -29l-16 -73q-90 18 -208 20q-194 0 -194 -288t194 -288q118 2 208 20l16 -73q-104 -24 -224 -29q-281 0 -281 370zM245 827v24q0 42 42 42h25q42 0 42 -42v-24q0 -42 -42 -42h-25q-42 0 -42 42z" />
    <glyph glyph-name="cdotaccent" unicode="&#x10b;" horiz-adv-x="507" 
d="M47 269q0 271 223 271q101 -2 199 -29l-13 -67q-92 14 -183 14q-139 0 -139 -189t139 -189q91 0 183 14l13 -67q-98 -27 -199 -29q-223 0 -223 271zM198 625v24q0 42 42 42h25q42 0 42 -42v-24q0 -42 -42 -42h-25q-42 0 -42 42z" />
    <glyph glyph-name="Ccaron" unicode="&#x10c;" horiz-adv-x="583" 
d="M47 372q0 370 281 370q120 -5 224 -29l-16 -73q-90 18 -208 20q-194 0 -194 -288t194 -288q118 2 208 20l16 -73q-104 -24 -224 -29q-281 0 -281 370zM274 827l-132 144h81l77 -83l76 83h82l-132 -144h-52z" />
    <glyph glyph-name="ccaron" unicode="&#x10d;" horiz-adv-x="499" 
d="M39 269q0 271 223 271q101 -2 199 -29l-13 -67q-92 14 -183 14q-139 0 -139 -189t139 -189q91 0 183 14l13 -67q-98 -27 -199 -29q-223 0 -223 271zM224 625l-132 144h81l77 -83l76 83h82l-132 -144h-52z" />
    <glyph glyph-name="Dcaron" unicode="&#x10e;" horiz-adv-x="688" 
d="M82 0v745h226q309 0 309 -373q0 -372 -309 -372h-226zM308 82q222 0 222 290q0 291 -222 291h-139v-581h139zM324 827l-132 144h81l77 -83l76 83h82l-132 -144h-52z" />
    <glyph glyph-name="dcaron" unicode="&#x10f;" horiz-adv-x="652" 
d="M411 389q-77 81 -154 81q-123 0 -123 -194q0 -204 123 -204q77 0 154 99v218zM411 748h87v-748h-78l-10 79q-76 -89 -153 -89q-210 0 -210 281q0 282 210 282q77 0 154 -70v265zM654 746q-4 -104 -65 -221l-66 23q45 92 50 198h81z" />
    <glyph glyph-name="Dcroat" unicode="&#x110;" horiz-adv-x="664" 
d="M169 339v-257h139q222 0 222 290q0 291 -222 291h-139v-257h193v-67h-193zM82 406v339h226q309 0 309 -373q0 -372 -309 -372h-226v339h-81v67h81z" />
    <glyph glyph-name="dcroat" unicode="&#x111;" horiz-adv-x="564" 
d="M409 389q-77 81 -154 81q-123 0 -123 -194q0 -204 123 -204q77 0 154 99v218zM409 748h87v-748h-78l-10 79q-76 -89 -153 -89q-210 0 -210 281q0 282 210 282q77 0 154 -70v265zM581.589 696v-67h-270.589v67h270.589z" />
    <glyph glyph-name="Emacron" unicode="&#x112;" horiz-adv-x="566" 
d="M72 159v425q2 157 162 157q141 0 301 -10v-72h-301q-75 0 -75 -75v-173h314v-82h-314v-170q0 -75 75 -75h301v-72q-160 -10 -301 -10q-160 0 -162 157zM461 876v-67h-315v67h315z" />
    <glyph glyph-name="emacron" unicode="&#x113;" horiz-adv-x="539" 
d="M121 302h235q32 0 32 31q0 134 -113 136h-27q-125 0 -127 -167zM126 228q22 -147 152 -147q92 0 171 20l17 -65q-93 -37 -191 -37q-241 0 -241 297q11 250 214 250h27q195 0 200 -213q0 -105 -119 -105h-230zM417 674v-67h-315v67h315z" />
    <glyph glyph-name="Ebreve" unicode="&#x114;" horiz-adv-x="566" 
d="M72 159v425q2 157 162 157q141 0 301 -10v-72h-301q-75 0 -75 -75v-173h314v-82h-314v-170q0 -75 75 -75h301v-72q-160 -10 -301 -10q-160 0 -162 157zM185 915h57q0 -70 62 -70q61 0 61 70h57q0 -133 -118 -133q-119 0 -119 133z" />
    <glyph glyph-name="ebreve" unicode="&#x115;" horiz-adv-x="539" 
d="M121 302h235q32 0 32 31q0 134 -113 136h-27q-125 0 -127 -167zM126 228q22 -147 152 -147q92 0 171 20l17 -65q-93 -37 -191 -37q-241 0 -241 297q11 250 214 250h27q195 0 200 -213q0 -105 -119 -105h-230zM141 713h57q0 -70 62 -70q61 0 61 70h57q0 -133 -118 -133
q-119 0 -119 133z" />
    <glyph glyph-name="Edotaccent" unicode="&#x116;" horiz-adv-x="566" 
d="M72 159v425q2 157 162 157q141 0 301 -10v-72h-301q-75 0 -75 -75v-173h314v-82h-314v-170q0 -75 75 -75h301v-72q-160 -10 -301 -10q-160 0 -162 157zM249 827v24q0 42 42 42h25q42 0 42 -42v-24q0 -42 -42 -42h-25q-42 0 -42 42z" />
    <glyph glyph-name="edotaccent" unicode="&#x117;" horiz-adv-x="538" 
d="M120 302h235q32 0 32 31q0 134 -113 136h-27q-125 0 -127 -167zM125 228q22 -147 152 -147q92 0 171 20l17 -65q-93 -37 -191 -37q-241 0 -241 297q11 250 214 250h27q195 0 200 -213q0 -105 -119 -105h-230zM204 625v24q0 42 42 42h25q42 0 42 -42v-24q0 -42 -42 -42
h-25q-42 0 -42 42z" />
    <glyph glyph-name="Eogonek" unicode="&#x118;" horiz-adv-x="564" 
d="M368 4q-69 -2 -134 -2q-160 0 -162 157v425q2 157 162 157q141 0 301 -10v-72h-301q-75 0 -75 -75v-173h314v-82h-314v-170q0 -75 75 -75h301v-72q-25 -2 -49 -3l1 -2q-91 -29 -91 -90q0 -34 32 -34q40 1 90 14l17 -65q-64 -16 -107 -16q-99 0 -99 101q2 50 39 87z" />
    <glyph glyph-name="eogonek" unicode="&#x119;" horiz-adv-x="559" 
d="M134 302h235q32 0 32 31q0 134 -113 136h-27q-125 0 -127 -167zM306 -1h-18q-241 0 -241 297q11 250 214 250h27q195 0 200 -213q0 -105 -119 -105h-230q22 -147 152 -147q92 0 171 20l17 -65q-41 -16 -83 -26q-37 -25 -37 -64q0 -34 32 -34q40 1 90 14l17 -65
q-64 -16 -107 -16q-99 0 -99 101q1 29 14 53z" />
    <glyph glyph-name="Ecaron" unicode="&#x11a;" horiz-adv-x="566" 
d="M72 159v425q2 157 162 157q141 0 301 -10v-72h-301q-75 0 -75 -75v-173h314v-82h-314v-170q0 -75 75 -75h301v-72q-160 -10 -301 -10q-160 0 -162 157zM278 827l-132 144h81l77 -83l76 83h82l-132 -144h-52z" />
    <glyph glyph-name="ecaron" unicode="&#x11b;" horiz-adv-x="539" 
d="M121 302h235q32 0 32 31q0 134 -113 136h-27q-125 0 -127 -167zM126 228q22 -147 152 -147q92 0 171 20l17 -65q-93 -37 -191 -37q-241 0 -241 297q11 250 214 250h27q195 0 200 -213q0 -105 -119 -105h-230zM234 625l-132 144h81l77 -83l76 83h82l-132 -144h-52z" />
    <glyph glyph-name="Gcircumflex" unicode="&#x11c;" horiz-adv-x="644" 
d="M528 638q-96 20 -203 21q-191 0 -191 -294q0 -279 193 -279q88 0 166 19v217h-186v76h273v-366q-151 -30 -253 -30q-280 0 -280 362q0 377 279 377q111 -2 214 -28zM339 968l129 -141h-80l-75 81l-74 -81h-80l129 141h51z" />
    <glyph glyph-name="gcircumflex" unicode="&#x11d;" horiz-adv-x="575" 
d="M154 348q0 -80 113 -80h22q114 0 114 80v24q0 100 -114 100h-22q-113 0 -113 -100v-24zM127 -60q0 -70 160 -70q143 0 143 70v14q-4 64 -102 84l-127 20q-69 -36 -74 -104v-14zM346 111q171 -37 171 -157v-14q0 -147 -230 -147q-247 0 -247 147v14q0 70 87 121
q-47 20 -48 84q1 41 43 84q-52 33 -55 105v24q0 167 200 167h22q72 0 92 -10h153v-53l-74 -5q28 -35 30 -99v-24q0 -147 -201 -147h-22q-41 1 -79 11q-27 -4 -32 -36q3 -34 39 -42zM313 766l129 -141h-80l-75 81l-74 -81h-80l129 141h51z" />
    <glyph glyph-name="Gbreve" unicode="&#x11e;" horiz-adv-x="644" 
d="M528 638q-96 20 -203 21q-191 0 -191 -294q0 -279 193 -279q88 0 166 19v217h-186v76h273v-366q-151 -30 -253 -30q-280 0 -280 362q0 377 279 377q111 -2 214 -28zM195 915h57q0 -70 62 -70q61 0 61 70h57q0 -133 -118 -133q-119 0 -119 133z" />
    <glyph glyph-name="gbreve" unicode="&#x11f;" horiz-adv-x="575" 
d="M154 348q0 -80 113 -80h22q114 0 114 80v24q0 100 -114 100h-22q-113 0 -113 -100v-24zM127 -60q0 -70 160 -70q143 0 143 70v14q-4 64 -102 84l-127 20q-69 -36 -74 -104v-14zM346 111q171 -37 171 -157v-14q0 -147 -230 -147q-247 0 -247 147v14q0 70 87 121
q-47 20 -48 84q1 41 43 84q-52 33 -55 105v24q0 167 200 167h22q72 0 92 -10h153v-53l-74 -5q28 -35 30 -99v-24q0 -147 -201 -147h-22q-41 1 -79 11q-27 -4 -32 -36q3 -34 39 -42zM169 713h57q0 -70 62 -70q61 0 61 70h57q0 -133 -118 -133q-119 0 -119 133z" />
    <glyph glyph-name="Gdotaccent" unicode="&#x120;" horiz-adv-x="644" 
d="M528 638q-96 20 -203 21q-191 0 -191 -294q0 -279 193 -279q88 0 166 19v217h-186v76h273v-366q-151 -30 -253 -30q-280 0 -280 362q0 377 279 377q111 -2 214 -28zM259 827v24q0 42 42 42h25q42 0 42 -42v-24q0 -42 -42 -42h-25q-42 0 -42 42z" />
    <glyph glyph-name="gdotaccent" unicode="&#x121;" horiz-adv-x="575" 
d="M154 348q0 -80 113 -80h22q114 0 114 80v24q0 100 -114 100h-22q-113 0 -113 -100v-24zM127 -60q0 -70 160 -70q143 0 143 70v14q-4 64 -102 84l-127 20q-69 -36 -74 -104v-14zM346 111q171 -37 171 -157v-14q0 -147 -230 -147q-247 0 -247 147v14q0 70 87 121
q-47 20 -48 84q1 41 43 84q-52 33 -55 105v24q0 167 200 167h22q72 0 92 -10h153v-53l-74 -5q28 -35 30 -99v-24q0 -147 -201 -147h-22q-41 1 -79 11q-27 -4 -32 -36q3 -34 39 -42zM233 625v24q0 42 42 42h25q42 0 42 -42v-24q0 -42 -42 -42h-25q-42 0 -42 42z" />
    <glyph glyph-name="uni0122" unicode="&#x122;" horiz-adv-x="644" 
d="M528 638q-96 20 -203 21q-191 0 -191 -294q0 -279 193 -279q88 0 166 19v217h-186v76h273v-366q-151 -30 -253 -30q-280 0 -280 362q0 377 279 377q111 -2 214 -28zM387 -11q-4 -124 -83 -231l-56 30q43 75 48 201h91z" />
    <glyph glyph-name="uni0123" unicode="&#x123;" horiz-adv-x="575" 
d="M154 348q0 -80 113 -80h22q114 0 114 80v24q0 100 -114 100h-22q-113 0 -113 -100v-24zM127 -60q0 -70 160 -70q143 0 143 70v14q-4 64 -102 84l-127 20q-69 -36 -74 -104v-14zM346 111q171 -37 171 -157v-14q0 -147 -230 -147q-247 0 -247 147v14q0 70 87 121
q-47 20 -48 84q1 41 43 84q-52 33 -55 105v24q0 167 200 167h22q72 0 92 -10h153v-53l-74 -5q28 -35 30 -99v-24q0 -147 -201 -147h-22q-41 1 -79 11q-27 -4 -32 -36q3 -34 39 -42zM222 570q4 104 65 221l66 -23q-45 -92 -50 -198h-81z" />
    <glyph glyph-name="Hcircumflex" unicode="&#x124;" horiz-adv-x="697" 
d="M169 328v-324h-87v737h87v-326h345v326h87v-739h-87v326h-345zM367 968l129 -141h-80l-75 81l-74 -81h-80l129 141h51z" />
    <glyph glyph-name="hcircumflex" unicode="&#x125;" horiz-adv-x="565" 
d="M161 762v-291q50 77 156 78q185 0 185 -218v-327h-87v327q0 141 -98 141q-106 0 -156 -102v-366h-87v758h87zM314 958l129 -141h-80l-75 81l-74 -81h-80l129 141h51z" />
    <glyph glyph-name="Hbar" unicode="&#x126;" horiz-adv-x="677" 
d="M598 616v-614h-87v326h-345v-324h-87v612h-56v67h56v58h87v-58h345v58h87v-58h56v-67h-56zM166 616v-201h345v201h-345z" />
    <glyph glyph-name="hbar" unicode="&#x127;" horiz-adv-x="588" 
d="M97 669v93h87v-93h101v-67h-101v-131q50 77 156 78q185 0 185 -218v-327h-87v327q0 141 -98 141q-106 0 -156 -102v-366h-87v598h-83v67h83z" />
    <glyph glyph-name="Itilde" unicode="&#x128;" horiz-adv-x="299" 
d="M199 741v-739h-87v739h87zM336 967q0 -149 -102 -149q-66 0 -111 68q-22 28 -47 28q-40 0 -40 -85h-61q0 146 101 146q66 0 112 -68q22 -28 46 -28q40 0 40 88h62z" />
    <glyph glyph-name="itilde" unicode="&#x129;" horiz-adv-x="317" 
d="M220 539v-539h-87v539h87zM357 765q0 -149 -102 -149q-66 0 -111 68q-22 28 -47 28q-40 0 -40 -85h-61q0 146 101 146q66 0 112 -68q22 -28 46 -28q40 0 40 88h62z" />
    <glyph glyph-name="Imacron" unicode="&#x12a;" horiz-adv-x="304" 
d="M176 741v-739h-87v739h87zM290 876v-67h-315v67h315z" />
    <glyph glyph-name="imacron" unicode="&#x12b;" horiz-adv-x="319" 
d="M206 539v-539h-87v539h87zM320 674v-67h-315v67h315z" />
    <glyph glyph-name="Ibreve" unicode="&#x12c;" horiz-adv-x="256" 
d="M163 741v-739h-87v739h87zM1 915h57q0 -70 62 -70q61 0 61 70h57q0 -133 -118 -133q-119 0 -119 133z" />
    <glyph glyph-name="ibreve" unicode="&#x12d;" horiz-adv-x="283" 
d="M185 539v-539h-87v539h87zM23 713h57q0 -70 62 -70q61 0 61 70h57q0 -133 -118 -133q-119 0 -119 133z" />
    <glyph glyph-name="Iogonek" unicode="&#x12e;" horiz-adv-x="286" 
d="M189 741v-739h-87v739h87zM78 -88q0 -34 32 -34q40 1 90 14l17 -65q-64 -16 -107 -16q-99 0 -99 101q4 97 138 146l20 -56q-91 -29 -91 -90z" />
    <glyph glyph-name="iogonek" unicode="&#x12f;" horiz-adv-x="286" 
d="M185 539v-539h-87v539h87zM87 676v24q0 42 42 42h25q42 0 42 -42v-24q0 -42 -42 -42h-25q-42 0 -42 42zM67 -90q0 -34 32 -34q40 1 90 14l17 -65q-64 -16 -107 -16q-99 0 -99 101q4 97 138 146l20 -56q-91 -29 -91 -90z" />
    <glyph glyph-name="Idotaccent" unicode="&#x130;" horiz-adv-x="275" 
d="M175 741v-739h-87v739h87zM76 827v24q0 42 42 42h25q42 0 42 -42v-24q0 -42 -42 -42h-25q-42 0 -42 42z" />
    <glyph glyph-name="dotlessi" unicode="&#x131;" horiz-adv-x="216" 
d="M153 539v-539h-87v539h87z" />
    <glyph glyph-name="IJ" unicode="&#x132;" horiz-adv-x="609" 
d="M169 741v-739h-87v739h87zM513 742v-525q0 -217 -173 -217q-53 0 -126 10l10 71h116q86 0 86 136v525h87z" />
    <glyph glyph-name="ij" unicode="&#x133;" horiz-adv-x="472" 
d="M165 539v-539h-87v539h87zM67 676v24q0 42 42 42h25q42 0 42 -42v-24q0 -42 -42 -42h-25q-42 0 -42 42zM406 539v-558q0 -186 -218 -193v77q130 0 131 116v558h87zM308 676v24q0 42 42 42h25q42 0 42 -42v-24q0 -42 -42 -42h-25q-42 0 -42 42z" />
    <glyph glyph-name="Jcircumflex" unicode="&#x134;" horiz-adv-x="378" 
d="M285 742v-525q0 -217 -173 -217q-53 0 -126 10l10 71h116q86 0 86 136v525h87zM264 968l129 -141h-80l-75 81l-74 -81h-80l129 141h51z" />
    <glyph glyph-name="jcircumflex" unicode="&#x135;" horiz-adv-x="235" 
d="M219 539v-558q0 -186 -218 -193v77q130 0 131 116v558h87zM195 766l129 -141h-80l-75 81l-74 -81h-80l129 141h51z" />
    <glyph glyph-name="uni0136" unicode="&#x136;" horiz-adv-x="629" 
d="M169 741v-369l311 369h118l-271 -316l289 -425h-105l-254 353l-88 -99v-254h-87v741h87zM423 -11q-4 -124 -83 -231l-56 30q43 75 48 201h91z" />
    <glyph glyph-name="uni0137" unicode="&#x137;" horiz-adv-x="530" 
d="M161 305l219 237h105l-207 -223l241 -319h-105l-197 257l-56 -64v-193h-87v771h87v-466zM370 -11q-4 -124 -83 -231l-56 30q43 75 48 201h91z" />
    <glyph glyph-name="kgreenlandic" unicode="&#x138;" horiz-adv-x="522" 
d="M153 305l219 234h105l-207 -220l241 -319h-105l-197 257l-56 -64v-193h-87v540h87v-235z" />
    <glyph glyph-name="Lacute" unicode="&#x139;" horiz-adv-x="546" 
d="M186 742v-573q0 -83 77 -83h279v-82h-279q-164 0 -164 165v573h87zM300 916l-156 -111l-42 52l145 125z" />
    <glyph glyph-name="lacute" unicode="&#x13a;" horiz-adv-x="313" 
d="M177 762v-586q0 -94 55 -94h48l2 -60q-21 -18 -80 -18q-112 0 -112 174v584h87zM289 906l-156 -111l-42 52l145 125z" />
    <glyph glyph-name="uni013B" unicode="&#x13b;" horiz-adv-x="529" 
d="M169 742v-573q0 -83 77 -83h279v-82h-279q-164 0 -164 165v573h87zM424 -11q-4 -124 -83 -231l-56 30q43 75 48 201h91z" />
    <glyph glyph-name="uni013C" unicode="&#x13c;" horiz-adv-x="292" 
d="M159 762v-586q0 -94 55 -94h48l2 -60q-21 -18 -80 -18q-112 0 -112 174v584h87zM276 -11q-4 -124 -83 -231l-56 30q43 75 48 201h91z" />
    <glyph glyph-name="Lcaron" unicode="&#x13d;" horiz-adv-x="531" 
d="M169 742v-573q0 -83 77 -83h279v-82h-279q-164 0 -164 165v573h87zM353 756q-4 -124 -83 -231l-56 30q43 75 48 201h91z" />
    <glyph glyph-name="lcaron" unicode="&#x13e;" horiz-adv-x="296" 
d="M161 762v-586q0 -94 55 -94h48l2 -60q-21 -18 -80 -18q-112 0 -112 174v584h87zM327 761q-4 -124 -83 -231l-56 30q43 75 48 201h91z" />
    <glyph glyph-name="Ldot" unicode="&#x13f;" horiz-adv-x="529" 
d="M169 742v-573q0 -83 77 -83h279v-82h-279q-164 0 -164 165v573h87zM274 362v24q0 42 42 42h25q42 0 42 -42v-24q0 -42 -42 -42h-25q-42 0 -42 42z" />
    <glyph glyph-name="ldot" unicode="&#x140;" horiz-adv-x="353" 
d="M159 762v-586q0 -94 55 -94h48l2 -60q-21 -18 -80 -18q-112 0 -112 174v584h87zM216 372v24q0 42 42 42h25q42 0 42 -42v-24q0 -42 -42 -42h-25q-42 0 -42 42z" />
    <glyph glyph-name="Lslash" unicode="&#x141;" horiz-adv-x="563" 
d="M189 434l68 39l33 -57l-101 -58v-189q0 -83 77 -83h279v-82h-279q-164 0 -164 165v138l-61 -35l-33 57l94 54v359h87v-308z" />
    <glyph glyph-name="lslash" unicode="&#x142;" horiz-adv-x="296" 
d="M74 405v357h87v-306l44 25l34 -58l-78 -45v-202q0 -94 55 -94h48l2 -60q-21 -18 -80 -18q-112 0 -112 174v150l-41 -24l-34 58z" />
    <glyph glyph-name="Nacute" unicode="&#x143;" horiz-adv-x="713" 
d="M169 4v624l311 -592q15 -32 53 -32h69q15 0 15 22v715h-87v-619l-313 596q-11 25 -43 25h-77q-15 0 -15 -24v-715h87zM454 916l-156 -111l-42 52l145 125z" />
    <glyph glyph-name="nacute" unicode="&#x144;" horiz-adv-x="557" 
d="M143 539l10 -68q50 77 156 78q185 0 185 -228v-321h-87v321q0 151 -98 151q-106 0 -156 -112v-360h-87v539h77zM406 714l-156 -111l-42 52l145 125z" />
    <glyph glyph-name="uni0145" unicode="&#x145;" horiz-adv-x="713" 
d="M169 4v624l311 -592q15 -32 53 -32h69q15 0 15 22v715h-87v-619l-313 596q-11 25 -43 25h-77q-15 0 -15 -24v-715h87zM423 -11q-4 -124 -83 -231l-56 30q43 75 48 201h91z" />
    <glyph glyph-name="uni0146" unicode="&#x146;" horiz-adv-x="557" 
d="M143 539l10 -68q50 77 156 78q185 0 185 -228v-321h-87v321q0 151 -98 151q-106 0 -156 -112v-360h-87v539h77zM354 -11q-4 -124 -83 -231l-56 30q43 75 48 201h91z" />
    <glyph glyph-name="Ncaron" unicode="&#x147;" horiz-adv-x="713" 
d="M169 4v624l311 -592q15 -32 53 -32h69q15 0 15 22v715h-87v-619l-313 596q-11 25 -43 25h-77q-15 0 -15 -24v-715h87zM269 827l-132 144h81l77 -83l76 83h82l-132 -144h-52z" />
    <glyph glyph-name="ncaron" unicode="&#x148;" horiz-adv-x="560" 
d="M146 539l10 -68q50 77 156 78q185 0 185 -228v-321h-87v321q0 151 -98 151q-106 0 -156 -112v-360h-87v539h77zM224 625l-132 144h81l77 -83l76 83h82l-132 -144h-52z" />
    <glyph glyph-name="napostrophe" unicode="&#x149;" horiz-adv-x="564" 
d="M134 771q-4 -124 -83 -231l-56 30q43 75 48 201h91zM150 539l10 -68q50 77 156 78q185 0 185 -228v-321h-87v321q0 151 -98 151q-106 0 -156 -112v-360h-87v539h77z" />
    <glyph glyph-name="Eng" unicode="&#x14a;" horiz-adv-x="699" 
d="M480 32l-311 596v-628h-87v719q0 24 15 24h77q32 0 43 -25l313 -600v623h87v-741q0 -184 -190 -192v77q103 0 103 115q-35 0 -50 32z" />
    <glyph glyph-name="eng" unicode="&#x14b;" horiz-adv-x="557" 
d="M407 0v321q0 151 -98 151q-106 0 -156 -112v-360h-87v539h77l10 -68q50 77 156 78q185 0 185 -228v-321q0 -184 -190 -192v77q103 0 103 115z" />
    <glyph glyph-name="Omacron" unicode="&#x14c;" horiz-adv-x="683" 
d="M358 0h-57q-254 0 -254 335v73q0 334 254 334h57q254 0 254 -334v-73q0 -335 -254 -335zM134 408v-73q0 -258 167 -258h57q167 0 167 258v73q0 257 -167 257h-57q-167 0 -167 -257zM487 876v-67h-315v67h315z" />
    <glyph glyph-name="omacron" unicode="&#x14d;" horiz-adv-x="574" 
d="M511 255q0 -255 -230 -255h-20q-227 0 -227 255v27q0 257 227 257h20q230 0 230 -257v-27zM261 462q-140 0 -140 -180v-27q0 -178 140 -178h20q143 0 143 178v27q0 180 -143 180h-20zM430 674v-67h-315v67h315z" />
    <glyph glyph-name="Obreve" unicode="&#x14e;" horiz-adv-x="683" 
d="M358 0h-57q-254 0 -254 335v73q0 334 254 334h57q254 0 254 -334v-73q0 -335 -254 -335zM134 408v-73q0 -258 167 -258h57q167 0 167 258v73q0 257 -167 257h-57q-167 0 -167 -257zM201 915h57q0 -70 62 -70q61 0 61 70h57q0 -133 -118 -133q-119 0 -119 133z" />
    <glyph glyph-name="obreve" unicode="&#x14f;" horiz-adv-x="580" 
d="M526 255q0 -255 -230 -255h-20q-227 0 -227 255v27q0 257 227 257h20q230 0 230 -257v-27zM276 462q-140 0 -140 -180v-27q0 -178 140 -178h20q143 0 143 178v27q0 180 -143 180h-20zM154 713h57q0 -70 62 -70q61 0 61 70h57q0 -133 -118 -133q-119 0 -119 133z" />
    <glyph glyph-name="Ohungarumlaut" unicode="&#x150;" horiz-adv-x="683" 
d="M358 0h-57q-254 0 -254 335v73q0 334 254 334h57q254 0 254 -334v-73q0 -335 -254 -335zM134 408v-73q0 -258 167 -258h57q167 0 167 258v73q0 257 -167 257h-57q-167 0 -167 -257zM375 916l-156 -111l-42 52l145 125zM531 916l-156 -111l-42 52l145 125z" />
    <glyph glyph-name="ohungarumlaut" unicode="&#x151;" horiz-adv-x="576" 
d="M522 255q0 -255 -230 -255h-20q-227 0 -227 255v27q0 257 227 257h20q230 0 230 -257v-27zM272 462q-140 0 -140 -180v-27q0 -178 140 -178h20q143 0 143 178v27q0 180 -143 180h-20zM324 714l-156 -111l-42 52l145 125zM480 714l-156 -111l-42 52l145 125z" />
    <glyph glyph-name="OE" unicode="&#x152;" horiz-adv-x="1030" 
d="M542 76q-63 -76 -184 -76h-57q-254 0 -254 335v73q0 334 254 334h57q120 0 184 -75q35 74 145 74q141 0 301 -10v-72h-301q-75 0 -75 -75v-173h314v-82h-314v-170q0 -75 75 -75h301v-72q-160 -10 -301 -10q-110 0 -145 74zM525 408q0 257 -167 257h-57q-167 0 -167 -257
v-73q0 -258 167 -258h57q167 0 167 258v73z" />
    <glyph glyph-name="oe" unicode="&#x153;" horiz-adv-x="942" 
d="M274 462q-140 0 -140 -180v-27q0 -178 140 -178h20q143 0 143 178v27q0 180 -143 180h-20zM524 302h235q32 0 32 31q0 134 -113 136h-27q-125 0 -127 -167zM486 89q-56 -89 -192 -89h-20q-227 0 -227 255v27q0 257 227 257h20q128 0 185 -79q53 86 172 86h27
q195 0 200 -213q0 -105 -119 -105h-230q22 -147 152 -147q92 0 171 20l17 -65q-93 -37 -191 -37q-133 0 -192 90z" />
    <glyph glyph-name="Racute" unicode="&#x154;" horiz-adv-x="639" 
d="M308 381q182 0 182 140q0 138 -182 138h-139v-278h139zM82 0v741h226q269 0 269 -220q0 -164 -147 -207l161 -314h-98l-154 300q-15 -1 -31 -1h-139v-299h-87zM454 916l-156 -111l-42 52l145 125z" />
    <glyph glyph-name="racute" unicode="&#x155;" horiz-adv-x="413" 
d="M376 454q-30 8 -68 8q-103 -1 -154 -129v-331h-87v537h77l10 -89q51 89 154 89q38 0 83 -21zM340 714l-156 -111l-42 52l145 125z" />
    <glyph glyph-name="uni0156" unicode="&#x156;" horiz-adv-x="639" 
d="M308 381q182 0 182 140q0 138 -182 138h-139v-278h139zM82 0v741h226q269 0 269 -220q0 -164 -147 -207l161 -314h-98l-154 300q-15 -1 -31 -1h-139v-299h-87zM410 -11q-4 -124 -83 -231l-56 30q43 75 48 201h91z" />
    <glyph glyph-name="uni0157" unicode="&#x157;" horiz-adv-x="434" 
d="M397 454q-30 8 -68 8q-103 -1 -154 -129v-331h-87v537h77l10 -89q51 89 154 89q38 0 83 -21zM205 -11q-4 -124 -83 -231l-56 30q43 75 48 201h91z" />
    <glyph glyph-name="Rcaron" unicode="&#x158;" horiz-adv-x="639" 
d="M308 381q182 0 182 140q0 138 -182 138h-139v-278h139zM82 0v741h226q269 0 269 -220q0 -164 -147 -207l161 -314h-98l-154 300q-15 -1 -31 -1h-139v-299h-87zM269 827l-132 144h81l77 -83l76 83h82l-132 -144h-52z" />
    <glyph glyph-name="rcaron" unicode="&#x159;" horiz-adv-x="423" 
d="M386 454q-30 8 -68 8q-103 -1 -154 -129v-331h-87v537h77l10 -89q51 89 154 89q38 0 83 -21zM165 625l-132 144h81l77 -83l76 83h82l-132 -144h-52z" />
    <glyph glyph-name="Sacute" unicode="&#x15a;" horiz-adv-x="586" 
d="M510 648q-102 9 -211 11q-169 0 -169 -110v-37q5 -63 72 -84l181 -32q161 -28 162 -187v-32q-9 -176 -237 -176q-126 2 -254 22l8 68q116 -6 239 -8q154 0 157 94v32q0 87 -85 101l-179 32q-143 25 -151 170v37q0 192 255 192q100 -1 220 -25zM404 916l-156 -111l-42 52
l145 125z" />
    <glyph glyph-name="sacute" unicode="&#x15b;" horiz-adv-x="484" 
d="M132 376q5 -47 66 -59l113 -14q141 -18 143 -138q0 -162 -165 -162q-149 2 -233 22l9 69q83 -12 224 -14q78 3 78 85q-2 50 -61 58l-113 14q-141 21 -148 139q0 162 175 162q129 -2 203 -22l-10 -70q-72 13 -193 15q-88 -3 -88 -85zM369 714l-156 -111l-42 52l145 125z
" />
    <glyph glyph-name="Scircumflex" unicode="&#x15c;" horiz-adv-x="586" 
d="M510 648q-102 9 -211 11q-169 0 -169 -110v-37q5 -63 72 -84l181 -32q161 -28 162 -187v-32q-9 -176 -237 -176q-126 2 -254 22l8 68q116 -6 239 -8q154 0 157 94v32q0 87 -85 101l-179 32q-143 25 -151 170v37q0 192 255 192q100 -1 220 -25zM320 968l129 -141h-80
l-75 81l-74 -81h-80l129 141h51z" />
    <glyph glyph-name="scircumflex" unicode="&#x15d;" horiz-adv-x="501" 
d="M125 376q5 -47 66 -59l113 -14q141 -18 143 -138q0 -162 -165 -162q-149 2 -233 22l9 69q83 -12 224 -14q78 3 78 85q-2 50 -61 58l-113 14q-141 21 -148 139q0 162 175 162q129 -2 203 -22l-10 -70q-72 13 -193 15q-88 -3 -88 -85zM268 766l129 -141h-80l-75 81l-74 -81
h-80l129 141h51z" />
    <glyph glyph-name="Scedilla" unicode="&#x15e;" horiz-adv-x="586" 
d="M209 5q-77 6 -155 18l8 68q116 -6 239 -8q154 0 157 94v32q0 87 -85 101l-179 32q-143 25 -151 170v37q0 192 255 192q100 -1 220 -25l-8 -68q-102 9 -211 11q-169 0 -169 -110v-37q5 -63 72 -84l181 -32q161 -28 162 -187v-32q-9 -176 -237 -176q-23 0 -45 1l-6 -14h20
q95 0 95 -95t-95 -95l-91 12l8 42l84 -7q37 0 37 48t-38 48h-45q-46 0 -31 41z" />
    <glyph glyph-name="scedilla" unicode="&#x15f;" horiz-adv-x="484" 
d="M175 8q-70 5 -119 17l9 69q83 -12 224 -14q78 3 78 85q-2 50 -61 58l-113 14q-141 21 -148 139q0 162 175 162q129 -2 203 -22l-10 -70q-72 13 -193 15q-88 -3 -88 -85q5 -47 66 -59l113 -14q141 -18 143 -138q0 -162 -165 -162q-32 0 -60 2l-7 -17h20q95 0 95 -95
t-95 -95l-91 12l8 42l84 -7q37 0 37 48t-38 48h-45q-46 0 -31 41z" />
    <glyph glyph-name="Scaron" unicode="&#x160;" horiz-adv-x="586" 
d="M510 648q-102 9 -211 11q-169 0 -169 -110v-37q5 -63 72 -84l181 -32q161 -28 162 -187v-32q-9 -176 -237 -176q-126 2 -254 22l8 68q116 -6 239 -8q154 0 157 94v32q0 87 -85 101l-179 32q-143 25 -151 170v37q0 192 255 192q100 -1 220 -25zM268 827l-132 144h81
l77 -83l76 83h82l-132 -144h-52z" />
    <glyph glyph-name="scaron" unicode="&#x161;" horiz-adv-x="501" 
d="M125 376q5 -47 66 -59l113 -14q141 -18 143 -138q0 -162 -165 -162q-149 2 -233 22l9 69q83 -12 224 -14q78 3 78 85q-2 50 -61 58l-113 14q-141 21 -148 139q0 162 175 162q129 -2 203 -22l-10 -70q-72 13 -193 15q-88 -3 -88 -85zM217 625l-132 144h81l77 -83l76 83h82
l-132 -144h-52z" />
    <glyph glyph-name="uni0162" unicode="&#x162;" horiz-adv-x="547" 
d="M261 11v654h-239v77h547v-77h-221v-663h-35l-6 -14h20q95 0 95 -95t-95 -95l-91 12l8 42l84 -7q37 0 37 48t-38 48h-45q-46 0 -31 41z" />
    <glyph glyph-name="uni0163" unicode="&#x163;" horiz-adv-x="366" 
d="M187 14q-78 31 -78 150v308h-100v67h100v138h87v-138h130v-67h-130v-308q1 -83 54 -83q33 0 64 6l18 -67q-46 -16 -83 -16h-11l-6 -16h20q95 0 95 -95t-95 -95l-91 12l8 42l84 -7q37 0 37 48t-38 48h-45q-46 0 -31 41z" />
    <glyph glyph-name="Tcaron" unicode="&#x164;" horiz-adv-x="545" 
d="M569 742v-77h-221v-663h-87v663h-239v77h547zM270 827l-132 144h81l77 -83l76 83h82l-132 -144h-52z" />
    <glyph glyph-name="tcaron" unicode="&#x165;" horiz-adv-x="368" 
d="M196 677v-138h130v-67h-130v-308q1 -83 54 -83q33 0 64 6l18 -67q-46 -16 -83 -16q-140 0 -140 160v308h-100v67h100v138h87zM389 829q-4 -124 -83 -231l-56 30q43 75 48 201h91z" />
    <glyph glyph-name="Tbar" unicode="&#x166;" horiz-adv-x="591" 
d="M261 539v126h-239v77h547v-77h-221v-126h193v-67h-193v-470h-87v470h-171v67h171z" />
    <glyph glyph-name="tbar" unicode="&#x167;" horiz-adv-x="368" 
d="M109 382v90h-100v67h100v138h87v-138h130v-67h-130v-90h177v-67h-177v-151q1 -83 54 -83q33 0 64 6l18 -67q-46 -16 -83 -16q-140 0 -140 160v151h-97v67h97z" />
    <glyph glyph-name="Utilde" unicode="&#x168;" horiz-adv-x="667" 
d="M163 742v-490q0 -175 162 -175h20q167 0 167 175v490h87v-490q0 -252 -254 -252h-20q-249 0 -249 252v490h87zM512 967q0 -149 -102 -149q-66 0 -111 68q-22 28 -47 28q-40 0 -40 -85h-61q0 146 101 146q66 0 112 -68q22 -28 46 -28q40 0 40 88h62z" />
    <glyph glyph-name="utilde" unicode="&#x169;" horiz-adv-x="556" 
d="M416 0l-10 72q-50 -77 -156 -78q-185 0 -185 228v317h87v-317q0 -151 98 -151q106 0 156 112v356h87v-539h-77zM449 765q0 -149 -102 -149q-66 0 -111 68q-22 28 -47 28q-40 0 -40 -85h-61q0 146 101 146q66 0 112 -68q22 -28 46 -28q40 0 40 88h62z" />
    <glyph glyph-name="Umacron" unicode="&#x16a;" horiz-adv-x="667" 
d="M163 742v-490q0 -175 162 -175h20q167 0 167 175v490h87v-490q0 -252 -254 -252h-20q-249 0 -249 252v490h87zM495 876v-67h-315v67h315z" />
    <glyph glyph-name="umacron" unicode="&#x16b;" horiz-adv-x="551" 
d="M411 0l-10 72q-50 -77 -156 -78q-185 0 -185 228v317h87v-317q0 -151 98 -151q106 0 156 112v356h87v-539h-77zM432 674v-67h-315v67h315z" />
    <glyph glyph-name="Ubreve" unicode="&#x16c;" horiz-adv-x="667" 
d="M163 742v-490q0 -175 162 -175h20q167 0 167 175v490h87v-490q0 -252 -254 -252h-20q-249 0 -249 252v490h87zM205 915h57q0 -70 62 -70q61 0 61 70h57q0 -133 -118 -133q-119 0 -119 133z" />
    <glyph glyph-name="ubreve" unicode="&#x16d;" horiz-adv-x="551" 
d="M411 0l-10 72q-50 -77 -156 -78q-185 0 -185 228v317h87v-317q0 -151 98 -151q106 0 156 112v356h87v-539h-77zM137 713h57q0 -70 62 -70q61 0 61 70h57q0 -133 -118 -133q-119 0 -119 133z" />
    <glyph glyph-name="Uring" unicode="&#x16e;" horiz-adv-x="667" 
d="M163 742v-490q0 -175 162 -175h20q167 0 167 175v490h87v-490q0 -252 -254 -252h-20q-249 0 -249 252v490h87zM323 969q100 0 100 -99q0 -98 -100 -98q-99 0 -99 98q0 99 99 99zM376 870q0 52 -53 52q-52 0 -52 -52q0 -51 52 -51q53 0 53 51z" />
    <glyph glyph-name="uring" unicode="&#x16f;" horiz-adv-x="551" 
d="M411 0l-10 72q-50 -77 -156 -78q-185 0 -185 228v317h87v-317q0 -151 98 -151q106 0 156 112v356h87v-539h-77zM255 767q100 0 100 -99q0 -98 -100 -98q-99 0 -99 98q0 99 99 99zM308 668q0 52 -53 52q-52 0 -52 -52q0 -51 52 -51q53 0 53 51z" />
    <glyph glyph-name="Uhungarumlaut" unicode="&#x170;" horiz-adv-x="667" 
d="M163 742v-490q0 -175 162 -175h20q167 0 167 175v490h87v-490q0 -252 -254 -252h-20q-249 0 -249 252v490h87zM379 916l-156 -111l-42 52l145 125zM535 916l-156 -111l-42 52l145 125z" />
    <glyph glyph-name="uhungarumlaut" unicode="&#x171;" horiz-adv-x="552" 
d="M412 0l-10 72q-50 -77 -156 -78q-185 0 -185 228v317h87v-317q0 -151 98 -151q106 0 156 112v356h87v-539h-77zM312 714l-156 -111l-42 52l145 125zM468 714l-156 -111l-42 52l145 125z" />
    <glyph glyph-name="Uogonek" unicode="&#x172;" horiz-adv-x="667" 
d="M275 3q-199 24 -199 249v490h87v-490q0 -175 162 -175h20q167 0 167 175v490h87v-490q0 -232 -215 -250q-81 -29 -81 -87q0 -34 32 -34q40 1 90 14l17 -65q-64 -16 -107 -16q-99 0 -99 101q2 50 39 88z" />
    <glyph glyph-name="uogonek" unicode="&#x173;" horiz-adv-x="566" 
d="M405 44l-4 28q-50 -77 -156 -78q-185 0 -185 228v317h87v-317q0 -151 98 -151q106 0 156 112v356h87v-539h-34q-88 -29 -88 -89q0 -34 32 -34q40 1 90 14l17 -65q-64 -16 -107 -16q-99 0 -99 101q3 85 106 133z" />
    <glyph glyph-name="Wcircumflex" unicode="&#x174;" horiz-adv-x="932" 
d="M491 741q25 0 31 -29l140 -603l140 632h89l-169 -710q-11 -29 -33 -29h-56q-20 0 -31 29l-143 593l-143 -593q-11 -29 -33 -29h-56q-20 0 -31 29l-169 710h89l140 -632l140 603q6 29 33 29h62zM477 968l129 -141h-80l-75 81l-74 -81h-80l129 141h51z" />
    <glyph glyph-name="wcircumflex" unicode="&#x175;" horiz-adv-x="811" 
d="M283 41q-13 -41 -68 -41t-68 41l-136 498h93l111 -452l114 411q13 41 68 41t68 -41l114 -411l111 452h93l-136 -498q-13 -41 -68 -41t-68 41l-114 411zM386 766l129 -141h-80l-75 81l-74 -81h-80l129 141h51z" />
    <glyph glyph-name="Ycircumflex" unicode="&#x176;" horiz-adv-x="577" 
d="M108 741l174 -334l14 -36l14 36l174 334h102l-247 -458v-281h-87v281l-247 458h103zM321 968l129 -141h-80l-75 81l-74 -81h-80l129 141h51z" />
    <glyph glyph-name="ycircumflex" unicode="&#x177;" horiz-adv-x="530" 
d="M219 2q-31 0 -52 56l-160 481h93l139 -430q6 -24 8 -24l147 454h93l-180 -537q-57 -139 -176 -229l-44 50q92 99 132 179zM273 766l129 -141h-80l-75 81l-74 -81h-80l129 141h51z" />
    <glyph glyph-name="Ydieresis" unicode="&#x178;" horiz-adv-x="577" 
d="M108 741l174 -334l14 -36l14 36l174 334h102l-247 -458v-281h-87v281l-247 458h103zM128 843v23q0 42 42 42h23q42 0 42 -42v-23q0 -42 -42 -42h-23q-42 0 -42 42zM342 843v23q0 42 42 42h23q42 0 42 -42v-23q0 -42 -42 -42h-23q-42 0 -42 42z" />
    <glyph glyph-name="Zacute" unicode="&#x179;" horiz-adv-x="590" 
d="M547 737v-52l-387 -608h389v-77h-503v52l387 608h-385v77h499zM403 916l-156 -111l-42 52l145 125z" />
    <glyph glyph-name="zacute" unicode="&#x17a;" horiz-adv-x="474" 
d="M463 487l-308 -410h308v-77h-426v52l308 410h-308v77h426v-52zM356 714l-156 -111l-42 52l145 125z" />
    <glyph glyph-name="Zdotaccent" unicode="&#x17b;" horiz-adv-x="590" 
d="M547 737v-52l-387 -608h389v-77h-503v52l387 608h-385v77h499zM224 827v24q0 42 42 42h25q42 0 42 -42v-24q0 -42 -42 -42h-25q-42 0 -42 42z" />
    <glyph glyph-name="zdotaccent" unicode="&#x17c;" horiz-adv-x="474" 
d="M463 487l-308 -410h308v-77h-426v52l308 410h-308v77h426v-52zM177 625v24q0 42 42 42h25q42 0 42 -42v-24q0 -42 -42 -42h-25q-42 0 -42 42z" />
    <glyph glyph-name="Zcaron" unicode="&#x17d;" horiz-adv-x="590" 
d="M547 737v-52l-387 -608h389v-77h-503v52l387 608h-385v77h499zM218 827l-132 144h81l77 -83l76 83h82l-132 -144h-52z" />
    <glyph glyph-name="zcaron" unicode="&#x17e;" horiz-adv-x="511" 
d="M463 487l-308 -410h308v-77h-426v52l308 410h-308v77h426v-52zM171 625l-132 144h81l77 -83l76 83h82l-132 -144h-52z" />
    <glyph glyph-name="longs" unicode="&#x17f;" horiz-adv-x="316" 
d="M73 4v580q0 188 177 188q30 0 76 -14l-16 -59q-26 6 -60 6q-90 0 -90 -124v-577h-87z" />
    <glyph glyph-name="uni018F" unicode="&#x18f;" horiz-adv-x="686" 
d="M330 76h27q197 0 197 273h-355q-52 0 -52 -70q0 -201 183 -203zM641 369v-18q-11 -352 -284 -352h-27q-265 0 -270 280q0 147 139 147h355q-16 236 -217 236q-112 0 -193 -33l-12 76q90 34 208 34q284 0 300 -343z" />
    <glyph glyph-name="florin" unicode="&#x192;" horiz-adv-x="336" 
d="M111 4v468h-82v67h82v45q0 188 177 188q30 0 76 -14l-16 -59q-26 6 -60 6q-90 0 -90 -124v-42h119v-67h-119v-468q0 -203 -177 -203q-30 0 -76 14l16 59q26 -6 60 -6q90 0 90 136z" />
    <glyph glyph-name="Ohorn" unicode="&#x1a0;" horiz-adv-x="678" 
d="M134 408v-69q0 -258 167 -258h57q167 0 167 258v69q0 257 -167 257h-57q-167 0 -167 -257zM570 624q91 15 91 144h77q0 -182 -143 -208q17 -65 17 -152v-69q0 -335 -254 -335h-57q-254 0 -254 335v69q0 334 254 334h57q151 0 212 -118z" />
    <glyph glyph-name="ohorn" unicode="&#x1a1;" horiz-adv-x="597" 
d="M274 462q-140 0 -140 -180v-27q0 -178 140 -178h20q143 0 143 178v27q0 180 -143 180h-20zM515 373q9 -40 9 -91v-27q0 -255 -230 -255h-20q-227 0 -227 255v27q0 257 227 257h20q144 0 198 -101q77 11 77 124h77q0 -166 -131 -189z" />
    <glyph glyph-name="Uhorn" unicode="&#x1af;" horiz-adv-x="723" 
d="M599 616q103 8 103 145h77q0 -204 -180 -212v-297q0 -252 -254 -252h-20q-249 0 -249 252v490h87v-490q0 -175 162 -175h20q167 0 167 175v490h87v-126z" />
    <glyph glyph-name="uhorn" unicode="&#x1b0;" horiz-adv-x="593" 
d="M488 437q83 8 83 125h77q0 -184 -160 -192v-366h-77l-10 68q-50 -77 -156 -78q-185 0 -185 228v317h87v-317q0 -151 98 -151q106 0 156 112v356h87v-102z" />
    <glyph glyph-name="uni01F0" unicode="&#x1f0;" horiz-adv-x="247" 
d="M209 539v-558q0 -186 -218 -193v77q130 0 131 116v558h87zM135 625l-132 144h81l77 -83l76 83h82l-132 -144h-52z" />
    <glyph glyph-name="uni01F4" unicode="&#x1f4;" horiz-adv-x="654" 
d="M528 638q-96 20 -203 21q-191 0 -191 -294q0 -279 193 -279q88 0 166 19v217h-186v76h273v-366q-151 -30 -253 -30q-280 0 -280 362q0 377 279 377q111 -2 214 -28zM431 916l-156 -111l-42 52l145 125z" />
    <glyph glyph-name="uni01F5" unicode="&#x1f5;" horiz-adv-x="575" 
d="M154 348q0 -80 113 -80h22q114 0 114 80v24q0 100 -114 100h-22q-113 0 -113 -100v-24zM127 -60q0 -70 160 -70q143 0 143 70v14q-4 64 -102 84l-127 20q-69 -36 -74 -104v-14zM346 111q171 -37 171 -157v-14q0 -147 -230 -147q-247 0 -247 147v14q0 70 87 121
q-47 20 -48 84q1 41 43 84q-52 33 -55 105v24q0 167 200 167h22q72 0 92 -10h153v-53l-74 -5q28 -35 30 -99v-24q0 -147 -201 -147h-22q-41 1 -79 11q-27 -4 -32 -36q3 -34 39 -42zM411 714l-156 -111l-42 52l145 125z" />
    <glyph glyph-name="uni01F8" unicode="&#x1f8;" horiz-adv-x="713" 
d="M169 4v624l311 -592q15 -32 53 -32h69q15 0 15 22v715h-87v-619l-313 596q-11 25 -43 25h-77q-15 0 -15 -24v-715h87zM260 985l144 -129l-42 -52l-156 115z" />
    <glyph glyph-name="uni01F9" unicode="&#x1f9;" horiz-adv-x="558" 
d="M144 539l10 -68q50 77 156 78q185 0 185 -228v-321h-87v321q0 151 -98 151q-106 0 -156 -112v-360h-87v539h77zM208 783l144 -129l-42 -52l-156 115z" />
    <glyph glyph-name="AEacute" unicode="&#x1fc;" horiz-adv-x="828" 
d="M408 285v299q1 40 11 70h-17l-179 -369h185zM574 741q119 0 237 -10v-72h-241q-75 0 -75 -75v-173h254v-82h-254v-170q0 -75 75 -75h241v-72q-120 -10 -241 -10q-160 0 -162 157v49h-222l-100 -206h-89l341 710q11 29 31 29h205zM508 916l-156 -111l-42 52l145 125z" />
    <glyph glyph-name="aeacute" unicode="&#x1fd;" horiz-adv-x="870" 
d="M371 255h-69q-80 0 -121 -12q-59 -15 -61 -85q0 -84 93 -84q92 3 158 94v87zM457 302h235q32 0 32 31q0 134 -113 136h-27q-125 0 -127 -167zM414 121q-79 -117 -201 -119q-180 0 -180 156q3 132 149 162q59 12 120 12h69v20q0 110 -112 110q-79 -4 -156 -34l-24 67
q67 44 180 44q115 0 163 -93q54 100 162 100h27q195 0 200 -213q0 -105 -119 -105h-230q22 -147 152 -147q92 0 171 20l17 -65q-93 -37 -191 -37q-136 0 -197 122zM546 714l-156 -111l-42 52l145 125z" />
    <glyph glyph-name="Oslashacute" unicode="&#x1fe;" horiz-adv-x="663" 
d="M121 74q-74 84 -74 265v69q0 334 254 334h57q75 0 128 -29l31 55l58 -33l-37 -64q74 -83 74 -263v-69q0 -335 -254 -335h-57q-74 0 -127 29l-32 -56l-58 33zM491 588l-276 -483q35 -24 86 -24h57q167 0 167 258v69q0 116 -34 180zM169 158l275 483q-35 24 -86 24h-57
q-167 0 -167 -257v-69q0 -117 35 -181zM450 916l-156 -111l-42 52l145 125z" />
    <glyph glyph-name="oslashacute" unicode="&#x1ff;" horiz-adv-x="587" 
d="M325 460q-14 2 -31 2h-20q-140 0 -140 -180v-27q0 -96 41 -141zM387 432l-153 -351q19 -4 40 -4h20q143 0 143 178v27q0 106 -50 150zM357 533l45 103l62 -27l-43 -98q103 -57 103 -229v-27q0 -255 -230 -255h-20q-39 0 -72 8l-33 -77l-62 27l33 75q-93 59 -93 222v27
q0 257 227 257h20q34 0 63 -6zM418 714l-156 -111l-42 52l145 125z" />
    <glyph glyph-name="uni0200" unicode="&#x200;" horiz-adv-x="630" 
d="M164 208l-68 -206h-89l241 710q11 29 31 29h56q22 0 33 -29l241 -710h-89l-68 206h-288zM427 285l-119 359l-119 -359h238zM181 985l144 -129l-42 -52l-156 115zM344 985l144 -129l-42 -52l-156 115z" />
    <glyph glyph-name="uni0201" unicode="&#x201;" horiz-adv-x="520" 
d="M371 255h-69q-80 0 -121 -12q-59 -15 -61 -85q0 -84 93 -84q92 3 158 94v87zM457 352v-350h-76l-10 79q-63 -77 -158 -79q-180 0 -180 156q3 132 149 162q59 12 120 12h69v20q0 110 -112 110q-79 -4 -156 -34l-24 67q67 44 180 44q198 0 198 -187zM118 783l144 -129
l-42 -52l-156 115zM281 783l144 -129l-42 -52l-156 115z" />
    <glyph glyph-name="uni0204" unicode="&#x204;" horiz-adv-x="544" 
d="M54 159v425q2 157 162 157q141 0 301 -10v-72h-301q-75 0 -75 -75v-173h314v-82h-314v-170q0 -75 75 -75h301v-72q-160 -10 -301 -10q-160 0 -162 157zM159 985l144 -129l-42 -52l-156 115zM322 985l144 -129l-42 -52l-156 115z" />
    <glyph glyph-name="uni0205" unicode="&#x205;" horiz-adv-x="521" 
d="M134 302h235q32 0 32 31q0 134 -113 136h-27q-125 0 -127 -167zM139 228q22 -147 152 -147q92 0 171 20l17 -65q-93 -37 -191 -37q-241 0 -241 297q11 250 214 250h27q195 0 200 -213q0 -105 -119 -105h-230zM141 783l144 -129l-42 -52l-156 115zM304 783l144 -129
l-42 -52l-156 115z" />
    <glyph glyph-name="uni0208" unicode="&#x208;" horiz-adv-x="251" 
d="M169 741v-739h-87v739h87zM-1 985l144 -129l-42 -52l-156 115zM162 985l144 -129l-42 -52l-156 115z" />
    <glyph glyph-name="uni0209" unicode="&#x209;" horiz-adv-x="216" 
d="M153 539v-539h-87v539h87zM-17 783l144 -129l-42 -52l-156 115zM146 783l144 -129l-42 -52l-156 115z" />
    <glyph glyph-name="uni020C" unicode="&#x20c;" horiz-adv-x="659" 
d="M358 0h-57q-254 0 -254 335v73q0 334 254 334h57q254 0 254 -334v-73q0 -335 -254 -335zM134 408v-73q0 -258 167 -258h57q167 0 167 258v73q0 257 -167 257h-57q-167 0 -167 -257zM203 985l144 -129l-42 -52l-156 115zM366 985l144 -129l-42 -52l-156 115z" />
    <glyph glyph-name="uni020D" unicode="&#x20d;" horiz-adv-x="571" 
d="M524 255q0 -255 -230 -255h-20q-227 0 -227 255v27q0 257 227 257h20q230 0 230 -257v-27zM274 462q-140 0 -140 -180v-27q0 -178 140 -178h20q143 0 143 178v27q0 180 -143 180h-20zM159 783l144 -129l-42 -52l-156 115zM322 783l144 -129l-42 -52l-156 115z" />
    <glyph glyph-name="uni0210" unicode="&#x210;" horiz-adv-x="629" 
d="M308 381q182 0 182 140q0 138 -182 138h-139v-278h139zM82 0v741h226q269 0 269 -220q0 -164 -147 -207l161 -314h-98l-154 300q-15 -1 -31 -1h-139v-299h-87zM210 985l144 -129l-42 -52l-156 115zM373 985l144 -129l-42 -52l-156 115z" />
    <glyph glyph-name="uni0211" unicode="&#x211;" horiz-adv-x="412" 
d="M375 454q-30 8 -68 8q-103 -1 -154 -129v-331h-87v537h77l10 -89q51 89 154 89q38 0 83 -21zM101 783l144 -129l-42 -52l-156 115zM264 783l144 -129l-42 -52l-156 115z" />
    <glyph glyph-name="uni0214" unicode="&#x214;" horiz-adv-x="667" 
d="M163 742v-490q0 -175 162 -175h20q167 0 167 175v490h87v-490q0 -252 -254 -252h-20q-249 0 -249 252v490h87zM211 985l144 -129l-42 -52l-156 115zM374 985l144 -129l-42 -52l-156 115z" />
    <glyph glyph-name="uni0215" unicode="&#x215;" horiz-adv-x="551" 
d="M411 0l-10 72q-50 -77 -156 -78q-185 0 -185 228v317h87v-317q0 -151 98 -151q106 0 156 112v356h87v-539h-77zM147 783l144 -129l-42 -52l-156 115zM310 783l144 -129l-42 -52l-156 115z" />
    <glyph glyph-name="uni0218" unicode="&#x218;" horiz-adv-x="586" 
d="M510 648q-102 9 -211 11q-169 0 -169 -110v-37q5 -63 72 -84l181 -32q161 -28 162 -187v-32q-9 -176 -237 -176q-126 2 -254 22l8 68q116 -6 239 -8q154 0 157 94v32q0 87 -85 101l-179 32q-143 25 -151 170v37q0 192 255 192q100 -1 220 -25zM399 -11q-4 -124 -83 -231
l-56 30q43 75 48 201h91z" />
    <glyph glyph-name="uni0219" unicode="&#x219;" horiz-adv-x="484" 
d="M132 376q5 -47 66 -59l113 -14q141 -18 143 -138q0 -162 -165 -162q-149 2 -233 22l9 69q83 -12 224 -14q78 3 78 85q-2 50 -61 58l-113 14q-141 21 -148 139q0 162 175 162q129 -2 203 -22l-10 -70q-72 13 -193 15q-88 -3 -88 -85zM363 -11q-4 -124 -83 -231l-56 30
q43 75 48 201h91z" />
    <glyph glyph-name="uni021A" unicode="&#x21a;" horiz-adv-x="547" 
d="M569 742v-77h-221v-663h-87v663h-239v77h547zM348 -11q-4 -124 -83 -231l-56 30q43 75 48 201h91z" />
    <glyph glyph-name="uni021B" unicode="&#x21b;" horiz-adv-x="369" 
d="M196 677v-138h130v-67h-130v-308q1 -83 54 -83q33 0 64 6l18 -67q-46 -16 -83 -16q-140 0 -140 160v308h-100v67h100v138h87zM274 -11q-4 -124 -83 -231l-56 30q43 75 48 201h91z" />
    <glyph glyph-name="uni0237" unicode="&#x237;" horiz-adv-x="235" 
d="M174 539v-558q0 -186 -218 -193v77q130 0 131 116v558h87z" />
    <glyph glyph-name="uni0259" unicode="&#x259;" horiz-adv-x="521" 
d="M398 234h-235q-32 0 -32 -31q0 -134 113 -136h27q125 0 127 167zM393 308q-22 147 -152 147q-92 0 -171 -20l-17 65q93 37 191 37q241 0 241 -297q-11 -250 -214 -250h-27q-195 0 -200 213q0 105 119 105h230z" />
    <glyph glyph-name="uni02BC" unicode="&#x2bc;" horiz-adv-x="197" 
d="M163 771q-4 -124 -83 -231l-56 30q43 75 48 201h91z" />
    <glyph glyph-name="circumflex" unicode="&#x2c6;" horiz-adv-x="384" 
d="M228 766l129 -141h-80l-75 81l-74 -81h-80l129 141h51z" />
    <glyph glyph-name="caron" unicode="&#x2c7;" horiz-adv-x="391" 
d="M170 625l-132 144h81l77 -83l76 83h82l-132 -144h-52z" />
    <glyph glyph-name="uni02C9" unicode="&#x2c9;" horiz-adv-x="379" 
d="M347 674v-67h-315v67h315z" />
    <glyph glyph-name="breve" unicode="&#x2d8;" horiz-adv-x="441" 
d="M102 713h57q0 -70 62 -70q61 0 61 70h57q0 -133 -118 -133q-119 0 -119 133z" />
    <glyph glyph-name="dotaccent" unicode="&#x2d9;" horiz-adv-x="170" 
d="M30 625v24q0 42 42 42h25q42 0 42 -42v-24q0 -42 -42 -42h-25q-42 0 -42 42z" />
    <glyph glyph-name="ring" unicode="&#x2da;" horiz-adv-x="323" 
d="M161 767q100 0 100 -99q0 -98 -100 -98q-99 0 -99 98q0 99 99 99zM214 668q0 52 -53 52q-52 0 -52 -52q0 -51 52 -51q53 0 53 51z" />
    <glyph glyph-name="ogonek" unicode="&#x2db;" horiz-adv-x="316" 
d="M99 -97q0 -34 32 -34q40 1 90 14l17 -65q-64 -16 -107 -16q-99 0 -99 101q4 97 138 146l20 -56q-91 -29 -91 -90z" />
    <glyph glyph-name="tilde" unicode="&#x2dc;" horiz-adv-x="477" 
d="M428 765q0 -149 -102 -149q-66 0 -111 68q-22 28 -47 28q-40 0 -40 -85h-61q0 146 101 146q66 0 112 -68q22 -28 46 -28q40 0 40 88h62z" />
    <glyph glyph-name="hungarumlaut" unicode="&#x2dd;" horiz-adv-x="500" 
d="M200 714l-156 -111l-42 52l145 125zM356 714l-156 -111l-42 52l145 125z" />
    <glyph glyph-name="uni02F3" unicode="&#x2f3;" horiz-adv-x="49" 
d="M161 -41q100 0 100 -99q0 -98 -100 -98q-99 0 -99 98q0 99 99 99zM214 -140q0 52 -53 52q-52 0 -52 -52q0 -51 52 -51q53 0 53 51z" />
    <glyph glyph-name="gravecomb" unicode="&#x300;" 
d="M-314 783l144 -129l-42 -52l-156 115z" />
    <glyph glyph-name="acutecomb" unicode="&#x301;" 
d="M-154 714l-156 -111l-42 52l145 125z" />
    <glyph glyph-name="uni0302" unicode="&#x302;" 
d="M-259 766l129 -141h-80l-75 81l-74 -81h-80l129 141h51z" />
    <glyph glyph-name="tildecomb" unicode="&#x303;" 
d="M-5 765q0 -149 -102 -149q-66 0 -111 68q-22 28 -47 28q-40 0 -40 -85h-61q0 146 101 146q66 0 112 -68q22 -28 46 -28q40 0 40 88h62z" />
    <glyph glyph-name="uni0304" unicode="&#x304;" 
d="M-66 674v-67h-315v67h315z" />
    <glyph glyph-name="uni0305" unicode="&#x305;" 
d="M862 844v-67h-451v67h451z" />
    <glyph glyph-name="uni0306" unicode="&#x306;" 
d="M-321 713h57q0 -70 62 -70q61 0 61 70h57q0 -133 -118 -133q-119 0 -119 133z" />
    <glyph glyph-name="uni0307" unicode="&#x307;" 
d="M-320 625v24q0 42 42 42h25q42 0 42 -42v-24q0 -42 -42 -42h-25q-42 0 -42 42z" />
    <glyph glyph-name="uni0308" unicode="&#x308;" 
d="M-421 641v23q0 42 42 42h23q42 0 42 -42v-23q0 -42 -42 -42h-23q-42 0 -42 42zM-207 641v23q0 42 42 42h23q42 0 42 -42v-23q0 -42 -42 -42h-23q-42 0 -42 42z" />
    <glyph glyph-name="hookabovecomb" unicode="&#x309;" 
d="M-256 580h-44l-19 92h51q38 0 38 38t-37 38h-54l-6 39q32 8 58 8q96 0 96 -85q0 -75 -75 -75h-14z" />
    <glyph glyph-name="uni030A" unicode="&#x30a;" 
d="M-253 767q100 0 100 -99q0 -98 -100 -98q-99 0 -99 98q0 99 99 99zM-200 668q0 52 -53 52q-52 0 -52 -52q0 -51 52 -51q53 0 53 51z" />
    <glyph glyph-name="uni030B" unicode="&#x30b;" 
d="M-168 714l-156 -111l-42 52l145 125zM-12 714l-156 -111l-42 52l145 125z" />
    <glyph glyph-name="uni030C" unicode="&#x30c;" 
d="M-317 625l-132 144h81l77 -83l76 83h82l-132 -144h-52z" />
    <glyph glyph-name="uni030F" unicode="&#x30f;" 
d="M-330 783l144 -129l-42 -52l-156 115zM-167 783l144 -129l-42 -52l-156 115z" />
    <glyph glyph-name="uni0310" unicode="&#x310;" 
d="M-471 713h57q0 -70 62 -70q61 0 61 70h57q0 -133 -118 -133q-119 0 -119 133zM-407 705v24q0 42 42 42h25q42 0 42 -42v-24q0 -42 -42 -42h-25q-42 0 -42 42z" />
    <glyph glyph-name="uni0311" unicode="&#x311;" 
d="M-102 566h-57q0 70 -62 70q-61 0 -61 -70h-57q0 133 118 133q119 0 119 -133z" />
    <glyph glyph-name="uni031B" unicode="&#x31b;" 
d="M6 665q-4 -124 -83 -231l-56 30q43 75 48 201h91z" />
    <glyph glyph-name="dotbelowcomb" unicode="&#x323;" 
d="M-295 -131v24q0 42 42 42h25q42 0 42 -42v-24q0 -42 -42 -42h-25q-42 0 -42 42z" />
    <glyph glyph-name="uni0324" unicode="&#x324;" 
d="M-387 -156v23q0 42 42 42h23q42 0 42 -42v-23q0 -42 -42 -42h-23q-42 0 -42 42zM-173 -156v23q0 42 42 42h23q42 0 42 -42v-23q0 -42 -42 -42h-23q-42 0 -42 42z" />
    <glyph glyph-name="uni0325" unicode="&#x325;" 
d="M-214 -1q100 0 100 -99q0 -98 -100 -98q-99 0 -99 98q0 99 99 99zM-161 -100q0 52 -53 52q-52 0 -52 -52q0 -51 52 -51q53 0 53 51z" />
    <glyph glyph-name="uni0326" unicode="&#x326;" horiz-adv-x="42" 
d="M-129 -11q-4 -124 -83 -231l-56 30q43 75 48 201h91z" />
    <glyph glyph-name="uni0327" unicode="&#x327;" 
d="M-239 -12h20q95 0 95 -95t-95 -95l-91 12l8 42l84 -7q37 0 37 48t-38 48h-45q-46 0 -31 41l14 41h56z" />
    <glyph glyph-name="uni0328" unicode="&#x328;" 
d="M-109 -97q0 -34 32 -34q40 1 90 14l17 -65q-64 -16 -107 -16q-99 0 -99 101q4 97 138 146l20 -56q-91 -29 -91 -90z" />
    <glyph glyph-name="uni032C" unicode="&#x32c;" 
d="M-302 -177l-132 144h81l77 -83l76 83h82l-132 -144h-52z" />
    <glyph glyph-name="uni032D" unicode="&#x32d;" 
d="M-244 -36l129 -141h-80l-75 81l-74 -81h-80l129 141h51z" />
    <glyph glyph-name="uni032E" unicode="&#x32e;" 
d="M-321 -84h57q0 -70 62 -70q61 0 61 70h57q0 -133 -118 -133q-119 0 -119 133z" />
    <glyph glyph-name="uni032F" unicode="&#x32f;" 
d="M-84 -197h-57q0 70 -62 70q-61 0 -61 -70h-57q0 133 118 133q119 0 119 -133z" />
    <glyph glyph-name="uni0330" unicode="&#x330;" 
d="M-5 -32q0 -149 -102 -149q-66 0 -111 68q-22 28 -47 28q-40 0 -40 -85h-61q0 146 101 146q66 0 112 -68q22 -28 46 -28q40 0 40 88h62z" />
    <glyph glyph-name="uni0331" unicode="&#x331;" 
d="M-66 -52v-67h-315v67h315z" />
    <glyph glyph-name="uni0332" unicode="&#x332;" 
d="M-49 -7v-67h-451v67h451z" />
    <glyph glyph-name="uni0333" unicode="&#x333;" 
d="M-49 -74v-67h-451v67h451zM-49 -7v-67h-451v67h451z" />
    <glyph glyph-name="uni0334" unicode="&#x334;" 
d="M-61 479q0 -149 -102 -149q-66 0 -111 68q-22 28 -47 28q-40 0 -40 -85h-61q0 146 101 146q66 0 112 -68q22 -28 46 -28q40 0 40 88h62z" />
    <glyph glyph-name="uni0352" unicode="&#x352;" 
d="M-257 625v24q0 42 42 42h25q42 0 42 -42v-24q0 -42 -42 -42h-25q-42 0 -42 42zM-84 749h-57q0 70 -62 70q-61 0 -61 -70h-57q0 133 118 133q119 0 119 -133z" />
    <glyph glyph-name="uni0370" unicode="&#x370;" horiz-adv-x="592" 
d="M169 424h392v-73h-392v-317h-87v707h87v-317z" />
    <glyph glyph-name="uni0371" unicode="&#x371;" horiz-adv-x="484" 
d="M194 308h262v-77h-262v-231h-87v406q0 56 -61 56h-41v77h41q148 0 148 -133v-98z" />
    <glyph glyph-name="uni0372" unicode="&#x372;" horiz-adv-x="657" 
d="M372 664v-663h-87v663h-163v-183h-87v260h587v-260h-87v183h-163z" />
    <glyph glyph-name="uni0373" unicode="&#x373;" horiz-adv-x="497" 
d="M292 664v-663h-87v663h-26q-67 0 -67 -86v-57h-87v57q0 163 154 163h293v-200h-87v123h-93z" />
    <glyph glyph-name="uni0374" unicode="&#x374;" horiz-adv-x="295" 
d="M250 742l-73 -141h-86l68 141h91z" />
    <glyph glyph-name="uni0375" unicode="&#x375;" horiz-adv-x="295" 
d="M45 -195l73 141h86l-68 -141h-91z" />
    <glyph glyph-name="uni0376" unicode="&#x376;" horiz-adv-x="699" 
d="M530 3v624l-311 -592q-15 -32 -53 -32h-69q-15 0 -15 22v715h87v-619l313 596q11 25 43 25h77q15 0 15 -24v-715h-87z" />
    <glyph glyph-name="uni0377" unicode="&#x377;" horiz-adv-x="606" 
d="M428 424h-7l-224 -392q-20 -32 -33 -32h-79q-15 0 -15 22v515h87v-419h7l226 396q16 25 33 25h77q15 0 15 -24v-344q0 -114 91 -114v-57q-178 0 -178 171v253z" />
    <glyph glyph-name="uni037A" unicode="&#x37a;" horiz-adv-x="291" 
d="M100 -195l8 141h76l7 -141h-91z" />
    <glyph glyph-name="uni037B" unicode="&#x37b;" horiz-adv-x="503" 
d="M455 269q0 271 -223 271q-101 -2 -199 -29l13 -67q92 14 183 14q139 0 139 -189t-139 -189q-91 0 -183 14l-13 -67q98 -27 199 -29q223 0 223 271z" />
    <glyph glyph-name="uni037C" unicode="&#x37c;" horiz-adv-x="503" 
d="M47 269q0 271 223 271q101 -2 199 -29l-13 -67q-92 14 -183 14q-139 0 -139 -189t139 -189q91 0 183 14l13 -67q-98 -27 -199 -29q-223 0 -223 271zM204 258v24q0 42 42 42h25q42 0 42 -42v-24q0 -42 -42 -42h-25q-42 0 -42 42z" />
    <glyph glyph-name="uni037D" unicode="&#x37d;" horiz-adv-x="503" 
d="M469 269q0 271 -223 271q-101 -2 -199 -29l13 -67q92 14 183 14q139 0 139 -189t-139 -189q-91 0 -183 14l-13 -67q98 -27 199 -29q223 0 223 271zM312 258v24q0 42 -42 42h-25q-42 0 -42 -42v-24q0 -42 42 -42h25q42 0 42 42z" />
    <glyph glyph-name="uni037F" unicode="&#x37f;" horiz-adv-x="413" 
d="M319 742v-525q0 -217 -173 -217q-53 0 -126 10l10 71h116q86 0 86 136v525h87z" />
    <glyph glyph-name="tonos" unicode="&#x384;" horiz-adv-x="223" 
d="M190 760l-70 -164l-61 21l38 166z" />
    <glyph glyph-name="dieresistonos" unicode="&#x385;" horiz-adv-x="417" 
d="M47 641v23q0 42 42 42h23q42 0 42 -42v-23q0 -42 -42 -42h-23q-42 0 -42 42zM261 641v23q0 42 42 42h23q42 0 42 -42v-23q0 -42 -42 -42h-23q-42 0 -42 42zM299 810l-70 -164l-61 21l38 166z" />
    <glyph glyph-name="Alphatonos" unicode="&#x386;" horiz-adv-x="630" 
d="M199 760l-70 -164l-61 21l38 166zM169 208l-68 -206h-89l241 710q11 29 31 29h56q22 0 33 -29l241 -710h-89l-68 206h-288zM432 285l-119 359l-119 -359h238z" />
    <glyph glyph-name="anoteleia" unicode="&#x387;" horiz-adv-x="170" 
d="M24.2002 334.403v28.7998q0 50.4014 50.4004 50.4014h30.001q50.4004 0 50.4004 -50.4014v-28.7998q0 -50.4004 -50.4004 -50.4004h-30.001q-50.4004 0 -50.4004 50.4004z" />
    <glyph glyph-name="Epsilontonos" unicode="&#x388;" horiz-adv-x="680" 
d="M120 760l-70 -164l-61 21l38 166zM144 159v425q2 157 162 157q141 0 301 -10v-72h-301q-75 0 -75 -75v-173h314v-82h-314v-170q0 -75 75 -75h301v-72q-160 -10 -301 -10q-160 0 -162 157z" />
    <glyph glyph-name="Etatonos" unicode="&#x389;" horiz-adv-x="713" 
d="M120 760l-70 -164l-61 21l38 166zM234 328v-324h-87v737h87v-326h345v326h87v-739h-87v326h-345z" />
    <glyph glyph-name="Iotatonos" unicode="&#x38a;" horiz-adv-x="281" 
d="M120 760l-70 -164l-61 21l38 166zM244 741v-739h-87v739h87z" />
    <glyph glyph-name="Omicrontonos" unicode="&#x38c;" horiz-adv-x="731" 
d="M130 760l-70 -164l-61 21l38 166zM418 0h-57q-254 0 -254 335v73q0 334 254 334h57q254 0 254 -334v-73q0 -335 -254 -335zM194 408v-73q0 -258 167 -258h57q167 0 167 258v73q0 257 -167 257h-57q-167 0 -167 -257z" />
    <glyph glyph-name="Upsilontonos" unicode="&#x38e;" horiz-adv-x="706" 
d="M120 760l-70 -164l-61 21l38 166zM220 741l174 -334l14 -36l14 36l174 334h102l-247 -458v-281h-87v281l-247 458h103z" />
    <glyph glyph-name="Omegatonos" unicode="&#x38f;" horiz-adv-x="669" 
d="M120 760l-70 -164l-61 21l38 166zM266 4h-211v77h95q-98 44 -98 258v69q0 334 254 334h57q254 0 254 -334v-69q0 -214 -98 -258h95v-77h-211v77q127 40 127 258v69q0 257 -167 257h-57q-167 0 -167 -257v-69q0 -218 127 -258v-77z" />
    <glyph glyph-name="iotadieresistonos" unicode="&#x390;" horiz-adv-x="277" 
d="M183 539v-379q0 -83 59 -83q10 0 43 3l10 -72q-34 -8 -53 -8q-146 0 -146 160v379h87zM-18 641v23q0 42 42 42h23q42 0 42 -42v-23q0 -42 -42 -42h-23q-42 0 -42 42zM196 641v23q0 42 42 42h23q42 0 42 -42v-23q0 -42 -42 -42h-23q-42 0 -42 42zM234 810l-70 -164l-61 21
l38 166z" />
    <glyph glyph-name="Alpha" unicode="&#x391;" horiz-adv-x="630" 
d="M169 208l-68 -206h-89l241 710q11 29 31 29h56q22 0 33 -29l241 -710h-89l-68 206h-288zM432 285l-119 359l-119 -359h238z" />
    <glyph glyph-name="Beta" unicode="&#x392;" horiz-adv-x="610" 
d="M63 742h241q224 0 224 -193q0 -129 -109 -166q141 -40 141 -187q0 -196 -256 -196h-241v742zM150 343v-266h154q169 0 169 119q0 147 -179 147h-144zM150 665v-245h144q147 0 147 129q0 116 -137 116h-154z" />
    <glyph glyph-name="Gamma" unicode="&#x393;" horiz-adv-x="585" 
d="M555 656l-310 8q-76 0 -76 -75v-587h-87v587q2 152 163 152l310 -8v-77z" />
    <glyph glyph-name="uni0394" unicode="&#x394;" horiz-adv-x="688" 
d="M640 0h-592q-32 0 -32 23q0 9 5 22l264 672q11 24 35 24h48q24 0 34 -24l265 -672q5 -13 5 -22q0 -23 -32 -23zM557 77l-213 553l-213 -553h426z" />
    <glyph glyph-name="Epsilon" unicode="&#x395;" horiz-adv-x="544" 
d="M54 159v425q2 157 162 157q141 0 301 -10v-72h-301q-75 0 -75 -75v-173h314v-82h-314v-170q0 -75 75 -75h301v-72q-160 -10 -301 -10q-160 0 -162 157z" />
    <glyph glyph-name="Zeta" unicode="&#x396;" horiz-adv-x="590" 
d="M547 737v-52l-387 -608h389v-77h-503v52l387 608h-385v77h499z" />
    <glyph glyph-name="Eta" unicode="&#x397;" horiz-adv-x="696" 
d="M169 328v-324h-87v737h87v-326h345v326h87v-739h-87v326h-345z" />
    <glyph glyph-name="Theta" unicode="&#x398;" horiz-adv-x="675" 
d="M363 0h-57q-254 0 -254 335v73q0 334 254 334h57q254 0 254 -334v-73q0 -335 -254 -335zM139 408v-73q0 -258 167 -258h57q167 0 167 258v73q0 257 -167 257h-57q-167 0 -167 -257zM466.808 405v-67h-264.606v67h264.606z" />
    <glyph glyph-name="Iota" unicode="&#x399;" horiz-adv-x="251" 
d="M169 741v-739h-87v739h87z" />
    <glyph glyph-name="Kappa" unicode="&#x39a;" horiz-adv-x="630" 
d="M169 741v-369l311 369h118l-271 -316l289 -425h-105l-254 353l-88 -99v-254h-87v741h87z" />
    <glyph glyph-name="Lambda" unicode="&#x39b;" horiz-adv-x="622" 
d="M311 644l-212 -642h-89l241 710q11 29 31 29h56q22 0 33 -29l241 -710h-89z" />
    <glyph glyph-name="Mu" unicode="&#x39c;" horiz-adv-x="857" 
d="M422 0q-44 0 -59 32l-192 606v-638h-87v719q0 24 15 24h87q32 0 43 -25l199 -638l198 638q11 25 43 25h87q15 0 15 -24v-719h-87v638l-192 -606q-15 -32 -59 -32h-11z" />
    <glyph glyph-name="Nu" unicode="&#x39d;" horiz-adv-x="700" 
d="M170 4v624l311 -592q15 -32 53 -32h69q15 0 15 22v715h-87v-619l-313 596q-11 25 -43 25h-77q-15 0 -15 -24v-715h87z" />
    <glyph glyph-name="Xi" unicode="&#x39e;" horiz-adv-x="586" 
d="M50 77h486v-77h-486v77zM72 741h443v-77h-443v77zM99 400h388v-77h-388v77z" />
    <glyph glyph-name="Omicron" unicode="&#x39f;" horiz-adv-x="675" 
d="M363 0h-57q-254 0 -254 335v73q0 334 254 334h57q254 0 254 -334v-73q0 -335 -254 -335zM139 408v-73q0 -258 167 -258h57q167 0 167 258v73q0 257 -167 257h-57q-167 0 -167 -257z" />
    <glyph glyph-name="Pi" unicode="&#x3a0;" horiz-adv-x="708" 
d="M628 0h-87v664h-374v-664h-87v741h548v-741z" />
    <glyph glyph-name="Rho" unicode="&#x3a1;" horiz-adv-x="617" 
d="M298 376q182 0 182 145q0 143 -182 143h-139v-288h139zM298 299h-139v-299h-87v741h226q269 0 269 -220q0 -222 -269 -222z" />
    <glyph glyph-name="Sigma" unicode="&#x3a3;" horiz-adv-x="601" 
d="M59 112l247 258l-234 264q-26 30 -26 59q0 48 40 48h459v-77h-392l261 -294l-280 -293h431v-77h-486q-46 0 -46 52q0 32 26 60z" />
    <glyph glyph-name="Tau" unicode="&#x3a4;" horiz-adv-x="567" 
d="M568 742v-77h-221v-663h-87v663h-239v77h547z" />
    <glyph glyph-name="Upsilon" unicode="&#x3a5;" horiz-adv-x="564" 
d="M105 741l174 -334l14 -36l14 36l174 334h102l-247 -458v-281h-87v281l-247 458h103z" />
    <glyph glyph-name="Phi" unicode="&#x3a6;" horiz-adv-x="709" 
d="M311 554h-10q-157 0 -157 -147v-69q0 -148 157 -148h10v364zM398 554v-364h10q157 0 157 148v69q0 147 -157 147h-10zM311 631v110h87v-110h10q244 0 244 -224v-69q0 -225 -244 -225h-10v-111h-87v111h-10q-244 0 -244 225v69q0 224 244 224h10z" />
    <glyph glyph-name="Chi" unicode="&#x3a7;" horiz-adv-x="615" 
d="M310 325l-24 -42l-164 -284h-100l214 370l-215 371h100l165 -285l25 -43h5l25 43l165 285h100l-215 -371l214 -370h-100l-164 284l-24 42h-7z" />
    <glyph glyph-name="Psi" unicode="&#x3a8;" horiz-adv-x="696" 
d="M305 235q-228 1 -228 262v245h87v-245q0 -184 141 -185v429h87v-429q141 3 141 185v245h87v-245q0 -259 -228 -262v-233h-87v233z" />
    <glyph glyph-name="uni03A9" unicode="&#x3a9;" horiz-adv-x="669" 
d="M266 4h-211v77h95q-98 44 -98 258v69q0 334 254 334h57q254 0 254 -334v-69q0 -214 -98 -258h95v-77h-211v77q127 40 127 258v69q0 257 -167 257h-57q-167 0 -167 -257v-69q0 -218 127 -258v-77z" />
    <glyph glyph-name="Iotadieresis" unicode="&#x3aa;" horiz-adv-x="251" 
d="M169 741v-739h-87v739h87zM-42 843v23q0 42 42 42h23q42 0 42 -42v-23q0 -42 -42 -42h-23q-42 0 -42 42zM172 843v23q0 42 42 42h23q42 0 42 -42v-23q0 -42 -42 -42h-23q-42 0 -42 42z" />
    <glyph glyph-name="Upsilondieresis" unicode="&#x3ab;" horiz-adv-x="564" 
d="M105 741l174 -334l14 -36l14 36l174 334h102l-247 -458v-281h-87v281l-247 458h103zM125 843v23q0 42 42 42h23q42 0 42 -42v-23q0 -42 -42 -42h-23q-42 0 -42 42zM339 843v23q0 42 42 42h23q42 0 42 -42v-23q0 -42 -42 -42h-23q-42 0 -42 42z" />
    <glyph glyph-name="alphatonos" unicode="&#x3ac;" horiz-adv-x="602" 
d="M61 257v25q0 257 210 257q119 0 173 -115l11 115l77 -3l-37 -252q11 -44 41 -178q5 -29 52 -29l-4 -73q-115 0 -132 147q-66 -151 -181 -151q-210 0 -210 257zM147 282v-25q0 -180 124 -180q129 0 150 209q-24 178 -150 178q-124 0 -124 -182zM423 760l-70 -164l-61 21
l38 166z" />
    <glyph glyph-name="epsilontonos" unicode="&#x3ad;" horiz-adv-x="514" 
d="M197 230q-52 0 -52 -69q0 -85 144 -85q95 1 170 29l25 -68q-99 -37 -195 -38q-231 0 -231 162q0 93 74 109q-67 14 -67 101q0 169 224 169q96 -1 180 -28l-24 -70q-60 20 -156 21q-137 0 -137 -92q0 -64 45 -64h193v-77h-193zM358 760l-70 -164l-61 21l38 166z" />
    <glyph glyph-name="etatonos" unicode="&#x3ae;" horiz-adv-x="555" 
d="M143 539l10 -68q50 77 156 78q185 0 185 -228v-486h-87v486q0 151 -98 151q-106 0 -156 -112v-356h-87v535h77zM390 760l-70 -164l-61 21l38 166z" />
    <glyph glyph-name="iotatonos" unicode="&#x3af;" horiz-adv-x="277" 
d="M177 539v-379q0 -83 59 -83q10 0 43 3l10 -72q-34 -8 -53 -8q-146 0 -146 160v379h87zM228 760l-70 -164l-61 21l38 166z" />
    <glyph glyph-name="upsilondieresistonos" unicode="&#x3b0;" horiz-adv-x="563" 
d="M396 539h87q15 -186 15 -352q0 -187 -211 -187q-220 0 -220 187v352h87v-352q0 -110 133 -110q124 0 124 110q0 166 -15 352zM122 641v23q0 42 42 42h23q42 0 42 -42v-23q0 -42 -42 -42h-23q-42 0 -42 42zM336 641v23q0 42 42 42h23q42 0 42 -42v-23q0 -42 -42 -42h-23
q-42 0 -42 42zM374 810l-70 -164l-61 21l38 166z" />
    <glyph glyph-name="alpha" unicode="&#x3b1;" horiz-adv-x="602" 
d="M61 257v25q0 257 210 257q119 0 173 -115l11 115l77 -3l-37 -252q11 -44 41 -178q5 -29 52 -29l-4 -73q-115 0 -132 147q-66 -151 -181 -151q-210 0 -210 257zM147 282v-25q0 -180 124 -180q129 0 150 209q-24 178 -150 178q-124 0 -124 -182z" />
    <glyph glyph-name="beta" unicode="&#x3b2;" horiz-adv-x="569" 
d="M172 129q81 -36 161 -36q114 0 114 154q-10 118 -132 128h-83v77h53q112 0 112 132q0 101 -115 101q-110 0 -110 -101v-455zM172 47v-213h-87v750q0 178 197 178q202 0 202 -178q0 -146 -85 -167q125 -27 135 -170q0 -231 -201 -231q-75 0 -161 31z" />
    <glyph glyph-name="gamma" unicode="&#x3b3;" horiz-adv-x="510" 
d="M211 0l-189 538h89l146 -447q94 201 143 447h88q-56 -269 -189 -538v-216h-88v216z" />
    <glyph glyph-name="delta" unicode="&#x3b4;" horiz-adv-x="548" 
d="M260 509q-129 -77 -130 -238q1 -81 34 -137.5t110 -56.5t110 56.5t34 137.5q-1 91 -33.5 150t-120.5 87q-2 1 -4 1zM193 531q-110 32 -110 125q0 129 159 129h197v-77h-197q-72 0 -72 -52q0 -54 94 -74q117 -25 178.5 -103t62.5 -208q-1 -130 -57.5 -200.5t-173.5 -70.5
t-173.5 70.5t-57.5 200.5q1 161 150 260z" />
    <glyph glyph-name="epsilon" unicode="&#x3b5;" horiz-adv-x="514" 
d="M197 230q-52 0 -52 -69q0 -85 144 -85q95 1 170 29l25 -68q-99 -37 -195 -38q-231 0 -231 162q0 93 74 109q-67 14 -67 101q0 169 224 169q96 -1 180 -28l-24 -70q-60 20 -156 21q-137 0 -137 -92q0 -64 45 -64h193v-77h-193z" />
    <glyph glyph-name="zeta" unicode="&#x3b6;" horiz-adv-x="507" 
d="M389 693h-357v77h475v-61l-291 -378q-57 -88 -57 -119q0 -115 131 -153q146 -37 149 -149q-2 -40 -40 -77l-49 13q13 38 13 64q0 55 -100 80q-191 50 -191 222q0 69 49 133z" />
    <glyph glyph-name="eta" unicode="&#x3b7;" horiz-adv-x="555" 
d="M146 539l10 -68q50 77 156 78q185 0 185 -228v-486h-87v486q0 151 -98 151q-106 0 -156 -112v-356h-87v535h77z" />
    <glyph glyph-name="theta" unicode="&#x3b8;" horiz-adv-x="586" 
d="M441 409q-4 255 -136 255h-14q-142 -1 -146 -255h296zM145 332q4 -255 146 -255h14q133 0 136 255h-296zM305 0h-14q-233 0 -233 370q0 371 233 371h14q223 0 223 -371q0 -370 -223 -370z" />
    <glyph glyph-name="iota" unicode="&#x3b9;" horiz-adv-x="277" 
d="M159 539v-379q0 -83 59 -83q10 0 43 3l10 -72q-34 -8 -53 -8q-146 0 -146 160v379h87z" />
    <glyph glyph-name="kappa" unicode="&#x3ba;" horiz-adv-x="528" 
d="M152 305l154 169q62 65 126 68h74v-81h-54q-41 0 -91 -51l-92 -91l241 -319h-105l-197 257l-56 -64v-193h-87v539h87v-234z" />
    <glyph glyph-name="lambda" unicode="&#x3bb;" horiz-adv-x="528" 
d="M111 754q139 -8 216 -217l184 -537h-93l-147 450q-2 0 -8 -24l-139 -426h-93l165 481q21 56 42 56q-45 139 -127 139h-42v78h42z" />
    <glyph glyph-name="uni03BC" unicode="&#x3bc;" horiz-adv-x="561" 
d="M66 535h87v-317q0 -151 98 -151q106 0 156 112v361h87v-540h-77l-10 68q-50 -77 -156 -78q-58 0 -98 43v-233h-87v735z" />
    <glyph glyph-name="nu" unicode="&#x3bd;" horiz-adv-x="530" 
d="M187 41l-166 498h93l151 -462l151 462h93l-166 -498q-18 -41 -78 -41t-78 41z" />
    <glyph glyph-name="xi" unicode="&#x3be;" horiz-adv-x="531" 
d="M402 -112q0 74 -116 102q-241 20 -241 262q0 173 124 189q-77 14 -77 151q0 169 204 169q106 -1 200 -28l-19 -73q-75 23 -181 24q-117 0 -117 -92q0 -114 65 -114h153v-77h-153q-112 0 -112 -149q0 -165 154 -185q188 -28 192 -179q-2 -40 -40 -77l-55 31q19 20 19 46z
" />
    <glyph glyph-name="omicron" unicode="&#x3bf;" horiz-adv-x="547" 
d="M520 255q0 -255 -230 -255h-20q-227 0 -227 255v27q0 257 227 257h20q230 0 230 -257v-27zM270 462q-140 0 -140 -180v-27q0 -178 140 -178h20q143 0 143 178v27q0 180 -143 180h-20z" />
    <glyph glyph-name="pi" unicode="&#x3c0;" horiz-adv-x="614" 
d="M220 462v-462h-87v462h-103v77h565v-77h-103v-342q0 -43 54 -43h53v-77h-53q-141 0 -141 120v342h-185z" />
    <glyph glyph-name="rho" unicode="&#x3c1;" horiz-adv-x="536" 
d="M141 -202h-87v470q1 271 231 271q210 0 210 -271q0 -268 -210 -268q-77 0 -144 79v-281zM141 165q67 -90 144 -90q124 0 124 193q0 194 -124 194q-143 0 -144 -194v-103z" />
    <glyph glyph-name="sigma1" unicode="&#x3c2;" horiz-adv-x="544" 
d="M468 -90q-2 -40 -52 -90l-47 21q23 43 23 69q0 65 -100 80q-231 20 -231 302q0 243 199 251q117 0 223 -40l-22 -70q-84 33 -201 33q-112 -10 -112 -174q0 -205 144 -225q173 -15 176 -157z" />
    <glyph glyph-name="sigma" unicode="&#x3c3;" horiz-adv-x="582" 
d="M431 462q69 -15 69 -170v-47q0 -245 -220 -245h-20q-217 0 -217 245v47q0 246 216 247h313v-77h-141zM260 462q-130 0 -130 -170v-47q0 -168 130 -168h20q133 0 133 168v47q0 170 -133 170h-20z" />
    <glyph glyph-name="tau" unicode="&#x3c4;" horiz-adv-x="527" 
d="M507 539v-77h-208v-292q0 -93 89 -93q25 2 42 8l8 -75q-25 -8 -50 -10q-176 0 -176 170v292h-192v77h487z" />
    <glyph glyph-name="upsilon" unicode="&#x3c5;" horiz-adv-x="563" 
d="M397 539h87q15 -186 15 -352q0 -187 -211 -187q-220 0 -220 187v352h87v-352q0 -110 133 -110q124 0 124 110q0 166 -15 352z" />
    <glyph glyph-name="phi" unicode="&#x3c6;" horiz-adv-x="649" 
d="M373 78q163 9 163 184q0 200 -83 200q-80 0 -80 -170v-214zM373 -202h-87v206q-40 5 -73 17q-147 54 -147 241q0 277 167 277v-77q-80 0 -80 -200q0 -119 83 -162q22 -11 50 -17v209q0 247 167 247q170 0 170 -277q0 -252 -250 -262v-202z" />
    <glyph glyph-name="chi" unicode="&#x3c7;" horiz-adv-x="540" 
d="M264 136l-152 -317h-99l177 362l-175 358h99l152 -316h8l152 316h99l-175 -358l177 -362h-99l-152 317h-12z" />
    <glyph glyph-name="psi" unicode="&#x3c8;" horiz-adv-x="691" 
d="M393 77q145 3 145 140q0 136 -20 322h87q20 -186 20 -322q0 -214 -232 -217v-200h-87v200q-232 7 -232 217v322h87v-322q0 -134 145 -140v462h87v-462z" />
    <glyph glyph-name="omega" unicode="&#x3c9;" horiz-adv-x="775" 
d="M388 86q-35 -86 -137 -86q-191 0 -191 247q0 106 70 292h87q-70 -186 -70 -292q0 -170 104 -170q93 0 93 110v156h87v-156q0 -110 93 -110q104 0 104 170q0 106 -70 292h87q70 -186 70 -292q0 -247 -191 -247q-102 0 -136 86z" />
    <glyph glyph-name="iotadieresis" unicode="&#x3ca;" horiz-adv-x="288" 
d="M177 539v-379q0 -83 59 -83q10 0 43 3l10 -72q-34 -8 -53 -8q-146 0 -146 160v379h87zM-33 641v23q0 42 42 42h23q42 0 42 -42v-23q0 -42 -42 -42h-23q-42 0 -42 42zM181 641v23q0 42 42 42h23q42 0 42 -42v-23q0 -42 -42 -42h-23q-42 0 -42 42z" />
    <glyph glyph-name="upsilondieresis" unicode="&#x3cb;" horiz-adv-x="539" 
d="M396 539h87q15 -186 15 -352q0 -187 -211 -187q-220 0 -220 187v352h87v-352q0 -110 133 -110q124 0 124 110q0 166 -15 352zM120 641v23q0 42 42 42h23q42 0 42 -42v-23q0 -42 -42 -42h-23q-42 0 -42 42zM334 641v23q0 42 42 42h23q42 0 42 -42v-23q0 -42 -42 -42h-23
q-42 0 -42 42z" />
    <glyph glyph-name="omicrontonos" unicode="&#x3cc;" horiz-adv-x="547" 
d="M520 255q0 -255 -230 -255h-20q-227 0 -227 255v27q0 257 227 257h20q230 0 230 -257v-27zM270 462q-140 0 -140 -180v-27q0 -178 140 -178h20q143 0 143 178v27q0 180 -143 180h-20zM382 760l-70 -164l-61 21l38 166z" />
    <glyph glyph-name="upsilontonos" unicode="&#x3cd;" horiz-adv-x="539" 
d="M396 539h87q15 -186 15 -352q0 -187 -211 -187q-220 0 -220 187v352h87v-352q0 -110 133 -110q124 0 124 110q0 166 -15 352zM368 760l-70 -164l-61 21l38 166z" />
    <glyph glyph-name="omegatonos" unicode="&#x3ce;" horiz-adv-x="785" 
d="M403 86q-35 -86 -137 -86q-191 0 -191 247q0 106 70 292h87q-70 -186 -70 -292q0 -170 104 -170q93 0 93 110v156h87v-156q0 -110 93 -110q104 0 104 170q0 106 -70 292h87q70 -186 70 -292q0 -247 -191 -247q-102 0 -136 86zM508 760l-70 -164l-61 21l38 166z" />
    <glyph glyph-name="uni03CF" unicode="&#x3cf;" horiz-adv-x="629" 
d="M616 0l-209 -196l-54 55l155 146l-251 348l-88 -99v-254h-87v741h87v-369l311 369h118l-271 -316z" />
    <glyph glyph-name="uni03D0" unicode="&#x3d0;" horiz-adv-x="579" 
d="M167 191q0 -114 139 -114q129 0 129 114q0 143 -129 143q-77 0 -139 -90v-53zM167 614v-55h37q86 0 86 55q0 60 -63 60q-60 0 -60 -60zM80 614q0 127 147 127q150 0 150 -127q0 -122 -173 -122h-37v-162q62 79 139 79q215 0 215 -218q0 -191 -215 -191q-226 0 -226 191
v423z" />
    <glyph glyph-name="theta1" unicode="&#x3d1;" horiz-adv-x="621" 
d="M504 409h103v-77h-103v-115q0 -217 -211 -217q-220 0 -220 217v182h87v-182q0 -140 133 -140q124 0 124 140v115h-10q-210 0 -210 262q0 187 150 187q157 0 157 -187v-185zM417 409v185q0 110 -70 110q-63 0 -63 -110q0 -185 123 -185h10z" />
    <glyph glyph-name="Upsilon1" unicode="&#x3d2;" horiz-adv-x="566" 
d="M327 2h-88v261l-131 355q-22 53 -77 53q-15 0 -32 -6l-9 76q36 11 66 11q103 0 132 -93l81 -242l14 -36l14 36l81 242q29 93 132 93q30 0 66 -11l-9 -76q-17 6 -32 6q-55 0 -77 -53l-131 -355v-261z" />
    <glyph glyph-name="uni03D3" unicode="&#x3d3;" horiz-adv-x="752" 
d="M150 760l-70 -164l-61 21l38 166zM504 2h-88v261l-131 355q-22 53 -77 53q-15 0 -32 -6l-9 76q36 11 66 11q103 0 132 -93l81 -242l14 -36l14 36l81 242q29 93 132 93q30 0 66 -11l-9 -76q-17 6 -32 6q-55 0 -77 -53l-131 -355v-261z" />
    <glyph glyph-name="uni03D4" unicode="&#x3d4;" horiz-adv-x="566" 
d="M327 2h-88v261l-131 355q-22 53 -77 53q-15 0 -32 -6l-9 76q36 11 66 11q103 0 132 -93l81 -242l14 -36l14 36l81 242q29 93 132 93q30 0 66 -11l-9 -76q-17 6 -32 6q-55 0 -77 -53l-131 -355v-261zM124 843v23q0 42 42 42h23q42 0 42 -42v-23q0 -42 -42 -42h-23
q-42 0 -42 42zM338 843v23q0 42 42 42h23q42 0 42 -42v-23q0 -42 -42 -42h-23q-42 0 -42 42z" />
    <glyph glyph-name="phi1" unicode="&#x3d5;" horiz-adv-x="639" 
d="M271 464h-10q-117 0 -117 -167v-49q0 -168 117 -168h10v384zM368 464v-384h10q117 0 117 168v49q0 167 -117 167h-10zM271 541v200h97v-200h10q204 0 204 -244v-49q0 -245 -204 -245h-10v-201h-97v201h-10q-204 0 -204 245v49q0 244 204 244h10z" />
    <glyph glyph-name="omega1" unicode="&#x3d6;" horiz-adv-x="767" 
d="M668 462q43 -132 43 -215q0 -247 -191 -247q-102 0 -136 86q-35 -86 -137 -86q-191 0 -191 247q0 83 43 215h-85v77h739v-77h-85zM186 462q-43 -132 -43 -215q0 -170 104 -170q93 0 93 110v156h87v-156q0 -110 93 -110q104 0 104 170q0 83 -43 215h-395z" />
    <glyph glyph-name="uni03D7" unicode="&#x3d7;" horiz-adv-x="554" 
d="M533 74l2 -129q0 -137 -150 -137v77q63 0 63 60v63q-75 25 -75 124v188l-251 -320h-93l85 109v298q0 58 -55 58h-28l-2 74h30q142 0 142 -132v-187l250 319h94l-85 -108v-299q0 -58 45 -58h28z" />
    <glyph glyph-name="uni03D8" unicode="&#x3d8;" horiz-adv-x="675" 
d="M353 0h-57q-254 0 -254 335v73q0 334 254 334h57q254 0 254 -334v-73q0 -335 -254 -335zM129 408v-73q0 -258 167 -258h57q167 0 167 258v73q0 257 -167 257h-57q-167 0 -167 -257zM381 74v-243h-87v243h87z" />
    <glyph glyph-name="uni03D9" unicode="&#x3d9;" horiz-adv-x="547" 
d="M517 255q0 -255 -230 -255h-20q-227 0 -227 255v27q0 257 227 257h20q230 0 230 -257v-27zM267 462q-140 0 -140 -180v-27q0 -178 140 -178h20q143 0 143 178v27q0 180 -143 180h-20zM330 75v-243h-87v243h87z" />
    <glyph glyph-name="uni03DA" unicode="&#x3da;" horiz-adv-x="572" 
d="M320 152h-12q-261 0 -261 300q0 290 271 290q120 -5 234 -39l-16 -62q-100 22 -218 24q-184 0 -184 -213q0 -223 174 -223h99v-227h-87v150z" />
    <glyph glyph-name="uni03DB" unicode="&#x3db;" horiz-adv-x="518" 
d="M359 75q130 0 130 -122q0 -133 -130 -133q-116 0 -243 10l3 72q124 -5 240 -5q43 0 43 56q0 45 -43 45h-74q-233 0 -233 271t233 271q91 -2 189 -29l-13 -67q-92 14 -173 14q-149 0 -149 -189q0 -194 149 -194h71z" />
    <glyph glyph-name="uni03DC" unicode="&#x3dc;" horiz-adv-x="552" 
d="M477 223h-77v106h-237v-327h-87v582q2 157 162 157q141 0 291 -10v-72h-291q-75 0 -75 -75v-173h314v-188z" />
    <glyph glyph-name="uni03DD" unicode="&#x3dd;" horiz-adv-x="428" 
d="M398 539v-77h-243v-145h213v-170h-77v93h-136v-440h-87v739h330z" />
    <glyph glyph-name="uni03DE" unicode="&#x3de;" horiz-adv-x="536" 
d="M65 156l-74 20l106 398q17 64 -76 89l20 74q167 -45 130 -183l-76 -285l376 267l74 -20l-106 -398q-17 -64 76 -89l-20 -74q-167 45 -130 184l76 283z" />
    <glyph glyph-name="uni03DF" unicode="&#x3df;" horiz-adv-x="526" 
d="M506 358l-139 -359h-91l129 330h-385v56l139 357h91l-130 -328h386v-56z" />
    <glyph glyph-name="uni03E0" unicode="&#x3e0;" horiz-adv-x="622" 
d="M250 651v-190h-77v182q-70 -22 -110 -54l-35 65q55 40 131 66q272 73 390 -361t-154 -508q-79 -16 -147 -9v65q51 0 127 18q188 52 90 411q-2 7 -5 19q-79 -9 -79 -68v-141h-77v134q0 131 131 151q-74 200 -185 220z" />
    <glyph glyph-name="uni03E1" unicode="&#x3e1;" horiz-adv-x="511" 
d="M321 380l-174 -63l-27 72l164 60q-94 155 -267 274l68 35q262 -169 346 -401l2 -4q84 -232 -7 -531l-75 -16q56 202 28 381l-164 -59l-26 72l174 64q-8 30 -18 59q-11 29 -24 57z" />
    <glyph glyph-name="uni03E2" unicode="&#x3e2;" horiz-adv-x="904" 
d="M838 2q-7 -223 -203 -223h-572v77h572q126 1 126 146v8l-10 59q-81 -69 -154 -69q-124 0 -163 92q-95 -90 -176 -90q-190 0 -190 237v502h87v-502q0 -160 113 -160q84 1 147 85q-8 31 -8 83v494h87v-494q0 -170 113 -170q83 1 144 79v585h87v-739z" />
    <glyph glyph-name="uni03E3" unicode="&#x3e3;" horiz-adv-x="864" 
d="M798 2q-7 -223 -203 -223h-532v77h532q126 1 126 146v10l-10 59q-81 -69 -154 -69q-104 0 -143 92q-95 -90 -176 -90q-170 0 -170 237v300h87v-300q0 -160 93 -160q84 1 147 85q-8 31 -8 83v290h87v-290q0 -170 93 -170q83 1 144 79v381h87v-537z" />
    <glyph glyph-name="uni03E4" unicode="&#x3e4;" horiz-adv-x="599" 
d="M128 532q0 -161 138 -161q96 0 176 52v318h87v-741h-87v345q-80 -50 -176 -51q-225 0 -225 238q0 209 264 209v-77q-177 0 -177 -132z" />
    <glyph glyph-name="uni03E5" unicode="&#x3e5;" horiz-adv-x="565" 
d="M63 371q0 168 164 168v-87q-77 0 -77 -81v-159q0 -141 98 -141q106 0 156 102v366h87v-758h-87v291q-50 -77 -156 -78q-185 0 -185 218v159z" />
    <glyph glyph-name="uni03E6" unicode="&#x3e6;" horiz-adv-x="672" 
d="M511 4v205q0 161 -148 161q-96 0 -186 -52v-318h-87v741h87v-345q90 50 186 51q235 0 235 -238v-205q0 -192 -211 -192h-305v77h305q124 0 124 115z" />
    <glyph glyph-name="uni03E7" unicode="&#x3e7;" horiz-adv-x="539" 
d="M383 438q-34 29 -100 29h-96q-64 -1 -65 -72q1 -58 73 -58q76 0 188 101zM486 443q19 -40 19 -98v-113q-1 -229 -182 -229q-73 2 -109.5 20.5t-81.5 20.5q-25 0 -102 -26l-8 62q85 41 112 41q45 -2 82 -20.5t107 -20.5q94 0 95 152v113q0 15 -2 29q-126 -115 -211 -115
q-169 1 -170 136q1 148 152 149h96q106 0 162 -46q18 20 37 41l46 -50q-21 -24 -42 -46z" />
    <glyph glyph-name="uni03E8" unicode="&#x3e8;" horiz-adv-x="607" 
d="M68 716q120 24 220 25q255 0 255 -192v-37q-8 -145 -151 -170l-179 -32q-85 -14 -85 -101v-32q3 -94 157 -94q125 0 239 110l40 -52q-98 -140 -286 -140q-228 0 -237 176v32q1 159 162 187l181 32q67 21 72 84v37q0 110 -169 110q-109 -2 -211 -11z" />
    <glyph glyph-name="uni03E9" unicode="&#x3e9;" horiz-adv-x="586" 
d="M68 716q120 24 220 25q255 0 255 -192v-37q-8 -145 -151 -170l-179 -32q-85 -14 -85 -101v-32q3 -94 157 -94h249v-82h-256q-228 0 -237 176v32q1 159 162 187l181 32q67 21 72 84v37q0 110 -169 110q-109 -2 -211 -11z" />
    <glyph glyph-name="uni03EA" unicode="&#x3ea;" horiz-adv-x="550" 
d="M275 422l-139 -345h278zM476 0h-404l-20 75l182 449l-22 54q-59 132 -167 70l-30 70q173 89 260 -94q87 183 260 94l-30 -70q-108 62 -167 -70l-22 -54l180 -444z" />
    <glyph glyph-name="uni03EB" unicode="&#x3eb;" horiz-adv-x="522" 
d="M398 -1h-274l-20 77l116 288l-22 54q-59 132 -158 73l-30 71q164 85 251 -98q87 183 251 98l-30 -71q-99 59 -157 -73l-22 -56l115 -286zM336 76l-74 185l-75 -185h149z" />
    <glyph glyph-name="uni03EC" unicode="&#x3ec;" horiz-adv-x="735" 
d="M634 667h-389q-124 0 -125 -152v-44q111 66 273 66q309 0 310 -269v-6q-1 -258 -262 -259h-136q-271 1 -272 259v253q1 229 212 229l389 -3v-74zM120 262q7 -180 185 -182h136q174 1 175 182v6q-1 192 -223 192q-161 0 -273 -68v-130z" />
    <glyph glyph-name="uni03ED" unicode="&#x3ed;" horiz-adv-x="573" 
d="M202 337h131q209 0 210 -165q-1 -168 -202 -169h-96q-211 1 -212 219v93q1 229 222 229l219 -3v-74h-219q-134 0 -135 -152v-93q7 -140 125 -142h96q114 1 115 92q-1 88 -123 88h-131v77z" />
    <glyph glyph-name="uni03EE" unicode="&#x3ee;" horiz-adv-x="501" 
d="M107 394h-87q0 195 157 195h30v152h87v-152h30q157 0 157 -195h-87q0 118 -70 118h-30v-508h-87v508h-30q-70 0 -70 -118z" />
    <glyph glyph-name="uni03EF" unicode="&#x3ef;" horiz-adv-x="441" 
d="M197 606q0 135 145 135v-77q-58 0 -58 -58v-67h127v-87h-127v-317q0 -135 -145 -135v77q58 0 58 58v317h-20q-60 0 -60 -78h-87q0 165 147 165h20v67z" />
    <glyph glyph-name="uni03F0" unicode="&#x3f0;" horiz-adv-x="574" 
d="M114 109v298q0 58 -55 58h-28l-2 74h30q142 0 142 -132v-187l250 319h94l-85 -108v-299q0 -58 45 -58h28l2 -74h-30q-132 0 -132 132v188l-251 -320h-93z" />
    <glyph glyph-name="uni03F1" unicode="&#x3f1;" horiz-adv-x="564" 
d="M136 221q1 -37 51.5 -88t110.5 -51q134 0 134 210q0 170 -144 170q-154 0 -154 -197zM496 -190l-43 -33q-14 31 -149 41q-257 0 -257 358v89q0 274 241 274q230 0 230 -247q0 -275 -220 -285q-107 0 -164 109q0 -221 170 -221q150 -10 192 -85z" />
    <glyph glyph-name="uni03F2" unicode="&#x3f2;" horiz-adv-x="503" 
d="M47 269q0 271 223 271q101 -2 199 -29l-13 -67q-92 14 -183 14q-139 0 -139 -189t139 -189q91 0 183 14l13 -67q-98 -27 -199 -29q-223 0 -223 271z" />
    <glyph glyph-name="uni03F3" unicode="&#x3f3;" horiz-adv-x="240" 
d="M174 539v-558q0 -186 -218 -193v77q130 0 131 116v558h87zM76 676v24q0 42 42 42h25q42 0 42 -42v-24q0 -42 -42 -42h-25q-42 0 -42 42z" />
    <glyph glyph-name="uni03F4" unicode="&#x3f4;" horiz-adv-x="675" 
d="M353 0h-57q-254 0 -254 335v73q0 334 254 334h57q254 0 254 -334v-73q0 -335 -254 -335zM129 408v-73q0 -258 167 -258h57q167 0 167 258v73q0 257 -167 257h-57q-167 0 -167 -257zM556 412v-77h-500v77h500z" />
    <glyph glyph-name="uni03F5" unicode="&#x3f5;" horiz-adv-x="457" 
d="M125 231q15 -155 157 -155h140v-77h-140q-247 0 -247 270q0 271 247 271h140v-77h-140q-142 0 -157 -155h233v-77h-233z" />
    <glyph glyph-name="uni03F6" unicode="&#x3f6;" horiz-adv-x="457" 
d="M99 231v77h233q-15 155 -157 155h-140v77h140q247 0 247 -271q0 -270 -247 -270h-140v77h140q142 0 157 155h-233z" />
    <glyph glyph-name="uni03F7" unicode="&#x3f7;" horiz-adv-x="624" 
d="M163 602h159q259 0 259 -230q0 -193 -179 -225l-28 -4q-24 -3 -52 -3h-159v-140h-87v741h87v-139zM163 217h159q172 0 172 155q0 153 -172 153h-159v-308z" />
    <glyph glyph-name="uni03F8" unicode="&#x3f8;" horiz-adv-x="564" 
d="M155 150q77 -81 154 -81q123 0 123 194q0 204 -123 204q-77 0 -154 -99v-218zM155 -209h-87v959h88v-290q76 89 153 89q210 0 210 -281q0 -282 -210 -282q-77 0 -154 70v-265z" />
    <glyph glyph-name="uni03F9" unicode="&#x3f9;" horiz-adv-x="576" 
d="M49 372q0 370 281 370q120 -5 224 -29l-16 -73q-90 18 -208 20q-194 0 -194 -288t194 -288q118 2 208 20l16 -73q-104 -24 -224 -29q-281 0 -281 370z" />
    <glyph glyph-name="uni03FA" unicode="&#x3fa;" horiz-adv-x="825" 
d="M410 390q-34 0 -59 32l-182 226v-648h-87v719q0 24 15 24h77q32 0 53 -25l189 -238l188 238q21 25 53 25h77q15 0 15 -24v-719h-87v648l-182 -226q-25 -32 -59 -32h-11z" />
    <glyph glyph-name="uni03FB" unicode="&#x3fb;" horiz-adv-x="667" 
d="M328 130q-44 0 -59 32l-122 276v-629h-87v710q0 24 15 24h87q32 0 43 -25l129 -308l128 308q11 25 43 25h87q15 0 15 -24v-519h-87v438l-122 -276q-15 -32 -59 -32h-11z" />
    <glyph glyph-name="uni03FC" unicode="&#x3fc;" horiz-adv-x="558" 
d="M173 165q67 -90 144 -90q124 0 124 193q0 194 -124 194q-143 0 -144 -194v-103zM173 -113v-89h-87v89h-82v67h82v314q1 271 231 271q210 0 210 -271q0 -268 -210 -268q-77 0 -144 79v-125h102v-67h-102z" />
    <glyph glyph-name="uni03FD" unicode="&#x3fd;" horiz-adv-x="584" 
d="M554 372q0 370 -281 370q-120 -5 -224 -29l16 -73q90 18 208 20q194 0 194 -288t-194 -288q-118 2 -208 20l-16 -73q104 -24 224 -29q281 0 281 370z" />
    <glyph glyph-name="uni03FE" unicode="&#x3fe;" horiz-adv-x="576" 
d="M49 372q0 370 281 370q120 -5 224 -29l-16 -73q-90 18 -208 20q-194 0 -194 -288t194 -288q118 2 208 20l16 -73q-104 -24 -224 -29q-281 0 -281 370zM235 361v24q0 42 42 42h25q42 0 42 -42v-24q0 -42 -42 -42h-25q-42 0 -42 42z" />
    <glyph glyph-name="uni03FF" unicode="&#x3ff;" horiz-adv-x="584" 
d="M530 372q0 370 -281 370q-120 -5 -224 -29l16 -73q90 18 208 20q194 0 194 -288t-194 -288q-118 2 -208 20l-16 -73q104 -24 224 -29q281 0 281 370zM344 361v24q0 42 -42 42h-25q-42 0 -42 -42v-24q0 -42 42 -42h25q42 0 42 42z" />
    <glyph glyph-name="uni0400" unicode="&#x400;" horiz-adv-x="544" 
d="M54 159v425q2 157 162 157q141 0 301 -10v-72h-301q-75 0 -75 -75v-173h314v-82h-314v-170q0 -75 75 -75h301v-72q-160 -10 -301 -10q-160 0 -162 157zM240 985l144 -129l-42 -52l-156 115z" />
    <glyph glyph-name="uni0401" unicode="&#x401;" horiz-adv-x="544" 
d="M54 159v425q2 157 162 157q141 0 301 -10v-72h-301q-75 0 -75 -75v-173h314v-82h-314v-170q0 -75 75 -75h301v-72q-160 -10 -301 -10q-160 0 -162 157zM148 843v23q0 42 42 42h23q42 0 42 -42v-23q0 -42 -42 -42h-23q-42 0 -42 42zM362 843v23q0 42 42 42h23q42 0 42 -42
v-23q0 -42 -42 -42h-23q-42 0 -42 42z" />
    <glyph glyph-name="uni0402" unicode="&#x402;" horiz-adv-x="796" 
d="M671 209q0 161 -148 161q-106 0 -186 -52v-318h-87v664h-222v77h593v-77h-284v-258q80 50 186 51q235 0 235 -248q0 -209 -284 -209v77q197 0 197 132z" />
    <glyph glyph-name="uni0403" unicode="&#x403;" horiz-adv-x="585" 
d="M555 656l-310 8q-76 0 -76 -75v-587h-87v587q2 152 163 152l310 -8v-77zM433 916l-156 -111l-42 52l145 125z" />
    <glyph glyph-name="uni0404" unicode="&#x404;" horiz-adv-x="583" 
d="M135 411h306v-77h-306q12 -250 193 -250q118 2 208 20l16 -73q-104 -24 -224 -29q-281 0 -281 370t281 370q120 -5 224 -29l-16 -73q-90 18 -208 20q-180 0 -193 -249z" />
    <glyph glyph-name="uni0405" unicode="&#x405;" horiz-adv-x="565" 
d="M527 648q-102 9 -211 11q-169 0 -169 -110v-37q5 -63 72 -84l181 -32q161 -28 162 -187v-32q-9 -176 -237 -176q-126 2 -254 22l8 68q116 -6 239 -8q154 0 157 94v32q0 87 -85 101l-179 32q-143 25 -151 170v37q0 192 255 192q100 -1 220 -25z" />
    <glyph glyph-name="uni0406" unicode="&#x406;" horiz-adv-x="251" 
d="M169 741v-739h-87v739h87z" />
    <glyph glyph-name="uni0407" unicode="&#x407;" horiz-adv-x="264" 
d="M159 741v-739h-87v739h87zM-69 843v23q0 42 42 42h23q42 0 42 -42v-23q0 -42 -42 -42h-23q-42 0 -42 42zM145 843v23q0 42 42 42h23q42 0 42 -42v-23q0 -42 -42 -42h-23q-42 0 -42 42z" />
    <glyph glyph-name="uni0408" unicode="&#x408;" horiz-adv-x="413" 
d="M276 742v-525q0 -217 -173 -217q-53 0 -126 10l10 71h116q86 0 86 136v525h87z" />
    <glyph glyph-name="uni0409" unicode="&#x409;" horiz-adv-x="1051" 
d="M601 412h139q269 0 269 -207q0 -205 -269 -205h-226v335h-345v-331h-87v737h87v-329h345v329h87v-329zM601 77h139q182 0 182 128q0 130 -182 130h-139v-258z" />
    <glyph glyph-name="uni040A" unicode="&#x40a;" horiz-adv-x="1052" 
d="M603 345v-268h139q182 0 182 133q0 135 -182 135h-139zM603 741v-319h139q269 0 269 -212q0 -210 -269 -210h-226v664h-121q-131 0 -131 -145v-214q0 -305 -234 -305v77q147 0 147 228v214q0 222 218 222h208z" />
    <glyph glyph-name="uni040B" unicode="&#x40b;" horiz-adv-x="818" 
d="M312 664v-268q80 50 206 51q215 0 215 -198v-249h-87v249q0 121 -128 121q-126 0 -206 -52v-318h-87v664h-202v77h553v-77h-264z" />
    <glyph glyph-name="uni040C" unicode="&#x40c;" horiz-adv-x="638" 
d="M253 407q107 2 136.5 128t107.5 206h103q-81 -83 -121.5 -223.5t-128.5 -148.5q87 -15 127 -151t121 -218h-100q-79 79 -108 200t-137 130h-87v-330h-87v741h87v-334h87zM431 916l-156 -111l-42 52l145 125z" />
    <glyph glyph-name="uni040D" unicode="&#x40d;" horiz-adv-x="699" 
d="M500 3v624l-311 -592q-15 -32 -53 -32h-69q-15 0 -15 22v715h87v-619l313 596q11 25 43 25h77q15 0 15 -24v-715h-87zM276 985l144 -129l-42 -52l-156 115z" />
    <glyph glyph-name="uni040E" unicode="&#x40e;" horiz-adv-x="576" 
d="M254 222q-21 0 -42 56l-205 461h93l179 -406q6 -14 8 -14l187 420h93l-224 -517q-57 -139 -172 -229l-44 50q92 99 127 179zM157 915h57q0 -70 62 -70q61 0 61 70h57q0 -133 -118 -133q-119 0 -119 133z" />
    <glyph glyph-name="uni040F" unicode="&#x40f;" horiz-adv-x="708" 
d="M398 0v-175h-87v175h-231v741h87v-664h374v664h87v-741h-230z" />
    <glyph glyph-name="uni0410" unicode="&#x410;" horiz-adv-x="630" 
d="M171 208l-68 -206h-89l241 710q11 29 31 29h56q22 0 33 -29l241 -710h-89l-68 206h-288zM434 285l-119 359l-119 -359h238z" />
    <glyph glyph-name="uni0411" unicode="&#x411;" horiz-adv-x="618" 
d="M169 345v-268h139q182 0 182 133q0 135 -182 135h-139zM169 603v-181h139q269 0 269 -212q0 -210 -269 -210h-226v603q0 138 107 138h325v-77h-322q-23 0 -23 -61z" />
    <glyph glyph-name="uni0412" unicode="&#x412;" horiz-adv-x="610" 
d="M63 742h241q224 0 224 -193q0 -129 -109 -166q141 -40 141 -187q0 -196 -256 -196h-241v742zM150 343v-266h154q169 0 169 119q0 147 -179 147h-144zM150 665v-245h144q147 0 147 129q0 116 -137 116h-154z" />
    <glyph glyph-name="uni0413" unicode="&#x413;" horiz-adv-x="585" 
d="M555 656l-310 8q-76 0 -76 -75v-587h-87v587q2 152 163 152l310 -8v-77z" />
    <glyph glyph-name="uni0414" unicode="&#x414;" horiz-adv-x="776" 
d="M114 77q78 73 103 218l25 225q16 221 173 221h248v-664h78v-277h-87v200h-524v-200h-87v200h-1v77h72zM576 77v587h-161q-75 0 -85 -144l-26 -225q-22 -149 -91 -218h363z" />
    <glyph glyph-name="uni0415" unicode="&#x415;" horiz-adv-x="544" 
d="M54 159v425q2 157 162 157q141 0 301 -10v-72h-301q-75 0 -75 -75v-173h314v-82h-314v-170q0 -75 75 -75h301v-72q-160 -10 -301 -10q-160 0 -162 157z" />
    <glyph glyph-name="uni0416" unicode="&#x416;" horiz-adv-x="945" 
d="M516 407h67q107 2 136.5 128t107.5 206h103q-81 -83 -121.5 -223.5t-128.5 -148.5q87 -15 127 -151t121 -218h-100q-79 79 -108 200t-137 130h-67v-330h-87v330h-67q-108 -9 -137 -130t-108 -200h-100q81 82 121 218t127 151q-88 8 -128.5 148.5t-121.5 223.5h103
q78 -80 107.5 -206t136.5 -128h67v334h87v-334z" />
    <glyph glyph-name="uni0417" unicode="&#x417;" horiz-adv-x="552" 
d="M278 4q-138 1 -235 20l11 70q87 -7 224 -8q174 0 174 109q0 144 -122 149h-179v77h179q102 15 102 120q0 119 -154 119q-125 -2 -212 -7l-5 72q93 15 217 17q132 0 186.5 -47t54.5 -154q0 -125 -82 -158q102 -25 102 -188q0 -107 -62 -149t-199 -42z" />
    <glyph glyph-name="uni0418" unicode="&#x418;" horiz-adv-x="699" 
d="M530 3v624l-311 -592q-15 -32 -53 -32h-69q-15 0 -15 22v715h87v-619l313 596q11 25 43 25h77q15 0 15 -24v-715h-87z" />
    <glyph glyph-name="uni0419" unicode="&#x419;" horiz-adv-x="699" 
d="M530 3v624l-311 -592q-15 -32 -53 -32h-69q-15 0 -15 22v715h87v-619l313 596q11 25 43 25h77q15 0 15 -24v-715h-87zM231 915h57q0 -70 62 -70q61 0 61 70h57q0 -133 -118 -133q-119 0 -119 133z" />
    <glyph glyph-name="uni041A" unicode="&#x41a;" horiz-adv-x="638" 
d="M253 407q107 2 136.5 128t107.5 206h103q-81 -83 -121.5 -223.5t-128.5 -148.5q87 -15 127 -151t121 -218h-100q-79 79 -108 200t-137 130h-87v-330h-87v741h87v-334h87z" />
    <glyph glyph-name="uni041B" unicode="&#x41b;" horiz-adv-x="715" 
d="M633 0h-87v664h-161q-131 0 -131 -145v-214q0 -305 -234 -305v77q147 0 147 228v214q0 222 218 222h248v-741z" />
    <glyph glyph-name="uni041C" unicode="&#x41c;" horiz-adv-x="851" 
d="M420 0q-44 0 -59 32l-192 606v-638h-87v719q0 24 15 24h87q32 0 43 -25l199 -638l198 638q11 25 43 25h87q15 0 15 -24v-719h-87v638l-192 -606q-15 -32 -59 -32h-11z" />
    <glyph glyph-name="uni041D" unicode="&#x41d;" horiz-adv-x="683" 
d="M169 328v-324h-87v737h87v-326h345v326h87v-739h-87v326h-345z" />
    <glyph glyph-name="uni041E" unicode="&#x41e;" horiz-adv-x="659" 
d="M358 0h-57q-254 0 -254 335v73q0 334 254 334h57q254 0 254 -334v-73q0 -335 -254 -335zM134 408v-73q0 -258 167 -258h57q167 0 167 258v73q0 257 -167 257h-57q-167 0 -167 -257z" />
    <glyph glyph-name="uni041F" unicode="&#x41f;" horiz-adv-x="708" 
d="M628 0h-87v664h-374v-664h-87v741h548v-741z" />
    <glyph glyph-name="uni0420" unicode="&#x420;" horiz-adv-x="618" 
d="M308 376q182 0 182 145q0 143 -182 143h-139v-288h139zM308 299h-139v-299h-87v741h226q269 0 269 -220q0 -222 -269 -222z" />
    <glyph glyph-name="uni0421" unicode="&#x421;" horiz-adv-x="583" 
d="M47 372q0 370 281 370q120 -5 224 -29l-16 -73q-90 18 -208 20q-194 0 -194 -288t194 -288q118 2 208 20l16 -73q-104 -24 -224 -29q-281 0 -281 370z" />
    <glyph glyph-name="uni0422" unicode="&#x422;" horiz-adv-x="591" 
d="M569 742v-77h-221v-663h-87v663h-239v77h547z" />
    <glyph glyph-name="uni0423" unicode="&#x423;" horiz-adv-x="576" 
d="M255 222q-21 0 -42 56l-205 461h93l179 -406q6 -14 8 -14l187 420h93l-224 -517q-57 -139 -172 -229l-44 50q92 99 127 179z" />
    <glyph glyph-name="uni0424" unicode="&#x424;" horiz-adv-x="723" 
d="M405 575v-404q182 7 182 188v29q0 180 -182 187zM318 652v89h87v-89q269 -7 269 -264v-29q0 -258 -269 -265v-92h-87v92q-269 7 -269 265v29q0 257 269 264zM318 171v404q-182 -7 -182 -187v-29q0 -181 182 -188z" />
    <glyph glyph-name="uni0425" unicode="&#x425;" horiz-adv-x="615" 
d="M310 325l-24 -42l-164 -284h-100l214 370l-215 371h100l165 -285l25 -43h5l25 43l165 285h100l-215 -371l214 -370h-100l-164 284l-24 42h-7z" />
    <glyph glyph-name="uni0426" unicode="&#x426;" horiz-adv-x="749" 
d="M86 0v741h87v-664h374v664h87v-664h37q56 0 56 -77v-167h-77l-10 167h-554z" />
    <glyph glyph-name="uni0427" unicode="&#x427;" horiz-adv-x="630" 
d="M468 0v340q-70 -50 -196 -51q-235 0 -235 203v249h87v-249q0 -126 148 -126q126 0 196 62v313h87v-741h-87z" />
    <glyph glyph-name="uni0428" unicode="&#x428;" horiz-adv-x="1031" 
d="M86 0v741h87v-664h299v664h87v-664h299v664h87v-741h-859z" />
    <glyph glyph-name="uni0429" unicode="&#x429;" horiz-adv-x="1060" 
d="M86 0v741h87v-664h299v664h87v-664h299v664h87v-664h37q56 0 56 -77v-167h-77l-10 167h-865z" />
    <glyph glyph-name="uni042A" unicode="&#x42a;" horiz-adv-x="823" 
d="M357 345v-268h139q182 0 182 133q0 135 -182 135h-139zM270 664h-265v77h352v-319h139q269 0 269 -212q0 -210 -269 -210h-226v664z" />
    <glyph glyph-name="uni042B" unicode="&#x42b;" horiz-adv-x="859" 
d="M777 741v-739h-87v739h87zM169 345v-268h139q182 0 182 133q0 135 -182 135h-139zM577 210q0 -210 -269 -210h-226v741h87v-319h139q269 0 269 -212z" />
    <glyph glyph-name="uni042C" unicode="&#x42c;" horiz-adv-x="635" 
d="M169 345v-268h139q182 0 182 133q0 135 -182 135h-139zM577 210q0 -210 -269 -210h-226v741h87v-319h139q269 0 269 -212z" />
    <glyph glyph-name="uni042D" unicode="&#x42d;" horiz-adv-x="583" 
d="M255 660q-118 -2 -208 -20l-16 73q104 24 224 29q281 0 281 -370t-281 -370q-120 5 -224 29l16 73q90 -18 208 -20q181 0 193 250h-306v77h306q-13 249 -193 249z" />
    <glyph glyph-name="uni042E" unicode="&#x42e;" horiz-adv-x="920" 
d="M387 408v-69q0 -258 167 -258h57q167 0 167 258v69q0 257 -167 257h-57q-167 0 -167 -257zM169 328v-326h-87v739h87v-326h129q0 327 254 327h57q254 0 254 -334v-69q0 -335 -254 -335h-57q-254 0 -254 324h-129z" />
    <glyph glyph-name="uni042F" unicode="&#x42f;" horiz-adv-x="639" 
d="M331 381q-182 0 -182 140q0 138 182 138h139v-278h-139zM557 0v741h-226q-269 0 -269 -220q0 -164 147 -207l-161 -314h98l154 300q15 -1 31 -1h139v-299h87z" />
    <glyph glyph-name="uni0430" unicode="&#x430;" horiz-adv-x="522" 
d="M370 255h-69q-80 0 -121 -12q-59 -15 -61 -85q0 -84 93 -84q92 3 158 94v87zM456 352v-350h-76l-10 79q-63 -77 -158 -79q-180 0 -180 156q3 132 149 162q59 12 120 12h69v20q0 110 -112 110q-79 -4 -156 -34l-24 67q67 44 180 44q198 0 198 -187z" />
    <glyph glyph-name="uni0431" unicode="&#x431;" horiz-adv-x="564" 
d="M134 274q0 -197 154 -197q144 0 144 170q0 210 -134 210q-60 0 -110.5 -51t-51.5 -88zM304 644q-170 0 -170 -221q57 109 164 109q220 -10 220 -285q0 -247 -230 -247q-241 0 -241 274v89q0 358 257 358q135 10 149 41l43 -33q-42 -75 -192 -85z" />
    <glyph glyph-name="uni0432" unicode="&#x432;" horiz-adv-x="524" 
d="M68 540h204q194 0 194 -152q0 -103 -61 -114q84 -15 84 -120q0 -154 -217 -154h-204v540zM157 233v-154h115q128 0 128 75q0 79 -99 79h-144zM157 461v-149h144q76 0 76 76q0 73 -105 73h-115z" />
    <glyph glyph-name="uni0433" unicode="&#x433;" horiz-adv-x="420" 
d="M400 459l-191 3q-55 0 -55 -75v-385h-88v385q2 152 143 152l191 -3v-77z" />
    <glyph glyph-name="uni0434" unicode="&#x434;" horiz-adv-x="639" 
d="M103 77q60 60 73 130l20 155q20 177 177 177h150v-462h71v-237h-87v160h-374v-160h-87l-1 237h58zM436 77v385h-63q-75 0 -90 -100l-20 -155q-13 -74 -61 -130h234z" />
    <glyph glyph-name="uni0435" unicode="&#x435;" horiz-adv-x="521" 
d="M129 302h235q32 0 32 31q0 134 -113 136h-27q-125 0 -127 -167zM134 228q22 -147 152 -147q92 0 171 20l17 -65q-93 -37 -191 -37q-241 0 -241 297q11 250 214 250h27q195 0 200 -213q0 -105 -119 -105h-230z" />
    <glyph glyph-name="uni0436" unicode="&#x436;" horiz-adv-x="791" 
d="M352 307v234h87v-234h57q47 2 81.5 88t92.5 146h93q-61 -63 -101.5 -163.5t-88.5 -108.5q47 -15 92 -111t106 -158h-90q-59 59 -98 144.5t-87 85.5h-57v-230h-87v230h-57q-48 0 -87 -85.5t-98 -144.5h-90q61 62 106 158t92 111q-48 8 -88.5 108.5t-101.5 163.5h93
q58 -60 92.5 -146t81.5 -88h57z" />
    <glyph glyph-name="uni0437" unicode="&#x437;" horiz-adv-x="449" 
d="M208 0q-90 1 -183 9l11 75q83 -6 172 -6q61 1 90.5 17.5t32.5 46.5q0 88 -91 88h-152v77h152q94 0 94 83q-3 42 -33 56t-93 15q-95 -1 -161 -6l-8 75q74 7 169 9q97 -1 148.5 -33.5t54.5 -115.5q0 -107 -71 -120q79 -16 79 -129q-6 -81 -58 -110t-153 -31z" />
    <glyph glyph-name="uni0438" unicode="&#x438;" horiz-adv-x="551" 
d="M404 0v414l-220 -389q-17 -25 -33 -25h-77q-15 0 -15 20v519h87v-411l232 392q12 20 33 20h66q15 0 15 -21v-519h-88z" />
    <glyph glyph-name="uni0439" unicode="&#x439;" horiz-adv-x="551" 
d="M404 0v414l-220 -389q-17 -25 -33 -25h-77q-15 0 -15 20v519h87v-411l232 392q12 20 33 20h66q15 0 15 -21v-519h-88zM157 713h57q0 -70 62 -70q61 0 61 70h57q0 -133 -118 -133q-119 0 -119 133z" />
    <glyph glyph-name="uni043A" unicode="&#x43a;" horiz-adv-x="519" 
d="M219 307q47 2 81.5 88t92.5 146h93q-61 -63 -101.5 -163.5t-88.5 -108.5q47 -15 92 -111t106 -158h-90q-59 59 -98 144.5t-87 85.5h-67v-230h-87v541h87v-234h67z" />
    <glyph glyph-name="uni043B" unicode="&#x43b;" horiz-adv-x="597" 
d="M307 539h220v-539h-87v462h-133q-90 0 -90 -120v-165q0 -177 -197 -177v77q110 0 110 100v165q0 197 177 197z" />
    <glyph glyph-name="uni043C" unicode="&#x43c;" horiz-adv-x="667" 
d="M328 0q-44 0 -59 32l-122 406v-438h-87v519q0 24 15 24h87q32 0 43 -25l129 -438l128 438q11 25 43 25h87q15 0 15 -24v-519h-87v438l-122 -406q-15 -32 -59 -32h-11z" />
    <glyph glyph-name="uni043D" unicode="&#x43d;" horiz-adv-x="557" 
d="M400 309v230h87v-537h-87v230h-243v-228h-87v535h87v-230h243z" />
    <glyph glyph-name="uni043E" unicode="&#x43e;" horiz-adv-x="547" 
d="M520 255q0 -255 -230 -255h-20q-227 0 -227 255v27q0 257 227 257h20q230 0 230 -257v-27zM270 462q-140 0 -140 -180v-27q0 -178 140 -178h20q143 0 143 178v27q0 180 -143 180h-20z" />
    <glyph glyph-name="uni043F" unicode="&#x43f;" horiz-adv-x="567" 
d="M502 539v-539h-87v462h-263v-462h-87v539h437z" />
    <glyph glyph-name="uni0440" unicode="&#x440;" horiz-adv-x="541" 
d="M149 150q77 -81 154 -81q123 0 123 194q0 204 -123 204q-77 0 -154 -99v-218zM149 -209h-87v748h78l10 -79q76 89 153 89q210 0 210 -281q0 -282 -210 -282q-77 0 -154 70v-265z" />
    <glyph glyph-name="uni0441" unicode="&#x441;" horiz-adv-x="501" 
d="M42 269q0 271 223 271q101 -2 199 -29l-13 -67q-92 14 -183 14q-139 0 -139 -189t139 -189q91 0 183 14l13 -67q-98 -27 -199 -29q-223 0 -223 271z" />
    <glyph glyph-name="uni0442" unicode="&#x442;" horiz-adv-x="489" 
d="M201 462h-180v77h447v-77h-180v-460h-87v460z" />
    <glyph glyph-name="uni0443" unicode="&#x443;" horiz-adv-x="504" 
d="M222 2q-31 0 -52 56l-160 481h93l139 -430q6 -24 8 -24l147 454h93l-180 -537q-57 -139 -176 -229l-44 50q92 99 132 179z" />
    <glyph glyph-name="uni0444" unicode="&#x444;" horiz-adv-x="805" 
d="M446 171q57 -99 124 -99q103 0 103 204q0 194 -103 194q-67 0 -124 -91v-208zM359 379q-57 91 -124 91q-103 0 -103 -194q0 -204 103 -204q67 0 124 99v208zM359 61l-1 8q-56 -79 -123 -79q-190 0 -190 281q0 282 190 282q67 0 124 -60v255h87v-255q57 60 124 60
q190 0 190 -282q0 -281 -190 -281q-67 0 -123 79l-1 -8v-270h-87v270z" />
    <glyph glyph-name="uni0445" unicode="&#x445;" horiz-adv-x="542" 
d="M262 226l-132 -227h-96l157 272l-155 268h96l132 -226h4l132 226h96l-155 -268l157 -272h-96l-132 227h-8z" />
    <glyph glyph-name="uni0446" unicode="&#x446;" horiz-adv-x="583" 
d="M502 77q61 0 61 -43v-184h-77l-10 150h-411v539h87v-462h263v462h87v-462z" />
    <glyph glyph-name="uni0447" unicode="&#x447;" horiz-adv-x="515" 
d="M368 0v251q-40 -50 -136 -51q-195 0 -195 188v151h87v-151q0 -111 108 -111q96 0 136 52v210h87v-539h-87z" />
    <glyph glyph-name="uni0448" unicode="&#x448;" horiz-adv-x="807" 
d="M447 77h213v462h87v-539h-687v539h87v-462h213v462h87v-462z" />
    <glyph glyph-name="uni0449" unicode="&#x449;" horiz-adv-x="828" 
d="M447 77h213v462h87v-462q61 0 61 -43v-184h-77l-10 150h-661v539h87v-462h213v462h87v-462z" />
    <glyph glyph-name="uni044A" unicode="&#x44a;" horiz-adv-x="624" 
d="M241 275v-198h129q132 0 132 93q0 105 -132 105h-129zM154 462h-141v77h141v2h87v-189h129q219 0 219 -182q0 -170 -219 -170h-216v462z" />
    <glyph glyph-name="uni044B" unicode="&#x44b;" horiz-adv-x="746" 
d="M157 275v-198h129q132 0 132 93q0 105 -132 105h-129zM505 170q0 -170 -219 -170h-216v541h87v-189h129q219 0 219 -182zM683 539v-539h-87v539h87z" />
    <glyph glyph-name="uni044C" unicode="&#x44c;" horiz-adv-x="540" 
d="M157 275v-198h129q132 0 132 93q0 105 -132 105h-129zM505 170q0 -170 -219 -170h-216v541h87v-189h129q219 0 219 -182z" />
    <glyph glyph-name="uni044D" unicode="&#x44d;" horiz-adv-x="503" 
d="M220 458q-81 0 -173 -14l-13 67q98 27 189 29q233 0 233 -271t-233 -271q-91 2 -189 29l13 67q92 -14 173 -14q133 0 147 151h-226v77h226q-14 150 -147 150z" />
    <glyph glyph-name="uni044E" unicode="&#x44e;" horiz-adv-x="788" 
d="M491 462q-140 0 -140 -180v-27q0 -178 140 -178h20q143 0 143 178v27q0 180 -143 180h-20zM160 226v-226h-87v539h87v-226h105q13 226 226 226h20q230 0 230 -257v-27q0 -255 -230 -255h-20q-214 0 -226 226h-105z" />
    <glyph glyph-name="uni044F" unicode="&#x44f;" horiz-adv-x="514" 
d="M362 287v182h-121q-113 0 -113 -90q0 -92 113 -92h121zM362 0v217h-101q-12 0 -23 1l-112 -218h-91l117 228q-107 32 -107 151q0 160 196 160h204v-539h-83z" />
    <glyph glyph-name="uni0450" unicode="&#x450;" horiz-adv-x="521" 
d="M128 302h235q32 0 32 31q0 134 -113 136h-27q-125 0 -127 -167zM133 228q22 -147 152 -147q92 0 171 20l17 -65q-93 -37 -191 -37q-241 0 -241 297q11 250 214 250h27q195 0 200 -213q0 -105 -119 -105h-230zM183 783l144 -129l-42 -52l-156 115z" />
    <glyph glyph-name="uni0451" unicode="&#x451;" horiz-adv-x="521" 
d="M128 302h235q32 0 32 31q0 134 -113 136h-27q-125 0 -127 -167zM133 228q22 -147 152 -147q92 0 171 20l17 -65q-93 -37 -191 -37q-241 0 -241 297q11 250 214 250h27q195 0 200 -213q0 -105 -119 -105h-230zM91 641v23q0 42 42 42h23q42 0 42 -42v-23q0 -42 -42 -42h-23
q-42 0 -42 42zM305 641v23q0 42 42 42h23q42 0 42 -42v-23q0 -42 -42 -42h-23q-42 0 -42 42z" />
    <glyph glyph-name="uni0452" unicode="&#x452;" horiz-adv-x="606" 
d="M456 331q0 141 -98 141q-106 0 -156 -102v-366h-87v632h-110v67h110v59h87v-59h143v-67h-143v-165q50 77 156 78q185 0 185 -218v-379q0 -151 -134 -151q-44 0 -73 14l6 76q38 -8 67 -8q47 0 47 69v379z" />
    <glyph glyph-name="uni0453" unicode="&#x453;" horiz-adv-x="420" 
d="M400 459l-191 3q-55 0 -55 -75v-385h-88v385q2 152 143 152l191 -3v-77zM347 714l-156 -111l-42 52l145 125z" />
    <glyph glyph-name="uni0454" unicode="&#x454;" horiz-adv-x="503" 
d="M136 308h226v-77h-226q14 -151 147 -151q81 0 173 14l13 -67q-98 -27 -189 -29q-233 0 -233 271t233 271q91 -2 189 -29l-13 -67q-92 14 -173 14q-133 0 -147 -150z" />
    <glyph glyph-name="uni0455" unicode="&#x455;" horiz-adv-x="478" 
d="M129 376q5 -47 66 -59l113 -14q141 -18 143 -138q0 -162 -165 -162q-149 2 -233 22l9 69q83 -12 224 -14q78 3 78 85q-2 50 -61 58l-113 14q-141 21 -148 139q0 162 175 162q129 -2 203 -22l-10 -70q-72 13 -193 15q-88 -3 -88 -85z" />
    <glyph glyph-name="uni0456" unicode="&#x456;" horiz-adv-x="183" 
d="M139 539v-539h-87v539h87zM41 676v24q0 42 42 42h25q42 0 42 -42v-24q0 -42 -42 -42h-25q-42 0 -42 42z" />
    <glyph glyph-name="uni0457" unicode="&#x457;" horiz-adv-x="223" 
d="M160 539v-539h-87v539h87zM-42 641v23q0 42 42 42h23q42 0 42 -42v-23q0 -42 -42 -42h-23q-42 0 -42 42zM172 641v23q0 42 42 42h23q42 0 42 -42v-23q0 -42 -42 -42h-23q-42 0 -42 42z" />
    <glyph glyph-name="uni0458" unicode="&#x458;" horiz-adv-x="240" 
d="M174 539v-558q0 -186 -218 -193v77q130 0 131 116v558h87zM76 676v24q0 42 42 42h25q42 0 42 -42v-24q0 -42 -42 -42h-25q-42 0 -42 42z" />
    <glyph glyph-name="uni0459" unicode="&#x459;" horiz-adv-x="910" 
d="M440 462h-133q-90 0 -90 -120v-165q0 -177 -197 -177v77q110 0 110 100v165q0 197 177 197h133v2h87v-189h129q219 0 219 -182q0 -170 -219 -170h-216v462zM527 77h129q132 0 132 93q0 105 -132 105h-129v-198z" />
    <glyph glyph-name="uni045A" unicode="&#x45a;" horiz-adv-x="870" 
d="M400 275h-243v-271h-87v535h87v-187h243v189h87v-189h129q219 0 219 -182q0 -170 -219 -170h-216v275zM487 77h129q132 0 132 93q0 105 -132 105h-129v-198z" />
    <glyph glyph-name="uni045B" unicode="&#x45b;" horiz-adv-x="606" 
d="M202 703h143v-67h-143v-165q50 77 156 78q185 0 185 -218v-327h-87v327q0 141 -98 141q-106 0 -156 -102v-366h-87v632h-110v67h110v59h87v-59z" />
    <glyph glyph-name="uni045C" unicode="&#x45c;" horiz-adv-x="519" 
d="M219 307q47 2 81.5 88t92.5 146h93q-61 -63 -101.5 -163.5t-88.5 -108.5q47 -15 92 -111t106 -158h-90q-59 59 -98 144.5t-87 85.5h-67v-230h-87v541h87v-234h67zM390 714l-156 -111l-42 52l145 125z" />
    <glyph glyph-name="uni045D" unicode="&#x45d;" horiz-adv-x="551" 
d="M404 0v414l-220 -389q-17 -25 -33 -25h-77q-15 0 -15 20v519h87v-411l232 392q12 20 33 20h66q15 0 15 -21v-519h-88zM186 783l144 -129l-42 -52l-156 115z" />
    <glyph glyph-name="uni045E" unicode="&#x45e;" horiz-adv-x="504" 
d="M228 2q-31 0 -52 56l-160 481h93l139 -430q6 -24 8 -24l147 454h93l-180 -537q-57 -139 -176 -229l-44 50q92 99 132 179zM131 713h57q0 -70 62 -70q61 0 61 70h57q0 -133 -118 -133q-119 0 -119 133z" />
    <glyph glyph-name="uni045F" unicode="&#x45f;" horiz-adv-x="567" 
d="M327 0v-175h-87v175h-175v537h87v-460h263v458h87v-535h-175z" />
    <glyph glyph-name="uni0460" unicode="&#x460;" horiz-adv-x="899" 
d="M450 87q-40 -87 -168 -87q-202 0 -202 248v493h87v-493q0 -171 115 -171q114 0 124 131v533h87v-533q10 -131 135 -131q104 0 104 171v493h87v-493q0 -248 -191 -248q-139 0 -178 87z" />
    <glyph glyph-name="uni0461" unicode="&#x461;" horiz-adv-x="787" 
d="M394 78q-35 -78 -145 -78q-189 0 -189 210v329h87v-329q0 -133 102 -133q101 0 101 133v329h87v-329q0 -133 102 -133q101 0 101 133v329h87v-329q0 -210 -188 -210q-111 0 -145 78z" />
    <glyph glyph-name="uni0462" unicode="&#x462;" horiz-adv-x="659" 
d="M193 345v-268h139q182 0 182 133q0 135 -182 135h-139zM106 558h-98v67h98v116h87v-116h141v-67h-141v-136h139q269 0 269 -212q0 -210 -269 -210h-226v558z" />
    <glyph glyph-name="uni0463" unicode="&#x463;" horiz-adv-x="554" 
d="M171 275v-198h139q132 0 132 93q0 105 -132 105h-139zM171 528v-176h139q219 0 219 -182q0 -170 -219 -170h-226v528h-76v67h76v146h87v-146h118v-67h-118z" />
    <glyph glyph-name="uni0464" unicode="&#x464;" horiz-adv-x="824" 
d="M169 333v-331h-87v739h87v-331h120q14 332 280 332q120 -5 224 -29l-16 -73q-90 18 -208 20q-181 0 -193 -250h281v-77h-281q13 -249 193 -249q118 2 208 20l16 -73q-104 -24 -224 -29q-266 0 -280 331h-120z" />
    <glyph glyph-name="uni0465" unicode="&#x465;" horiz-adv-x="725" 
d="M160 231v-231h-87v539h87v-231h110q16 232 222 232q101 -2 199 -29l-13 -67q-92 14 -183 14q-124 0 -137 -150h185v-77h-185q13 -151 137 -151q91 0 183 14l13 -67q-98 -27 -199 -29q-207 0 -222 233h-110z" />
    <glyph glyph-name="uni0466" unicode="&#x466;" horiz-adv-x="644" 
d="M427 285l-119 359l-119 -359h238zM352 208v-208h-87v208h-101l-68 -206h-89l241 710q11 29 31 29h56q22 0 33 -29l241 -710h-89l-68 206h-100z" />
    <glyph glyph-name="uni0467" unicode="&#x467;" horiz-adv-x="527" 
d="M330 232l-75 230l-75 -230h150zM212 155h-57l-51 -155h-93l166 498q18 41 78 41t78 -41l166 -498h-93l-51 155h-56v-153h-87v153z" />
    <glyph glyph-name="uni0468" unicode="&#x468;" horiz-adv-x="918" 
d="M463 285h238l-119 359zM169 208v-206h-87v739h87v-456h208l145 427q11 29 31 29h56q22 0 33 -29l241 -710h-89l-68 206h-100v-208h-87v208h-101l-68 -206h-89l70 206h-182z" />
    <glyph glyph-name="uni0469" unicode="&#x469;" horiz-adv-x="738" 
d="M391 232h150l-75 230zM134 155v-153h-87v537h87v-307h165l89 266q18 41 78 41t78 -41l166 -498h-93l-51 155h-56v-153h-87v153h-57l-51 -155h-93l52 155h-140z" />
    <glyph glyph-name="uni046A" unicode="&#x46a;" horiz-adv-x="778" 
d="M634 663l-158 -261h33q224 0 224 -214v-188h-87v188q0 137 -138 137h-74v-323h-87v323h-78q-137 0 -137 -137v-188h-87v188q0 214 224 214h36l-158 261q0 78 70 78h346q71 0 71 -78zM247 664l143 -243l143 243h-286z" />
    <glyph glyph-name="uni046B" unicode="&#x46b;" horiz-adv-x="606" 
d="M202 462l102 -137l101 137h-203zM216 305l-122 161q0 73 62 73h295q63 0 63 -73l-122 -161q181 0 181 -161v-144h-86v144q0 82 -102 82h-37v-225h-88v225h-40q-101 0 -101 -82v-144h-86v144q0 161 183 161z" />
    <glyph glyph-name="uni046C" unicode="&#x46c;" horiz-adv-x="1059" 
d="M528 664l143 -243l143 243h-286zM169 325v-323h-87v739h87v-339h417l-158 261q0 78 70 78h346q71 0 71 -78l-158 -261h33q224 0 224 -214v-188h-87v188q0 137 -138 137h-74v-323h-87v323h-78q-137 0 -137 -137v-188h-87v188q0 86 36 137h-193z" />
    <glyph glyph-name="uni046D" unicode="&#x46d;" horiz-adv-x="859" 
d="M455 462l102 -137l101 137h-203zM134 227v-225h-87v537h87v-235h307q14 1 28 1l-122 161q0 73 62 73h295q63 0 63 -73l-122 -161q181 0 181 -161v-144h-86v144q0 82 -102 82h-37v-225h-88v225h-40q-101 0 -101 -82v-144h-86v144q0 49 17 83h-169z" />
    <glyph glyph-name="uni046E" unicode="&#x46e;" horiz-adv-x="548" 
d="M204 87l38 -1q174 0 174 109q0 144 -122 149h-159v77h159q102 15 102 120q0 119 -154 119h-192v82h192q132 0 186.5 -47t54.5 -154q0 -125 -82 -158q102 -25 102 -188q0 -107 -62 -149t-199 -42h-38q-74 0 -74 -51q0 -38 57 -45l-7 -67q-137 11 -137 112q0 134 161 134z
M217 818l-132 144h81l77 -83l76 83h82l-132 -144h-52z" />
    <glyph glyph-name="uni046F" unicode="&#x46f;" horiz-adv-x="486" 
d="M196 87l38 -1q124 0 124 69q0 74 -92 79h-139v77h139q72 15 72 80q0 69 -104 69h-172v82h172q191 0 191 -151q0 -85 -82 -113q102 -30 102 -123q0 -67 -52 -109t-159 -42h-38q-74 0 -74 -51q0 -38 57 -45l-7 -67q-137 11 -137 112q0 134 161 134zM197 645l-132 144h81
l77 -83l76 83h82l-132 -144h-52z" />
    <glyph glyph-name="uni0470" unicode="&#x470;" horiz-adv-x="636" 
d="M305 235q-228 1 -228 262v245h87v-245q0 -184 141 -185v429h87v-429q141 3 141 185v245h87v-245q0 -259 -228 -262v-233h-87v233z" />
    <glyph glyph-name="uni0471" unicode="&#x471;" horiz-adv-x="631" 
d="M393 77q145 3 145 140q0 136 -20 322h87q20 -186 20 -322q0 -214 -232 -217v-200h-87v200q-232 7 -232 217v322h87v-322q0 -134 145 -140v462h87v-462z" />
    <glyph glyph-name="uni0472" unicode="&#x472;" horiz-adv-x="655" 
d="M528 412v16q0 237 -177 237h-47q-177 0 -177 -237v-16h401zM127 335v-16q0 -238 177 -238h47q177 0 177 238v16h-401zM351 4h-47q-254 0 -254 325v89q0 324 254 324h47q254 0 254 -324v-89q0 -325 -254 -325z" />
    <glyph glyph-name="uni0473" unicode="&#x473;" horiz-adv-x="571" 
d="M437 308v4q0 150 -143 150h-20q-140 0 -140 -150v-4h303zM134 231v-6q0 -148 140 -148h20q143 0 143 148v6h-303zM524 225q0 -225 -230 -225h-20q-227 0 -227 225v87q0 227 227 227h20q230 0 230 -227v-87z" />
    <glyph glyph-name="uni0474" unicode="&#x474;" horiz-adv-x="667" 
d="M499 638q31 102 105 103h54v-78h-31q-29 -3 -39 -33l-202 -599q-11 -29 -33 -29h-66q-20 0 -31 29l-239 710h92l212 -642z" />
    <glyph glyph-name="uni0475" unicode="&#x475;" horiz-adv-x="541" 
d="M372 436q31 102 125 103h33v-78h-24q-32 -3 -44 -33l-129 -387q-18 -41 -78 -41t-78 41l-166 498h93l151 -462z" />
    <glyph glyph-name="uni0476" unicode="&#x476;" horiz-adv-x="667" 
d="M499 638q31 102 105 103h54v-78h-31q-29 -3 -39 -33l-202 -599q-11 -29 -33 -29h-66q-20 0 -31 29l-239 710h92l212 -642zM211 985l144 -129l-42 -52l-156 115zM374 985l144 -129l-42 -52l-156 115z" />
    <glyph glyph-name="uni0477" unicode="&#x477;" horiz-adv-x="541" 
d="M372 436q31 102 125 103h33v-78h-24q-32 -3 -44 -33l-129 -387q-18 -41 -78 -41t-78 41l-166 498h93l151 -462zM144 783l144 -129l-42 -52l-156 115zM307 783l144 -129l-42 -52l-156 115z" />
    <glyph glyph-name="uni0478" unicode="&#x478;" horiz-adv-x="1156" 
d="M373 0h-57q-254 0 -254 335v73q0 334 254 334h57q254 0 254 -334v-73q0 -335 -254 -335zM149 408v-73q0 -258 167 -258h57q167 0 167 258v73q0 257 -167 257h-57q-167 0 -167 -257zM888 2q-31 0 -52 56l-160 481h93l139 -430q6 -24 8 -24l147 454h93l-180 -537
q-57 -139 -176 -229l-44 50q92 99 132 179z" />
    <glyph glyph-name="uni0479" unicode="&#x479;" horiz-adv-x="1010" 
d="M517 255q0 -255 -230 -255h-20q-227 0 -227 255v27q0 257 227 257h20q230 0 230 -257v-27zM267 462q-140 0 -140 -180v-27q0 -178 140 -178h20q143 0 143 178v27q0 180 -143 180h-20zM742 2q-31 0 -52 56l-160 481h93l139 -430q6 -24 8 -24l147 454h93l-180 -537
q-57 -139 -176 -229l-44 50q92 99 132 179z" />
    <glyph glyph-name="uni047A" unicode="&#x47a;" horiz-adv-x="675" 
d="M381 78q152 11 152 257v73q0 245 -152 256v-38h-87v38q-152 -11 -152 -256v-73q0 -246 152 -257v35h87v-35zM381 742q239 -10 239 -334v-73q0 -325 -239 -335v-76h-87v76q-239 10 -239 335v73q0 324 239 334v73h87v-73z" />
    <glyph glyph-name="uni047B" unicode="&#x47b;" horiz-adv-x="547" 
d="M322 80q108 20 108 175v27q0 156 -108 177v-28h-87v28q-108 -19 -108 -177v-27q0 -156 108 -175v25h87v-25zM322 537q195 -18 195 -255v-27q0 -235 -195 -253v-86h-87v85q-195 18 -195 254v27q0 238 195 256v82h87v-83z" />
    <glyph glyph-name="uni047C" unicode="&#x47c;" horiz-adv-x="899" 
d="M525 798q-4 -84 -65 -181l-66 23q45 72 50 158h81zM732 526q0 138 -128 138v77q215 0 215 -215v-278q0 -248 -191 -248q-139 0 -178 87q-40 -87 -168 -87q-202 0 -202 248v278q0 215 215 215v-77q-128 0 -128 -138v-278q0 -171 115 -171q114 0 124 131v271h87v-271
q10 -131 135 -131q104 0 104 171v278zM427 875q-64 0 -64 -65l-67 -1q0 133 131 133q57 -2 120 -31.5t100 -30.5v-67q-47 1 -110 30.5t-110 31.5z" />
    <glyph glyph-name="uni047D" unicode="&#x47d;" horiz-adv-x="787" 
d="M640 324q0 138 -98 138v77q185 0 185 -215v-114q0 -210 -188 -210q-111 0 -145 78q-35 -78 -145 -78q-189 0 -189 210v114q0 215 185 215v-77q-98 0 -98 -138v-114q0 -133 102 -133q101 0 101 133v120h87v-120q0 -133 102 -133q101 0 101 133v114zM472 590
q-4 -84 -65 -181l-66 23q45 72 50 158h81zM374 667q-64 0 -64 -65l-67 -1q0 133 131 133q57 -2 120 -31.5t100 -30.5v-67q-47 1 -110 30.5t-110 31.5z" />
    <glyph glyph-name="uni047E" unicode="&#x47e;" horiz-adv-x="899" 
d="M406 866h-186v67h459v-67h-186v-62h-87v62zM450 87q-40 -87 -168 -87q-202 0 -202 248v493h87v-493q0 -171 115 -171q114 0 124 131v533h87v-533q10 -131 135 -131q104 0 104 171v493h87v-493q0 -248 -191 -248q-139 0 -178 87z" />
    <glyph glyph-name="uni047F" unicode="&#x47f;" horiz-adv-x="787" 
d="M350 638h-186v67h459v-67h-186v-62h-87v62zM394 78q-35 -78 -145 -78q-189 0 -189 210v329h87v-329q0 -133 102 -133q101 0 101 133v329h87v-329q0 -133 102 -133q101 0 101 133v329h87v-329q0 -210 -188 -210q-111 0 -145 78z" />
    <glyph glyph-name="uni0480" unicode="&#x480;" horiz-adv-x="614" 
d="M326 2q-279 1 -279 370q0 370 281 370q120 -5 234 -29l-20 -72q-96 22 -214 24q-194 0 -194 -293t194 -293h75v-258h-77v181z" />
    <glyph glyph-name="uni0481" unicode="&#x481;" horiz-adv-x="521" 
d="M280 -1h-14q-214 0 -214 270q0 271 224 271q101 -2 193 -35l-17 -67q-82 25 -173 25q-140 0 -140 -194q0 -193 130 -193h98v-255h-87v178z" />
    <glyph glyph-name="uni0482" unicode="&#x482;" horiz-adv-x="518" 
d="M275 441l-95 55l38 66l95 -54l93 161l75 -43l-93 -162l95 -55l-39 -66l-94 55l-107 -185l95 -55l-39 -66l-94 55l-94 -162l-75 43l94 162l-95 55l38 66l95 -55z" />
    <glyph glyph-name="uni0483" unicode="&#x483;" 
d="M-341 609v-39h-87v86h222v39h87v-86h-222z" />
    <glyph glyph-name="uni0484" unicode="&#x484;" 
d="M85 622v67q48 2 90.5 31.5t100.5 30.5q110 0 110 -122h-67q0 55 -43 55q-48 -1 -90.5 -30.5t-100.5 -31.5z" />
    <glyph glyph-name="uni0485" unicode="&#x485;" horiz-adv-x="193" 
d="M103 733q5 -66 28 -131l-56 -20q-39 87 -43 151h71z" />
    <glyph glyph-name="uni0486" unicode="&#x486;" horiz-adv-x="193" 
d="M161 733q-4 -64 -43 -151l-56 20q23 65 28 131h71z" />
    <glyph glyph-name="uni0487" unicode="&#x487;" 
d="M217 695q-64 0 -64 -65l-67 -1q0 133 131 133q57 -2 120 -31.5t100 -30.5v-67q-47 1 -110 30.5t-110 31.5z" />
    <glyph glyph-name="uni0488" unicode="&#x488;" horiz-adv-x="1022" 
d="M569 645q-1 22 -17 38q-17 17 -41 17t-41 -17q-16 -16 -17 -38h-41q1 39 29 67q29 29 70 29t70 -29q28 -28 29 -67h-41zM569 -150q-1 22 -17 38q-17 17 -41 17t-41 -17q-16 -16 -17 -38h-41q1 39 29 67q29 29 70 29t70 -29q28 -28 29 -67h-41zM962 243q-1 22 -17 38
q-17 17 -41 17t-41 -17q-16 -16 -17 -38h-41q1 39 29 67q29 29 70 29t70 -29q28 -28 29 -67h-41zM177 243q-1 22 -17 38q-17 17 -41 17t-41 -17q-16 -16 -17 -38h-41q1 39 29 67q29 29 70 29t70 -29q28 -28 29 -67h-41zM863 506q-1 22 -17 38q-17 17 -41 17t-41 -17
q-16 -16 -17 -38h-41q1 39 29 67q29 29 70 29t70 -29q28 -28 29 -67h-41zM274 -4q-1 22 -17 38q-17 17 -41 17t-41 -17q-16 -16 -17 -38h-41q1 39 29 67q29 29 70 29t70 -29q28 -28 29 -67h-41zM863 -4q-1 22 -17 38q-17 17 -41 17t-41 -17q-16 -16 -17 -38h-41q1 39 29 67
q29 29 70 29t70 -29q28 -28 29 -67h-41zM274 506q-1 22 -17 38q-17 17 -41 17t-41 -17q-16 -16 -17 -38h-41q1 39 29 67q29 29 70 29t70 -29q28 -28 29 -67h-41z" />
    <glyph glyph-name="uni0489" unicode="&#x489;" horiz-adv-x="929" 
d="M519 22q-4 -94 -63 -191l-46 20q43 75 48 171h61zM410 549q4 94 63 191l46 -20q-43 -75 -48 -171h-61zM201 231q-94 4 -191 63l20 46q75 -43 171 -48v-61zM728 340q94 -4 191 -63l-20 -46q-75 43 -171 48v61zM317 61q-70 -64 -180 -91l-18 47q83 22 155 87zM612 510
q70 64 180 91l18 -47q-83 -22 -155 -87zM240 433q-64 70 -91 180l47 18q22 -83 87 -155zM689 138q64 -70 91 -180l-47 -18q-22 83 -87 155z" />
    <glyph glyph-name="uni048A" unicode="&#x48a;" horiz-adv-x="699" 
d="M530 3v624l-311 -592q-15 -32 -53 -32h-69q-15 0 -15 22v715h87v-619l313 596q11 25 43 25h77q15 0 15 -24v-715h-87zM231 915h57q0 -70 62 -70q61 0 61 70h57q0 -133 -118 -133q-119 0 -119 133zM698 63q-4 -104 -65 -221l-66 23q45 92 50 198h81z" />
    <glyph glyph-name="uni048B" unicode="&#x48b;" horiz-adv-x="551" 
d="M404 0v414l-220 -389q-17 -25 -33 -25h-77q-15 0 -15 20v519h87v-411l232 392q12 20 33 20h66q15 0 15 -21v-519h-88zM157 713h57q0 -70 62 -70q61 0 61 70h57q0 -133 -118 -133q-119 0 -119 133zM573 63q-4 -104 -65 -221l-66 23q45 92 50 198h81z" />
    <glyph glyph-name="uni048C" unicode="&#x48c;" horiz-adv-x="659" 
d="M193 345v-268h139q182 0 182 133q0 135 -182 135h-139zM106 558h-98v67h98v116h87v-116h141v-67h-141v-136h139q269 0 269 -212q0 -210 -269 -210h-226v558z" />
    <glyph glyph-name="uni048D" unicode="&#x48d;" horiz-adv-x="554" 
d="M171 275v-198h139q132 0 132 93q0 105 -132 105h-139zM171 628v-276h139q219 0 219 -182q0 -170 -219 -170h-226v628h-96v67h96v46h87v-46h118v-67h-118z" />
    <glyph glyph-name="uni048E" unicode="&#x48e;" horiz-adv-x="618" 
d="M450 321q-58 -22 -142 -22h-139v-299h-87v741h226q269 0 269 -220q0 -111 -67 -166l51 -59l-51 -44zM393 387l-49 56l51 44l58 -67q37 36 37 101q0 143 -182 143h-139v-288h139q49 0 85 11z" />
    <glyph glyph-name="uni048F" unicode="&#x48f;" horiz-adv-x="564" 
d="M331 71l-52 60l51 44l62 -71q40 48 40 159q0 204 -123 204q-77 0 -154 -99v-218q77 -81 154 -81q12 0 22 2zM450 37l46 -53l-51 -44l-52 60q-37 -14 -84 -14q-77 0 -154 70v-265h-87v748h78l10 -79q76 89 153 89q210 0 210 -281q0 -162 -69 -231z" />
    <glyph glyph-name="uni0490" unicode="&#x490;" horiz-adv-x="586" 
d="M478 735v188h77v-267l-310 8q-76 0 -76 -75v-587h-87v587q2 152 163 152z" />
    <glyph glyph-name="uni0491" unicode="&#x491;" horiz-adv-x="420" 
d="M323 537v189h77v-267l-191 3q-55 0 -55 -75v-385h-88v385q2 152 143 152z" />
    <glyph glyph-name="uni0492" unicode="&#x492;" horiz-adv-x="565" 
d="M555 656l-310 8q-76 0 -76 -75v-587h-87v587q2 152 163 152l310 -8v-77zM352.012 410v-77h-325.012v77h325.012z" />
    <glyph glyph-name="uni0493" unicode="&#x493;" horiz-adv-x="430" 
d="M410 459l-191 3q-55 0 -55 -75v-385h-88v385q2 152 143 152l191 -3v-77zM301 304v-67h-294v67h294z" />
    <glyph glyph-name="uni0494" unicode="&#x494;" horiz-adv-x="614" 
d="M169 412h159q261 0 261 -283q0 -274 -261 -274v77q174 0 174 197q0 206 -174 206h-159v-333h-87v587q2 152 163 152l310 -8v-77l-310 8q-76 0 -76 -75v-177z" />
    <glyph glyph-name="uni0495" unicode="&#x495;" horiz-adv-x="485" 
d="M154 292h65q241 0 241 -223q0 -214 -241 -214v77q154 0 154 137q0 146 -154 146h-65v-213h-88v385q2 152 143 152l191 -3v-77l-191 3q-55 0 -55 -75v-95z" />
    <glyph glyph-name="uni0496" unicode="&#x496;" horiz-adv-x="945" 
d="M516 407h67q107 2 136.5 128t107.5 206h103q-81 -83 -121.5 -223.5t-128.5 -148.5q87 -15 127 -151t121 -218h-100q-79 79 -108 200t-137 130h-67v-330h-87v330h-67q-108 -9 -137 -130t-108 -200h-100q81 82 121 218t127 151q-88 8 -128.5 148.5t-121.5 223.5h103
q78 -80 107.5 -206t136.5 -128h67v334h87v-334zM928 84v-243h-87v243h87z" />
    <glyph glyph-name="uni0497" unicode="&#x497;" horiz-adv-x="791" 
d="M344 307v234h87v-234h57q47 2 81.5 88t92.5 146h93q-61 -63 -101.5 -163.5t-88.5 -108.5q47 -15 92 -111t106 -158h-90q-59 59 -98 144.5t-87 85.5h-57v-230h-87v230h-57q-48 0 -87 -85.5t-98 -144.5h-90q61 62 106 158t92 111q-48 8 -88.5 108.5t-101.5 163.5h93
q58 -60 92.5 -146t81.5 -88h57zM763 84v-243h-87v243h87z" />
    <glyph glyph-name="uni0498" unicode="&#x498;" horiz-adv-x="552" 
d="M278 4q-138 1 -235 20l11 70q87 -7 224 -8q174 0 174 109q0 144 -122 149h-179v77h179q102 15 102 120q0 119 -154 119q-125 -2 -212 -7l-5 72q93 15 217 17q132 0 186.5 -47t54.5 -154q0 -125 -82 -158q102 -25 102 -188q0 -107 -62 -149t-199 -42zM335 74v-243h-87v243
h87z" />
    <glyph glyph-name="uni0499" unicode="&#x499;" horiz-adv-x="429" 
d="M208 0q-90 1 -183 9l11 75q83 -6 172 -6q61 1 90.5 17.5t32.5 46.5q0 88 -91 88h-152v77h152q94 0 94 83q-3 42 -33 56t-93 15q-95 -1 -161 -6l-8 75q74 7 169 9q97 -1 148.5 -33.5t54.5 -115.5q0 -107 -71 -120q79 -16 79 -129q-6 -81 -58 -110t-153 -31zM266 74v-243
h-87v243h87z" />
    <glyph glyph-name="uni049A" unicode="&#x49a;" horiz-adv-x="638" 
d="M253 407q107 2 136.5 128t107.5 206h103q-81 -83 -121.5 -223.5t-128.5 -148.5q87 -15 127 -151t121 -218h-100q-79 79 -108 200t-137 130h-87v-330h-87v741h87v-334h87zM599 84v-243h-87v243h87z" />
    <glyph glyph-name="uni049B" unicode="&#x49b;" horiz-adv-x="519" 
d="M219 307q47 2 81.5 88t92.5 146h93q-61 -63 -101.5 -163.5t-88.5 -108.5q47 -15 92 -111t106 -158h-90q-59 59 -98 144.5t-87 85.5h-67v-230h-87v541h87v-234h67zM494 84v-243h-87v243h87z" />
    <glyph glyph-name="uni049C" unicode="&#x49c;" horiz-adv-x="638" 
d="M206 330h-40v-330h-87v741h87v-334h40v96h67v-94q90 12 117 126q29 126 107 206h103q-81 -83 -121.5 -223.5t-128.5 -148.5q87 -15 127 -151t121 -218h-100q-79 79 -108 200q-26 109 -117 127v-118h-67v121z" />
    <glyph glyph-name="uni049D" unicode="&#x49d;" horiz-adv-x="499" 
d="M180 230h-28v-230h-87v541h87v-234h28v96h67v-87q30 20 54 79q34 86 92 146h93q-61 -63 -101.5 -163.5t-88.5 -108.5q47 -15 92 -111t106 -158h-90q-59 59 -98 145q-27 59 -59 77v-113h-67v121z" />
    <glyph glyph-name="uni049E" unicode="&#x49e;" horiz-adv-x="638" 
d="M166 604v-197h87q107 2 136.5 128t107.5 206h103q-81 -83 -121.5 -223.5t-128.5 -148.5q87 -15 127 -151t121 -218h-100q-79 79 -108 200t-137 130h-87v-330h-87v604h-75v67h75v70h87v-70h132v-67h-132z" />
    <glyph glyph-name="uni049F" unicode="&#x49f;" horiz-adv-x="513" 
d="M166 307h67q47 2 81.5 88t92.5 146h93q-61 -63 -101.5 -163.5t-88.5 -108.5q47 -15 92 -111t106 -158h-90q-59 59 -98 144.5t-87 85.5h-67v-230h-87v631h-75v67h75v53h87v-53h132v-67h-132v-324z" />
    <glyph glyph-name="uni04A0" unicode="&#x4a0;" horiz-adv-x="799" 
d="M415 407q107 2 136.5 128t107.5 206h103q-81 -83 -121.5 -223.5t-128.5 -148.5q87 -15 127 -151t121 -218h-100q-79 79 -108 200t-137 130h-87v-330h-87v741h87v-334h87zM240.596 741v-67h-235.196v67h235.196z" />
    <glyph glyph-name="uni04A1" unicode="&#x4a1;" horiz-adv-x="615" 
d="M335 307q47 2 81.5 88t92.5 146h93q-61 -63 -101.5 -163.5t-88.5 -108.5q47 -15 92 -111t106 -158h-90q-59 59 -98 144.5t-87 85.5h-67v-230h-87v541h87v-234h67zM181.192 541v-67h-176.394v67h176.394z" />
    <glyph glyph-name="uni04A2" unicode="&#x4a2;" horiz-adv-x="696" 
d="M170 328v-324h-87v737h87v-326h345v326h87v-739h-87v326h-345zM669 84v-243h-87v243h87z" />
    <glyph glyph-name="uni04A3" unicode="&#x4a3;" horiz-adv-x="557" 
d="M400 309v230h87v-537h-87v230h-243v-228h-87v535h87v-230h243zM554 85v-243h-87v243h87z" />
    <glyph glyph-name="uni04A4" unicode="&#x4a4;" horiz-adv-x="1017" 
d="M514 328h-345v-324h-87v737h87v-326h345v174q2 152 163 152l310 -8v-77l-310 8q-76 0 -76 -75v-587h-87v326z" />
    <glyph glyph-name="uni04A5" unicode="&#x4a5;" horiz-adv-x="754" 
d="M400 232h-243v-228h-87v535h87v-230h243v78q2 152 143 152l191 -3v-77l-191 3q-55 0 -55 -75v-385h-88v230z" />
    <glyph glyph-name="uni04A6" unicode="&#x4a6;" horiz-adv-x="1083" 
d="M628 412h149q261 0 261 -283q0 -274 -261 -274v77q174 0 174 197q0 206 -174 206h-149v-335h-87v664h-374v-664h-87v741h548v-329z" />
    <glyph glyph-name="uni04A7" unicode="&#x4a7;" horiz-adv-x="838" 
d="M502 292h70q241 0 241 -223q0 -214 -241 -214v77q154 0 154 137q0 146 -154 146h-70v-215h-87v462h-263v-462h-87v539h437v-247z" />
    <glyph glyph-name="uni04A8" unicode="&#x4a8;" horiz-adv-x="860" 
d="M544 742q254 0 254 -304v-133q0 -152 -93 -228h115v-77h-156q-66 0 -120 9q-54 -9 -120 -9q-374 0 -374 305v133q0 304 254 304v-77q-167 0 -167 -227v-133q0 -210 244 -227q-91 77 -91 227v133q0 304 254 304zM544 90q167 41 167 215v133q0 227 -167 227t-167 -227v-133
q0 -174 167 -215z" />
    <glyph glyph-name="uni04A9" unicode="&#x4a9;" horiz-adv-x="667" 
d="M423 8q-43 -8 -94 -8q-284 0 -284 245v47q0 247 187 247v-77q-100 0 -100 -170v-47q0 -151 158 -166q-51 60 -51 166v47q0 247 187 247t187 -247v-47q0 -108 -55 -168h79v-77h-124q-50 0 -90 8zM423 90q103 34 103 155v47q0 170 -100 170t-100 -170v-47q0 -121 97 -155z
" />
    <glyph glyph-name="uni04AA" unicode="&#x4aa;" horiz-adv-x="583" 
d="M47 372q0 370 281 370q120 -5 224 -29l-16 -73q-90 18 -208 20q-194 0 -194 -288t194 -288q118 2 208 20l16 -73q-104 -24 -224 -29q-281 0 -281 370zM395 74v-243h-87v243h87z" />
    <glyph glyph-name="uni04AB" unicode="&#x4ab;" horiz-adv-x="501" 
d="M46 269q0 271 223 271q101 -2 199 -29l-13 -67q-92 14 -183 14q-139 0 -139 -189t139 -189q91 0 183 14l13 -67q-98 -27 -199 -29q-223 0 -223 271zM323 74v-243h-87v243h87z" />
    <glyph glyph-name="uni04AC" unicode="&#x4ac;" horiz-adv-x="567" 
d="M573 742v-77h-221v-663h-87v663h-239v77h547zM419 84v-243h-87v243h87z" />
    <glyph glyph-name="uni04AD" unicode="&#x4ad;" horiz-adv-x="469" 
d="M191 462h-180v77h447v-77h-180v-460h-87v460zM345 74v-243h-87v243h87z" />
    <glyph glyph-name="uni04AE" unicode="&#x4ae;" horiz-adv-x="577" 
d="M108 741l174 -334l14 -36l14 36l174 334h102l-247 -458v-281h-87v281l-247 458h103z" />
    <glyph glyph-name="uni04AF" unicode="&#x4af;" horiz-adv-x="510" 
d="M211 0l-189 538h89l146 -447q94 201 143 447h88q-56 -269 -189 -538v-216h-88v216z" />
    <glyph glyph-name="uni04B0" unicode="&#x4b0;" horiz-adv-x="564" 
d="M113 741l174 -334l14 -36l14 36l174 334h102l-247 -458v-281h-87v281l-247 458h103zM462.192 362v-67h-323.394v67h323.394z" />
    <glyph glyph-name="uni04B1" unicode="&#x4b1;" horiz-adv-x="490" 
d="M211 0l-189 538h89l146 -447q94 201 143 447h88q-56 -269 -189 -538v-216h-88v216zM402 71v-67h-294v67h294z" />
    <glyph glyph-name="uni04B2" unicode="&#x4b2;" horiz-adv-x="615" 
d="M316 325l-24 -42l-164 -284h-100l214 370l-215 371h100l165 -285l25 -43h5l25 43l165 285h100l-215 -371l214 -370h-100l-164 284l-24 42h-7zM611 111v-243h-87v243h87z" />
    <glyph glyph-name="uni04B3" unicode="&#x4b3;" horiz-adv-x="524" 
d="M252 226l-132 -227h-96l157 272l-155 268h96l132 -226h4l132 226h96l-155 -268l157 -272h-96l-132 227h-8zM498 84v-243h-87v243h87z" />
    <glyph glyph-name="uni04B4" unicode="&#x4b4;" horiz-adv-x="828" 
d="M165 664h-157v77h404v-77h-160v-587h374v664h87v-664h37q56 0 56 -77v-167h-77l-10 167h-554v664z" />
    <glyph glyph-name="uni04B5" unicode="&#x4b5;" horiz-adv-x="643" 
d="M125 462h-117v77h324v-77h-120v-385h263v462h87v-462q61 0 61 -43v-184h-77l-10 150h-411v462z" />
    <glyph glyph-name="uni04B6" unicode="&#x4b6;" horiz-adv-x="610" 
d="M458 0v340q-70 -50 -196 -51q-235 0 -235 203v249h87v-249q0 -126 148 -126q126 0 196 62v313h87v-741h-87zM612 83.5566v-242.557h-87v242.557h87z" />
    <glyph glyph-name="uni04B7" unicode="&#x4b7;" horiz-adv-x="495" 
d="M358 0v251q-40 -50 -136 -51q-195 0 -195 188v151h87v-151q0 -111 108 -111q96 0 136 52v210h87v-539h-87zM512 83.5566v-242.557h-87v242.557h87z" />
    <glyph glyph-name="uni04B8" unicode="&#x4b8;" horiz-adv-x="610" 
d="M321 370q84 11 137 58v313h87v-741h-87v340q-53 -38 -137 -47v-104h-67v100q-227 3 -227 203v249h87v-249q0 -123 140 -126v117h67v-113z" />
    <glyph glyph-name="uni04B9" unicode="&#x4b9;" horiz-adv-x="495" 
d="M271 281q58 10 87 48v210h87v-539h-87v251q-29 -36 -87 -47v-123h-67v119q-177 9 -177 188v151h87v-151q0 -101 90 -110v97h67v-94z" />
    <glyph glyph-name="uni04BA" unicode="&#x4ba;" horiz-adv-x="630" 
d="M151 741v-340q70 50 196 51q235 0 235 -203v-249h-87v249q0 126 -148 126q-126 0 -196 -62v-313h-87v741h87z" />
    <glyph glyph-name="uni04BB" unicode="&#x4bb;" horiz-adv-x="543" 
d="M161 762v-291q50 77 156 78q185 0 185 -218v-327h-87v327q0 141 -98 141q-106 0 -156 -102v-366h-87v758h87z" />
    <glyph glyph-name="uni04BC" unicode="&#x4bc;" horiz-adv-x="791" 
d="M240 399h375q32 0 32 41q0 221 -173 223h-27q-205 0 -207 -264zM155 325q-149 3 -149 121q0 53 29 83l56 -12q-8 -25 -8 -71q0 -43 70 -47q14 341 294 341h27q255 0 260 -300q0 -115 -119 -115h-370q22 -244 222 -244q112 0 211 20l17 -65q-113 -37 -231 -37
q-284 0 -309 326z" />
    <glyph glyph-name="uni04BD" unicode="&#x4bd;" horiz-adv-x="629" 
d="M232 302h235q32 0 32 31q0 134 -113 136h-27q-125 0 -127 -167zM149 228q-143 2 -143 131q0 43 29 83l56 -12q-8 -35 -8 -71q0 -49 62 -56q14 243 214 243h27q195 0 200 -213q0 -105 -119 -105h-230q22 -147 152 -147q92 0 171 20l17 -65q-93 -37 -191 -37
q-212 0 -237 229z" />
    <glyph glyph-name="uni04BE" unicode="&#x4be;" horiz-adv-x="791" 
d="M240 399h375q32 0 32 41q0 221 -173 223h-27q-205 0 -207 -264zM155 325q-149 3 -149 121q0 53 29 83l56 -12q-8 -25 -8 -71q0 -43 70 -47q14 341 294 341h27q255 0 260 -300q0 -115 -119 -115h-370q22 -244 222 -244q112 0 211 20l17 -65q-113 -37 -231 -37
q-284 0 -309 326zM506 74v-243h-87v243h87z" />
    <glyph glyph-name="uni04BF" unicode="&#x4bf;" horiz-adv-x="629" 
d="M233 302h235q32 0 32 31q0 134 -113 136h-27q-125 0 -127 -167zM150 228q-143 2 -143 131q0 43 29 83l56 -12q-8 -35 -8 -71q0 -49 62 -56q14 243 214 243h27q195 0 200 -213q0 -105 -119 -105h-230q22 -147 152 -147q92 0 171 20l17 -65q-93 -37 -191 -37
q-212 0 -237 229zM427 74v-243h-87v243h87z" />
    <glyph glyph-name="uni04C0" unicode="&#x4c0;" horiz-adv-x="264" 
d="M162 741v-739h-87v739h87z" />
    <glyph glyph-name="uni04C1" unicode="&#x4c1;" horiz-adv-x="945" 
d="M516 407h67q107 2 136.5 128t107.5 206h103q-81 -83 -121.5 -223.5t-128.5 -148.5q87 -15 127 -151t121 -218h-100q-79 79 -108 200t-137 130h-67v-330h-87v330h-67q-108 -9 -137 -130t-108 -200h-100q81 82 121 218t127 151q-88 8 -128.5 148.5t-121.5 223.5h103
q78 -80 107.5 -206t136.5 -128h67v334h87v-334zM354 929h57q0 -70 62 -70q61 0 61 70h57q0 -133 -118 -133q-119 0 -119 133z" />
    <glyph glyph-name="uni04C2" unicode="&#x4c2;" horiz-adv-x="791" 
d="M344 307v234h87v-234h57q47 2 81.5 88t92.5 146h93q-61 -63 -101.5 -163.5t-88.5 -108.5q47 -15 92 -111t106 -158h-90q-59 59 -98 144.5t-87 85.5h-57v-230h-87v230h-57q-48 0 -87 -85.5t-98 -144.5h-90q61 62 106 158t92 111q-48 8 -88.5 108.5t-101.5 163.5h93
q58 -60 92.5 -146t81.5 -88h57zM269 713h57q0 -70 62 -70q61 0 61 70h57q0 -133 -118 -133q-119 0 -119 133z" />
    <glyph glyph-name="uni04C3" unicode="&#x4c3;" horiz-adv-x="614" 
d="M156 330v-330h-87v741h87v-334h87q107 2 136.5 128t107.5 206h103q-81 -83 -121 -223q-23 -78 -70 -116q205 -31 205 -283q0 -274 -281 -274v77q194 0 194 197q0 211 -174 211h-187z" />
    <glyph glyph-name="uni04C4" unicode="&#x4c4;" horiz-adv-x="508" 
d="M219 230h-67v-230h-87v541h87v-234h67q47 2 81.5 88t92.5 146h93q-61 -63 -101 -163q-23 -57 -48 -84q163 -43 163 -221q0 -234 -281 -234v77q194 0 194 157t-194 157z" />
    <glyph glyph-name="uni04C5" unicode="&#x4c5;" horiz-adv-x="713" 
d="M628 0h-87v664h-161q-131 0 -131 -145v-214q0 -305 -234 -305v77q147 0 147 228v214q0 222 218 222h248v-741zM677 63q-4 -104 -65 -221l-66 23q45 92 50 198h81z" />
    <glyph glyph-name="uni04C6" unicode="&#x4c6;" horiz-adv-x="577" 
d="M307 539h220v-539h-87v462h-133q-90 0 -90 -120v-165q0 -177 -197 -177v77q110 0 110 100v165q0 197 177 197zM566 62q-4 -104 -65 -221l-66 23q45 92 50 198h81z" />
    <glyph glyph-name="uni04C7" unicode="&#x4c7;" horiz-adv-x="696" 
d="M170 328v-324h-87v737h87v-326h345v326h87v-739h-87v326h-345zM468 -117q47 0 47 69v138h87v-138q0 -151 -134 -151q-44 0 -73 14l6 76q38 -8 67 -8z" />
    <glyph glyph-name="uni04C8" unicode="&#x4c8;" horiz-adv-x="557" 
d="M400 309v230h87v-537h-87v230h-243v-228h-87v535h87v-230h243zM353 -117q47 0 47 69v138h87v-138q0 -151 -134 -151q-44 0 -73 14l6 76q38 -8 67 -8z" />
    <glyph glyph-name="uni04C9" unicode="&#x4c9;" horiz-adv-x="696" 
d="M170 328v-324h-87v737h87v-326h345v326h87v-739h-87v326h-345zM683 63q-4 -104 -65 -221l-66 23q45 92 50 198h81z" />
    <glyph glyph-name="uni04CA" unicode="&#x4ca;" horiz-adv-x="557" 
d="M400 309v230h87v-537h-87v230h-243v-228h-87v535h87v-230h243zM568 63q-4 -104 -65 -221l-66 23q45 92 50 198h81z" />
    <glyph glyph-name="uni04CB" unicode="&#x4cb;" horiz-adv-x="610" 
d="M458 0v340q-70 -50 -196 -51q-235 0 -235 203v249h87v-249q0 -126 148 -126q126 0 196 62v313h87v-741h-87zM478 84v-243h-87v243h87z" />
    <glyph glyph-name="uni04CC" unicode="&#x4cc;" horiz-adv-x="495" 
d="M358 0v251q-40 -50 -136 -51q-195 0 -195 188v151h87v-151q0 -111 108 -111q96 0 136 52v210h87v-539h-87zM378 84v-243h-87v243h87z" />
    <glyph glyph-name="uni04CD" unicode="&#x4cd;" horiz-adv-x="851" 
d="M423 0q-44 0 -59 32l-192 606v-638h-87v719q0 24 15 24h87q32 0 43 -25l199 -638l198 638q11 25 43 25h87q15 0 15 -24v-719h-87v638l-192 -606q-15 -32 -59 -32h-11zM853 63q-4 -104 -65 -221l-66 23q45 92 50 198h81z" />
    <glyph glyph-name="uni04CE" unicode="&#x4ce;" horiz-adv-x="667" 
d="M328 0q-44 0 -59 32l-122 406v-438h-87v519q0 24 15 24h87q32 0 43 -25l129 -438l128 438q11 25 43 25h87q15 0 15 -24v-519h-87v438l-122 -406q-15 -32 -59 -32h-11zM688 63q-4 -104 -65 -221l-66 23q45 92 50 198h81z" />
    <glyph glyph-name="uni04CF" unicode="&#x4cf;" horiz-adv-x="274" 
d="M161 762v-586q0 -94 55 -94h48l2 -60q-21 -18 -80 -18q-112 0 -112 174v584h87z" />
    <glyph glyph-name="uni04D0" unicode="&#x4d0;" horiz-adv-x="630" 
d="M171 208l-68 -206h-89l241 710q11 29 31 29h56q22 0 33 -29l241 -710h-89l-68 206h-288zM434 285l-119 359l-119 -359h238zM197 929h57q0 -70 62 -70q61 0 61 70h57q0 -133 -118 -133q-119 0 -119 133z" />
    <glyph glyph-name="uni04D1" unicode="&#x4d1;" horiz-adv-x="522" 
d="M374 255h-69q-80 0 -121 -12q-59 -15 -61 -85q0 -84 93 -84q92 3 158 94v87zM460 352v-350h-76l-10 79q-63 -77 -158 -79q-180 0 -180 156q3 132 149 162q59 12 120 12h69v20q0 110 -112 110q-79 -4 -156 -34l-24 67q67 44 180 44q198 0 198 -187zM138 713h57
q0 -70 62 -70q61 0 61 70h57q0 -133 -118 -133q-119 0 -119 133z" />
    <glyph glyph-name="uni04D2" unicode="&#x4d2;" horiz-adv-x="630" 
d="M169 208l-68 -206h-89l241 710q11 29 31 29h56q22 0 33 -29l241 -710h-89l-68 206h-288zM432 285l-119 359l-119 -359h238zM128 843v23q0 42 42 42h23q42 0 42 -42v-23q0 -42 -42 -42h-23q-42 0 -42 42zM342 843v23q0 42 42 42h23q42 0 42 -42v-23q0 -42 -42 -42h-23
q-42 0 -42 42z" />
    <glyph glyph-name="uni04D3" unicode="&#x4d3;" horiz-adv-x="522" 
d="M370 255h-69q-80 0 -121 -12q-59 -15 -61 -85q0 -84 93 -84q92 3 158 94v87zM456 352v-350h-76l-10 79q-63 -77 -158 -79q-180 0 -180 156q3 132 149 162q59 12 120 12h69v20q0 110 -112 110q-79 -4 -156 -34l-24 67q67 44 180 44q198 0 198 -187zM80 641v23q0 42 42 42
h23q42 0 42 -42v-23q0 -42 -42 -42h-23q-42 0 -42 42zM294 641v23q0 42 42 42h23q42 0 42 -42v-23q0 -42 -42 -42h-23q-42 0 -42 42z" />
    <glyph glyph-name="uni04D4" unicode="&#x4d4;" horiz-adv-x="857" 
d="M437 285v299q1 40 11 70h-17l-179 -369h185zM603 741q119 0 237 -10v-72h-241q-75 0 -75 -75v-173h254v-82h-254v-170q0 -75 75 -75h241v-72q-120 -10 -241 -10q-160 0 -162 157v49h-222l-100 -206h-89l341 710q11 29 31 29h205z" />
    <glyph glyph-name="uni04D5" unicode="&#x4d5;" horiz-adv-x="889" 
d="M382 255h-69q-80 0 -121 -12q-59 -15 -61 -85q0 -84 93 -84q92 3 158 94v87zM468 302h235q32 0 32 31q0 134 -113 136h-27q-125 0 -127 -167zM425 121q-79 -117 -201 -119q-180 0 -180 156q3 132 149 162q59 12 120 12h69v20q0 110 -112 110q-79 -4 -156 -34l-24 67
q67 44 180 44q115 0 163 -93q54 100 162 100h27q195 0 200 -213q0 -105 -119 -105h-230q22 -147 152 -147q92 0 171 20l17 -65q-93 -37 -191 -37q-136 0 -197 122z" />
    <glyph glyph-name="uni04D6" unicode="&#x4d6;" horiz-adv-x="544" 
d="M54 159v425q2 157 162 157q141 0 301 -10v-72h-301q-75 0 -75 -75v-173h314v-82h-314v-170q0 -75 75 -75h301v-72q-160 -10 -301 -10q-160 0 -162 157zM188 911h57q0 -70 62 -70q61 0 61 70h57q0 -133 -118 -133q-119 0 -119 133z" />
    <glyph glyph-name="uni04D7" unicode="&#x4d7;" horiz-adv-x="521" 
d="M133 302h235q32 0 32 31q0 134 -113 136h-27q-125 0 -127 -167zM138 228q22 -147 152 -147q92 0 171 20l17 -65q-93 -37 -191 -37q-241 0 -241 297q11 250 214 250h27q195 0 200 -213q0 -105 -119 -105h-230zM137 713h57q0 -70 62 -70q61 0 61 70h57q0 -133 -118 -133
q-119 0 -119 133z" />
    <glyph glyph-name="uni04D8" unicode="&#x4d8;" horiz-adv-x="686" 
d="M330 76h27q197 0 197 273h-355q-52 0 -52 -70q0 -201 183 -203zM641 369v-18q-11 -352 -284 -352h-27q-265 0 -270 280q0 147 139 147h355q-16 236 -217 236q-112 0 -193 -33l-12 76q90 34 208 34q284 0 300 -343z" />
    <glyph glyph-name="uni04D9" unicode="&#x4d9;" horiz-adv-x="521" 
d="M398 234h-235q-32 0 -32 -31q0 -134 113 -136h27q125 0 127 167zM393 308q-22 147 -152 147q-92 0 -171 -20l-17 65q93 37 191 37q241 0 241 -297q-11 -250 -214 -250h-27q-195 0 -200 213q0 105 119 105h230z" />
    <glyph glyph-name="uni04DA" unicode="&#x4da;" horiz-adv-x="686" 
d="M330 76h27q197 0 197 273h-355q-52 0 -52 -70q0 -201 183 -203zM641 369v-18q-11 -352 -284 -352h-27q-265 0 -270 280q0 147 139 147h355q-16 236 -217 236q-112 0 -193 -33l-12 76q90 34 208 34q284 0 300 -343zM189 871v23q0 42 42 42h23q42 0 42 -42v-23
q0 -42 -42 -42h-23q-42 0 -42 42zM403 871v23q0 42 42 42h23q42 0 42 -42v-23q0 -42 -42 -42h-23q-42 0 -42 42z" />
    <glyph glyph-name="uni04DB" unicode="&#x4db;" horiz-adv-x="521" 
d="M398 234h-235q-32 0 -32 -31q0 -134 113 -136h27q125 0 127 167zM393 308q-22 147 -152 147q-92 0 -171 -20l-17 65q93 37 191 37q241 0 241 -297q-11 -250 -214 -250h-27q-195 0 -200 213q0 105 119 105h230zM93 641v23q0 42 42 42h23q42 0 42 -42v-23q0 -42 -42 -42
h-23q-42 0 -42 42zM307 641v23q0 42 42 42h23q42 0 42 -42v-23q0 -42 -42 -42h-23q-42 0 -42 42z" />
    <glyph glyph-name="uni04DC" unicode="&#x4dc;" horiz-adv-x="945" 
d="M516 407h67q107 2 136.5 128t107.5 206h103q-81 -83 -121.5 -223.5t-128.5 -148.5q87 -15 127 -151t121 -218h-100q-79 79 -108 200t-137 130h-67v-330h-87v330h-67q-108 -9 -137 -130t-108 -200h-100q81 82 121 218t127 151q-88 8 -128.5 148.5t-121.5 223.5h103
q78 -80 107.5 -206t136.5 -128h67v334h87v-334zM312 843v23q0 42 42 42h23q42 0 42 -42v-23q0 -42 -42 -42h-23q-42 0 -42 42zM526 843v23q0 42 42 42h23q42 0 42 -42v-23q0 -42 -42 -42h-23q-42 0 -42 42z" />
    <glyph glyph-name="uni04DD" unicode="&#x4dd;" horiz-adv-x="791" 
d="M344 307v234h87v-234h57q47 2 81.5 88t92.5 146h93q-61 -63 -101.5 -163.5t-88.5 -108.5q47 -15 92 -111t106 -158h-90q-59 59 -98 144.5t-87 85.5h-57v-230h-87v230h-57q-48 0 -87 -85.5t-98 -144.5h-90q61 62 106 158t92 111q-48 8 -88.5 108.5t-101.5 163.5h93
q58 -60 92.5 -146t81.5 -88h57zM227 641v23q0 42 42 42h23q42 0 42 -42v-23q0 -42 -42 -42h-23q-42 0 -42 42zM441 641v23q0 42 42 42h23q42 0 42 -42v-23q0 -42 -42 -42h-23q-42 0 -42 42z" />
    <glyph glyph-name="uni04DE" unicode="&#x4de;" horiz-adv-x="552" 
d="M278 4q-138 1 -235 20l11 70q87 -7 224 -8q174 0 174 109q0 144 -122 149h-179v77h179q102 15 102 120q0 119 -154 119q-125 -2 -212 -7l-5 72q93 15 217 17q132 0 186.5 -47t54.5 -154q0 -125 -82 -158q102 -25 102 -188q0 -107 -62 -149t-199 -42zM131 843v23
q0 42 42 42h23q42 0 42 -42v-23q0 -42 -42 -42h-23q-42 0 -42 42zM345 843v23q0 42 42 42h23q42 0 42 -42v-23q0 -42 -42 -42h-23q-42 0 -42 42z" />
    <glyph glyph-name="uni04DF" unicode="&#x4df;" horiz-adv-x="429" 
d="M208 0q-90 1 -183 9l11 75q83 -6 172 -6q61 1 90.5 17.5t32.5 46.5q0 88 -91 88h-152v77h152q94 0 94 83q-3 42 -33 56t-93 15q-95 -1 -161 -6l-8 75q74 7 169 9q97 -1 148.5 -33.5t54.5 -115.5q0 -107 -71 -120q79 -16 79 -129q-6 -81 -58 -110t-153 -31zM46 641v23
q0 42 42 42h23q42 0 42 -42v-23q0 -42 -42 -42h-23q-42 0 -42 42zM260 641v23q0 42 42 42h23q42 0 42 -42v-23q0 -42 -42 -42h-23q-42 0 -42 42z" />
    <glyph glyph-name="uni04E0" unicode="&#x4e0;" horiz-adv-x="565" 
d="M171 456l188 208h-289v77h411v-57l-207 -228h25q114 0 167.5 -58t53.5 -158q0 -115 -68.5 -175.5t-182.5 -60.5q-108 0 -218 51l31 73q80 -47 187 -47q81 0 122.5 47t41.5 112q0 50 -31.5 94.5t-112.5 44.5h-118v77z" />
    <glyph glyph-name="uni04E1" unicode="&#x4e1;" horiz-adv-x="565" 
d="M171 254l188 208h-289v77h411v-57l-207 -228h25q114 0 167.5 -58t53.5 -158q0 -115 -68.5 -175.5t-182.5 -60.5q-108 0 -218 51l31 73q80 -47 187 -47q81 0 122.5 47t41.5 112q0 50 -31.5 94.5t-112.5 44.5h-118v77z" />
    <glyph glyph-name="uni04E2" unicode="&#x4e2;" horiz-adv-x="699" 
d="M530 3v624l-311 -592q-15 -32 -53 -32h-69q-15 0 -15 22v715h87v-619l313 596q11 25 43 25h77q15 0 15 -24v-715h-87zM507 903v-67h-315v67h315z" />
    <glyph glyph-name="uni04E3" unicode="&#x4e3;" horiz-adv-x="551" 
d="M404 0v414l-220 -389q-17 -25 -33 -25h-77q-15 0 -15 20v519h87v-411l232 392q12 20 33 20h66q15 0 15 -21v-519h-88zM433 674v-67h-315v67h315z" />
    <glyph glyph-name="uni04E4" unicode="&#x4e4;" horiz-adv-x="700" 
d="M520 3v624l-311 -592q-15 -32 -53 -32h-69q-15 0 -15 22v715h87v-619l313 596q11 25 43 25h77q15 0 15 -24v-715h-87zM198 843v23q0 42 42 42h23q42 0 42 -42v-23q0 -42 -42 -42h-23q-42 0 -42 42zM412 843v23q0 42 42 42h23q42 0 42 -42v-23q0 -42 -42 -42h-23
q-42 0 -42 42z" />
    <glyph glyph-name="uni04E5" unicode="&#x4e5;" horiz-adv-x="551" 
d="M404 0v414l-220 -389q-17 -25 -33 -25h-77q-15 0 -15 20v519h87v-411l232 392q12 20 33 20h66q15 0 15 -21v-519h-88zM115 641v23q0 42 42 42h23q42 0 42 -42v-23q0 -42 -42 -42h-23q-42 0 -42 42zM329 641v23q0 42 42 42h23q42 0 42 -42v-23q0 -42 -42 -42h-23
q-42 0 -42 42z" />
    <glyph glyph-name="uni04E6" unicode="&#x4e6;" horiz-adv-x="659" 
d="M358 0h-57q-254 0 -254 335v73q0 334 254 334h57q254 0 254 -334v-73q0 -335 -254 -335zM134 408v-73q0 -258 167 -258h57q167 0 167 258v73q0 257 -167 257h-57q-167 0 -167 -257zM169 843v23q0 42 42 42h23q42 0 42 -42v-23q0 -42 -42 -42h-23q-42 0 -42 42zM383 843
v23q0 42 42 42h23q42 0 42 -42v-23q0 -42 -42 -42h-23q-42 0 -42 42z" />
    <glyph glyph-name="uni04E7" unicode="&#x4e7;" horiz-adv-x="571" 
d="M524 255q0 -255 -230 -255h-20q-227 0 -227 255v27q0 257 227 257h20q230 0 230 -257v-27zM274 462q-140 0 -140 -180v-27q0 -178 140 -178h20q143 0 143 178v27q0 180 -143 180h-20zM125 641v23q0 42 42 42h23q42 0 42 -42v-23q0 -42 -42 -42h-23q-42 0 -42 42zM339 641
v23q0 42 42 42h23q42 0 42 -42v-23q0 -42 -42 -42h-23q-42 0 -42 42z" />
    <glyph glyph-name="uni04E8" unicode="&#x4e8;" horiz-adv-x="659" 
d="M525 412v16q0 237 -177 237h-47q-177 0 -177 -237v-16h401zM124 335v-16q0 -238 177 -238h47q177 0 177 238v16h-401zM348 4h-47q-254 0 -254 325v89q0 324 254 324h47q254 0 254 -324v-89q0 -325 -254 -325z" />
    <glyph glyph-name="uni04E9" unicode="&#x4e9;" horiz-adv-x="547" 
d="M415 308v4q0 150 -143 150h-20q-140 0 -140 -150v-4h303zM112 231v-6q0 -148 140 -148h20q143 0 143 148v6h-303zM502 225q0 -225 -230 -225h-20q-227 0 -227 225v87q0 227 227 227h20q230 0 230 -227v-87z" />
    <glyph glyph-name="uni04EA" unicode="&#x4ea;" horiz-adv-x="655" 
d="M528 412v16q0 237 -177 237h-47q-177 0 -177 -237v-16h401zM127 335v-16q0 -238 177 -238h47q177 0 177 238v16h-401zM351 4h-47q-254 0 -254 325v89q0 324 254 324h47q254 0 254 -324v-89q0 -325 -254 -325zM166 849v23q0 42 42 42h23q42 0 42 -42v-23q0 -42 -42 -42
h-23q-42 0 -42 42zM380 849v23q0 42 42 42h23q42 0 42 -42v-23q0 -42 -42 -42h-23q-42 0 -42 42z" />
    <glyph glyph-name="uni04EB" unicode="&#x4eb;" horiz-adv-x="547" 
d="M415 308v4q0 150 -143 150h-20q-140 0 -140 -150v-4h303zM112 231v-6q0 -148 140 -148h20q143 0 143 148v6h-303zM502 225q0 -225 -230 -225h-20q-227 0 -227 225v87q0 227 227 227h20q230 0 230 -227v-87zM112 641v23q0 42 42 42h23q42 0 42 -42v-23q0 -42 -42 -42h-23
q-42 0 -42 42zM326 641v23q0 42 42 42h23q42 0 42 -42v-23q0 -42 -42 -42h-23q-42 0 -42 42z" />
    <glyph glyph-name="uni04EC" unicode="&#x4ec;" horiz-adv-x="622" 
d="M271 660q-118 -2 -208 -20l-16 73q104 24 224 29q281 0 281 -370t-281 -370q-120 5 -224 29l16 73q90 -18 208 -20q181 0 193 250h-306v77h306q-13 249 -193 249zM146 857v23q0 42 42 42h23q42 0 42 -42v-23q0 -42 -42 -42h-23q-42 0 -42 42zM360 857v23q0 42 42 42h23
q42 0 42 -42v-23q0 -42 -42 -42h-23q-42 0 -42 42z" />
    <glyph glyph-name="uni04ED" unicode="&#x4ed;" horiz-adv-x="503" 
d="M220 458q-81 0 -173 -14l-13 67q98 27 189 29q233 0 233 -271t-233 -271q-91 2 -189 29l13 67q92 -14 173 -14q133 0 147 151h-226v77h226q-14 150 -147 150zM67 641v23q0 42 42 42h23q42 0 42 -42v-23q0 -42 -42 -42h-23q-42 0 -42 42zM281 641v23q0 42 42 42h23
q42 0 42 -42v-23q0 -42 -42 -42h-23q-42 0 -42 42z" />
    <glyph glyph-name="uni04EE" unicode="&#x4ee;" horiz-adv-x="576" 
d="M255 222q-21 0 -42 56l-205 461h93l179 -406q6 -14 8 -14l187 420h93l-224 -517q-57 -139 -172 -229l-44 50q92 99 127 179zM433 908v-67h-315v67h315z" />
    <glyph glyph-name="uni04EF" unicode="&#x4ef;" horiz-adv-x="504" 
d="M228 2q-31 0 -52 56l-160 481h93l139 -430q6 -24 8 -24l147 454h93l-180 -537q-57 -139 -176 -229l-44 50q92 99 132 179zM407 674v-67h-315v67h315z" />
    <glyph glyph-name="uni04F0" unicode="&#x4f0;" horiz-adv-x="576" 
d="M255 222q-21 0 -42 56l-205 461h93l179 -406q6 -14 8 -14l187 420h93l-224 -517q-57 -139 -172 -229l-44 50q92 99 127 179zM128 843v23q0 42 42 42h23q42 0 42 -42v-23q0 -42 -42 -42h-23q-42 0 -42 42zM342 843v23q0 42 42 42h23q42 0 42 -42v-23q0 -42 -42 -42h-23
q-42 0 -42 42z" />
    <glyph glyph-name="uni04F1" unicode="&#x4f1;" horiz-adv-x="504" 
d="M228 2q-31 0 -52 56l-160 481h93l139 -430q6 -24 8 -24l147 454h93l-180 -537q-57 -139 -176 -229l-44 50q92 99 132 179zM88 641v23q0 42 42 42h23q42 0 42 -42v-23q0 -42 -42 -42h-23q-42 0 -42 42zM302 641v23q0 42 42 42h23q42 0 42 -42v-23q0 -42 -42 -42h-23
q-42 0 -42 42z" />
    <glyph glyph-name="uni04F2" unicode="&#x4f2;" horiz-adv-x="576" 
d="M255 222q-21 0 -42 56l-205 461h93l179 -406q6 -14 8 -14l187 420h93l-224 -517q-57 -139 -172 -229l-44 50q92 99 127 179zM331 928l-156 -111l-42 52l145 125zM487 928l-156 -111l-42 52l145 125z" />
    <glyph glyph-name="uni04F3" unicode="&#x4f3;" horiz-adv-x="504" 
d="M222 2q-31 0 -52 56l-160 481h93l139 -430q6 -24 8 -24l147 454h93l-180 -537q-57 -139 -176 -229l-44 50q92 99 132 179zM299 714l-156 -111l-42 52l145 125zM455 714l-156 -111l-42 52l145 125z" />
    <glyph glyph-name="uni04F4" unicode="&#x4f4;" horiz-adv-x="610" 
d="M505 0v340q-70 -50 -196 -51q-235 0 -235 203v249h87v-249q0 -126 148 -126q126 0 196 62v313h87v-741h-87zM172 843v23q0 42 42 42h23q42 0 42 -42v-23q0 -42 -42 -42h-23q-42 0 -42 42zM386 843v23q0 42 42 42h23q42 0 42 -42v-23q0 -42 -42 -42h-23q-42 0 -42 42z" />
    <glyph glyph-name="uni04F5" unicode="&#x4f5;" horiz-adv-x="495" 
d="M358 0v251q-40 -50 -136 -51q-195 0 -195 188v151h87v-151q0 -111 108 -111q96 0 136 52v210h87v-539h-87zM75 641v23q0 42 42 42h23q42 0 42 -42v-23q0 -42 -42 -42h-23q-42 0 -42 42zM289 641v23q0 42 42 42h23q42 0 42 -42v-23q0 -42 -42 -42h-23q-42 0 -42 42z" />
    <glyph glyph-name="uni04F6" unicode="&#x4f6;" horiz-adv-x="586" 
d="M555 656l-310 8q-76 0 -76 -75v-587h-87v587q2 152 163 152l310 -8v-77zM236 84v-243h-87v243h87z" />
    <glyph glyph-name="uni04F7" unicode="&#x4f7;" horiz-adv-x="420" 
d="M400 459l-191 3q-55 0 -55 -75v-385h-88v385q2 152 143 152l191 -3v-77zM221 84v-243h-87v243h87z" />
    <glyph glyph-name="uni04F8" unicode="&#x4f8;" horiz-adv-x="817" 
d="M777 741v-739h-87v739h87zM169 345v-268h139q182 0 182 133q0 135 -182 135h-139zM577 210q0 -210 -269 -210h-226v741h87v-319h139q269 0 269 -212zM247 861v23q0 42 42 42h23q42 0 42 -42v-23q0 -42 -42 -42h-23q-42 0 -42 42zM461 861v23q0 42 42 42h23q42 0 42 -42
v-23q0 -42 -42 -42h-23q-42 0 -42 42z" />
    <glyph glyph-name="uni04F9" unicode="&#x4f9;" horiz-adv-x="746" 
d="M157 275v-198h129q132 0 132 93q0 105 -132 105h-129zM505 170q0 -170 -219 -170h-216v541h87v-189h129q219 0 219 -182zM683 539v-539h-87v539h87zM216 641v23q0 42 42 42h23q42 0 42 -42v-23q0 -42 -42 -42h-23q-42 0 -42 42zM430 641v23q0 42 42 42h23q42 0 42 -42
v-23q0 -42 -42 -42h-23q-42 0 -42 42z" />
    <glyph glyph-name="uni04FA" unicode="&#x4fa;" horiz-adv-x="586" 
d="M555 656l-310 8q-76 0 -76 -75v-587h-87v587q2 152 163 152l310 -8v-77zM352.012 410v-77h-325.012v77h325.012zM33 -117q47 0 47 69v138h87v-138q0 -151 -134 -151q-44 0 -73 14l6 76q38 -8 67 -8z" />
    <glyph glyph-name="uni04FB" unicode="&#x4fb;" horiz-adv-x="430" 
d="M410 459l-191 3q-55 0 -55 -75v-385h-88v385q2 152 143 152l191 -3v-77zM301 304v-67h-294v67h294zM27 -117q47 0 47 69v138h87v-138q0 -151 -134 -151q-44 0 -73 14l6 76q38 -8 67 -8z" />
    <glyph glyph-name="uni04FC" unicode="&#x4fc;" horiz-adv-x="644" 
d="M317 325l-24 -42l-164 -284h-100l214 370l-215 371h100l165 -285l25 -43h5l25 43l165 285h100l-215 -371l214 -370h-100l-164 284l-24 42h-7zM471 -117q47 0 47 69v138h87v-138q0 -151 -134 -151q-44 0 -73 14l6 76q38 -8 67 -8z" />
    <glyph glyph-name="uni04FD" unicode="&#x4fd;" horiz-adv-x="524" 
d="M252 226l-132 -227h-96l157 272l-155 268h96l132 -226h4l132 226h96l-155 -268l157 -272h-96l-132 227h-8zM364 -118q47 0 47 69v138h87v-138q0 -151 -134 -151q-44 0 -73 14l6 76q38 -8 67 -8z" />
    <glyph glyph-name="uni04FE" unicode="&#x4fe;" horiz-adv-x="615" 
d="M316 325l-24 -42l-164 -284h-100l214 370l-215 371h100l165 -285l25 -43h5l25 43l165 285h100l-215 -371l214 -370h-100l-164 284l-24 42h-7zM467 403v-67h-294v67h294z" />
    <glyph glyph-name="uni04FF" unicode="&#x4ff;" horiz-adv-x="457" 
d="M262 226l-132 -227h-96l157 272l-155 268h96l132 -226h4l132 226h96l-155 -268l157 -272h-96l-132 227h-8zM418 303v-67h-294v67h294z" />
    <glyph glyph-name="uni0500" unicode="&#x500;" horiz-adv-x="618" 
d="M310 365q-182 0 -182 -145q0 -143 182 -143h139v288h-139zM310 442h139v299h87v-741h-226q-269 0 -269 220q0 222 269 222z" />
    <glyph glyph-name="uni0501" unicode="&#x501;" horiz-adv-x="550" 
d="M409 389q-77 81 -154 81q-123 0 -123 -194q0 -204 123 -204q77 0 154 99v218zM409 748h87v-748h-78l-10 79q-76 -89 -153 -89q-210 0 -210 281q0 282 210 282q77 0 154 -70v265z" />
    <glyph glyph-name="uni0502" unicode="&#x502;" horiz-adv-x="883" 
d="M310 365q-182 0 -182 -145q0 -143 182 -143h139v288h-139zM536 77q215 0 215 167l-10 183h77l10 -183q0 -244 -292 -244h-226q-269 0 -269 220q0 222 269 222h139v299h87v-664z" />
    <glyph glyph-name="uni0503" unicode="&#x503;" horiz-adv-x="785" 
d="M409 389q-77 81 -154 81q-123 0 -123 -194q0 -204 123 -204q77 0 154 139v178zM496 119q0 -41 83 -41q84 11 84 166l-10 183h87l10 -183q0 -244 -171 -244q-160 0 -171 109q-76 -119 -153 -119q-210 0 -210 281q0 282 210 282q77 0 154 -70v265h87v-629z" />
    <glyph glyph-name="uni0504" unicode="&#x504;" horiz-adv-x="839" 
d="M501 195q0 -118 96 -118q99 0 99 167l-10 183h87l10 -183q0 -244 -186 -244q-183 0 -183 195q0 144 -122 149h-139v77h139q102 15 102 120q0 54 -30 84q-33 35 -124 35q-85 -2 -172 -7l-5 72q93 15 177 17q134 0 191 -50q50 -46 50 -151q0 -125 -92 -158
q112 -25 112 -188z" />
    <glyph glyph-name="uni0505" unicode="&#x505;" horiz-adv-x="667" 
d="M400 142q0 -65 73 -65q72 0 72 127l-10 143h87l10 -143q0 -204 -159 -204q-160 0 -160 142q0 77 -102 82h-139v77h139q102 15 102 80q0 79 -114 79q-85 -2 -172 -7l-5 72q93 15 177 17q201 0 201 -161q0 -85 -92 -118q92 -25 92 -121z" />
    <glyph glyph-name="uni0506" unicode="&#x506;" horiz-adv-x="624" 
d="M153 344v77h139q102 15 102 120q0 54 -30 84q-33 35 -124 35q-85 -2 -172 -7l-5 72q93 15 177 17q134 0 191 -50q50 -46 50 -151q0 -125 -92 -158q112 -25 112 -188v-195h-87v195q0 144 -122 149h-139zM582 107q-4 -104 -65 -221l-66 23q45 92 50 198h81z" />
    <glyph glyph-name="uni0507" unicode="&#x507;" horiz-adv-x="511" 
d="M72 224v77h139q102 15 102 80q0 79 -114 79q-85 -2 -172 -7l-5 72q93 15 177 17q201 0 201 -161q0 -85 -92 -118q92 -25 92 -128v-135h-87v135q0 84 -102 89h-139zM481 107q-4 -104 -65 -221l-66 23q45 92 50 198h81z" />
    <glyph glyph-name="uni0508" unicode="&#x508;" horiz-adv-x="971" 
d="M633 195q0 -118 96 -118q99 0 99 167l-10 183h87l10 -183q0 -244 -186 -244q-183 0 -183 195v469h-161q-131 0 -131 -145v-214q0 -305 -234 -305v77q147 0 147 228v214q0 222 218 222h248v-546z" />
    <glyph glyph-name="uni0509" unicode="&#x509;" horiz-adv-x="794" 
d="M527 142q0 -65 73 -65q72 0 72 127l-10 143h87l10 -143q0 -204 -159 -204q-160 0 -160 142v320h-133q-90 0 -90 -120v-165q0 -177 -197 -177v77q110 0 110 100v165q0 197 177 197h220v-397z" />
    <glyph glyph-name="uni050A" unicode="&#x50a;" horiz-adv-x="939" 
d="M601 195q0 -118 96 -118q99 0 99 167l-10 183h87l10 -183q0 -244 -186 -244q-183 0 -183 195v133h-345v-328h-87v741h87v-326h345v326h87v-546z" />
    <glyph glyph-name="uni050B" unicode="&#x50b;" horiz-adv-x="754" 
d="M487 142q0 -65 73 -65q72 0 72 127l-10 143h87l10 -143q0 -204 -159 -204q-160 0 -160 142v90h-243v-232h-87v539h87v-230h243v230h87v-397z" />
    <glyph glyph-name="uni050C" unicode="&#x50c;" horiz-adv-x="692" 
d="M134 407v-85q0 -243 203 -243t203 218v28h-223v77h310v-105q0 -295 -290 -295t-290 320v85q0 340 290 340q205 0 266 -144l-57 -47q-67 114 -209 114q-203 0 -203 -263z" />
    <glyph glyph-name="uni050D" unicode="&#x50d;" horiz-adv-x="535" 
d="M124 287v-45q0 -163 143 -163t143 118v28h-163v77h250v-105q0 -195 -230 -195t-230 240v45q0 250 230 250q185 0 216 -124l-77 -27q-17 74 -139 74q-143 0 -143 -173z" />
    <glyph glyph-name="uni050E" unicode="&#x50e;" horiz-adv-x="686" 
d="M348 195q0 -118 96 -118q99 0 99 167l-10 183h87l10 -183q0 -244 -186 -244q-183 0 -183 195v470h-239v77h547v-77h-221v-470z" />
    <glyph glyph-name="uni050F" unicode="&#x50f;" horiz-adv-x="555" 
d="M288 142q0 -65 73 -65q72 0 72 127l-10 143h87l10 -143q0 -204 -159 -204q-160 0 -160 142v320h-180v77h447v-77h-180v-320z" />
    <glyph glyph-name="uni0510" unicode="&#x510;" horiz-adv-x="596" 
d="M314 4q138 1 235 20l-11 70q-87 -7 -224 -8q-174 0 -174 109q0 144 122 149h179v77h-179q-102 15 -102 120q0 119 154 119q125 -2 212 -7l5 72q-93 15 -217 17q-132 0 -186.5 -47t-54.5 -154q0 -125 82 -158q-102 -25 -102 -188q0 -107 62 -149t199 -42z" />
    <glyph glyph-name="uni0511" unicode="&#x511;" horiz-adv-x="429" 
d="M226 0q90 1 183 9l-11 75q-83 -6 -172 -6q-61 1 -90.5 17.5t-32.5 46.5q0 88 91 88h152v77h-152q-94 0 -94 83q3 42 33 56t93 15q95 -1 161 -6l8 75q-74 7 -169 9q-97 -1 -148.5 -33.5t-54.5 -115.5q0 -107 71 -120q-79 -16 -79 -129q6 -81 58 -110t153 -31z" />
    <glyph glyph-name="uni0512" unicode="&#x512;" horiz-adv-x="753" 
d="M581 -117q47 0 47 69v138h87v-138q0 -151 -134 -151q-44 0 -73 14l6 76q38 -8 67 -8zM628 0h-87v664h-161q-131 0 -131 -145v-214q0 -305 -234 -305v77q147 0 147 228v214q0 222 218 222h248v-741z" />
    <glyph glyph-name="uni0513" unicode="&#x513;" horiz-adv-x="627" 
d="M307 539h220v-539h-87v462h-133q-90 0 -90 -120v-165q0 -177 -197 -177v77q110 0 110 100v165q0 197 177 197zM480 -117q47 0 47 69v138h87v-138q0 -151 -134 -151q-44 0 -73 14l6 76q38 -8 67 -8z" />
    <glyph glyph-name="uni1E00" unicode="&#x1e00;" horiz-adv-x="630" 
d="M164 208l-68 -206h-89l241 710q11 29 31 29h56q22 0 33 -29l241 -710h-89l-68 206h-288zM427 285l-119 359l-119 -359h238zM308 -1q100 0 100 -99q0 -98 -100 -98q-99 0 -99 98q0 99 99 99zM361 -100q0 52 -53 52q-52 0 -52 -52q0 -51 52 -51q53 0 53 51z" />
    <glyph glyph-name="uni1E01" unicode="&#x1e01;" horiz-adv-x="520" 
d="M371 255h-69q-80 0 -121 -12q-59 -15 -61 -85q0 -84 93 -84q92 3 158 94v87zM457 352v-350h-76l-10 79q-63 -77 -158 -79q-180 0 -180 156q3 132 149 162q59 12 120 12h69v20q0 110 -112 110q-79 -4 -156 -34l-24 67q67 44 180 44q198 0 198 -187zM245 -1q100 0 100 -99
q0 -98 -100 -98q-99 0 -99 98q0 99 99 99zM298 -100q0 52 -53 52q-52 0 -52 -52q0 -51 52 -51q53 0 53 51z" />
    <glyph glyph-name="uni1E02" unicode="&#x1e02;" horiz-adv-x="610" 
d="M63 742h241q224 0 224 -193q0 -129 -109 -166q141 -40 141 -187q0 -196 -256 -196h-241v742zM150 343v-266h154q169 0 169 119q0 147 -179 147h-144zM150 665v-245h144q147 0 147 129q0 116 -137 116h-154zM257 827v24q0 42 42 42h25q42 0 42 -42v-24q0 -42 -42 -42h-25
q-42 0 -42 42z" />
    <glyph glyph-name="uni1E03" unicode="&#x1e03;" horiz-adv-x="564" 
d="M155 171q77 -99 154 -99q123 0 123 204q0 194 -123 194q-87 0 -154 -81v-218zM155 483q67 70 154 70q210 0 210 -282q0 -281 -210 -281q-77 0 -153 89l-10 -79h-78v748h87v-265zM287 649v24q0 42 42 42h25q42 0 42 -42v-24q0 -42 -42 -42h-25q-42 0 -42 42z" />
    <glyph glyph-name="uni1E04" unicode="&#x1e04;" horiz-adv-x="642" 
d="M82 742h241q224 0 224 -193q0 -129 -109 -166q141 -40 141 -187q0 -196 -256 -196h-241v742zM169 343v-266h154q169 0 169 119q0 147 -179 147h-144zM169 665v-245h144q147 0 147 129q0 116 -137 116h-154zM281 -131v24q0 42 42 42h25q42 0 42 -42v-24q0 -42 -42 -42h-25
q-42 0 -42 42z" />
    </font>
</defs>
</svg>
